<svg width="121" height="103" viewBox="0 0 121 103" fill="none" xmlns="http://www.w3.org/2000/svg">
<path d="M77.9092 88.9234H78.6402C78.762 88.9234 91.5523 89.167 93.7449 85.1472C94.1104 84.2945 94.1104 83.32 93.7449 82.3455C92.5268 79.7875 88.2634 77.7167 85.7053 77.1076H85.5834L88.1416 75.4022C88.2634 75.4022 100.81 79.422 104.221 75.4022C104.465 75.0367 104.586 74.5495 104.464 73.9405C103.734 71.626 99.5919 68.4588 98.3738 68.0934L98.1302 68.2152L97.8866 68.0934C97.3993 67.8498 97.0339 67.728 96.6685 67.4843L96.0594 67.2407L96.4248 66.6317C100.079 61.2719 101.906 54.9376 101.663 48.3597C101.419 38.0056 96.303 27.8952 88.6288 22.9009C86.8016 21.6827 84.7308 20.5864 82.66 19.7337L82.2946 19.6119V19.2465C82.4164 15.2266 81.4418 4.01983 78.762 1.21813C78.3965 0.730883 77.9093 0.60907 77.422 0.60907C75.473 0.60907 73.6458 3.41077 71.8186 9.13597C70.7223 12.6685 69.9914 16.2011 69.7478 17.1756L69.626 17.5411H69.1387C67.6769 17.6629 66.2152 17.7847 64.8753 18.1501C59.8809 19.1246 56.2266 21.0736 55.0084 21.9263L54.5212 22.17L54.2776 21.6827C53.6685 20.5864 53.0595 19.6119 52.4504 18.6374C48.9178 13.1558 46.1161 10.3541 44.1671 10.3541C44.0452 10.3541 44.0453 10.3541 43.9235 10.3541C42.8272 10.5977 41.9745 11.694 41.2436 13.8867C40.5127 16.2011 40.0255 19.6119 39.9036 24.119C39.7818 26.068 39.7818 28.2606 39.7818 30.5751V31.6714L38.9291 31.0623C36.9801 29.7224 34.4221 28.7479 31.3767 28.1388C29.7932 27.8952 28.0878 27.7734 26.5042 27.7734C24.9207 27.7734 23.4589 27.8952 21.8753 28.1388L20.6572 28.3824L21.2662 27.2861C23.9461 22.9008 26.7478 19.2464 29.915 15.8357C32.5949 12.7904 33.6912 10.5977 32.8385 9.74504C32.5948 9.3796 32.1076 9.25779 31.3767 9.25779C29.1841 9.25779 25.5297 10.9632 22.4844 13.2776C13.4702 20.3428 8.84135 27.4079 6.52691 32.1586C4.21246 36.7875 3.72519 40.0764 3.72519 40.6855V40.8073V40.9291C3.23794 41.9037 2.75068 42.8782 2.38524 43.9745C1.0453 47.7507 0.436256 52.8668 0.923507 57.7393C1.41076 63.5863 3.23793 69.0679 6.03963 73.575C8.47589 77.473 11.7648 80.762 15.7847 83.1982C20.2917 85.8781 25.6515 87.7053 31.7422 88.3144C32.5949 88.4362 33.3257 88.4362 34.1784 88.4362C36.8583 88.4362 39.4164 87.9489 41.4872 87.0962C42.9489 86.4872 44.1671 85.6345 45.0198 84.7818L45.2634 84.5382L45.6288 84.66C46.7251 85.0254 50.745 86.4872 56.9574 87.7053C63.2917 88.9234 69.7478 89.5325 76.2039 89.5325C76.6912 89.0452 77.3002 89.0452 77.9092 88.9234Z" fill="#D9BA8B"/>
<path d="M8.35352 28.8697C8.59714 28.2606 8.96256 27.7733 9.20618 27.2861C9.57162 26.7988 9.93705 26.1898 10.3025 25.7025C10.9116 24.9717 11.277 24.6062 11.277 24.6062C11.277 24.6062 14.566 25.7025 16.8804 28.8697C15.0532 29.6006 12.2515 31.3059 12.2515 31.3059C12.2515 31.3059 10.4243 29.4787 8.35352 28.8697ZM26.8691 19.0028C26.8691 19.0028 27.1127 18.7592 27.4781 18.3938C28.3308 17.4193 29.1835 16.4448 30.0362 15.5921C28.8181 11.9377 26.0164 11.085 26.0164 11.085C26.0164 11.085 24.5546 11.5722 21.7529 14.0085C24.6764 14.8612 26.8691 19.0028 26.8691 19.0028ZM99.9568 68.9461C99.4696 68.5807 98.8605 68.337 98.2514 68.0934L98.1296 68.2152L97.886 68.0934C97.3988 67.8498 97.0333 67.728 96.6679 67.4844L96.1806 67.2408C95.5715 67.9716 94.8407 68.7025 94.2316 69.4334C94.1098 69.677 93.8661 69.7988 93.7443 70.0424C94.3534 69.4334 99.5914 63.7082 101.175 54.694C101.419 53.2322 101.54 51.6487 101.662 50.0651C101.54 49.8215 96.7897 37.8838 91.9171 38.9801C87.0446 40.0765 93.6226 70.0424 93.6226 70.0424C90.2118 73.575 87.5319 75.4022 87.7756 75.4022H87.8973L88.0191 75.2804C88.1409 75.2804 93.988 77.1076 98.7387 77.1076C103.733 76.864 104.829 74.5495 103.124 71.9914C102.393 70.8951 101.053 69.7988 99.9568 68.9461ZM57.5659 60.7846C56.1041 59.0793 40.3903 59.0793 35.1524 59.2011C36.005 61.881 37.1014 64.5609 38.8067 66.9971C50.1353 65.4135 59.2713 62.6118 57.5659 60.7846ZM58.0532 53.7195C57.5659 49.4561 38.1977 46.6544 33.5688 46.0453C33.447 48.7252 33.5688 51.2833 33.9342 53.8413C40.6339 54.5722 58.4186 56.034 58.0532 53.7195ZM14.5659 20.5864C18.464 21.6827 21.2657 26.068 21.6311 26.677C22.4838 25.2153 23.4583 23.8753 24.311 22.5354C22.362 18.6374 18.5858 17.0538 18.0985 16.932C17.7331 17.1756 17.4895 17.5411 17.124 17.7847C16.515 18.3938 15.7841 19.2464 14.5659 20.5864ZM72.7925 45.558C63.9002 45.4362 59.0277 78.813 59.0277 78.813C61.9512 80.1529 73.2798 80.5183 75.9597 79.6656C77.5433 71.7478 77.5432 45.9235 72.7925 45.558ZM79.3704 24.7281C81.1976 23.5099 79.3704 18.3938 79.3704 18.3938L72.1834 17.5411C72.1834 17.4192 77.5432 25.8244 79.3704 24.7281ZM93.988 84.9036C94.3534 84.0509 94.2316 83.1982 93.8662 82.3456C92.6481 79.7875 88.3846 77.7167 85.8265 76.9858H85.7047L86.0701 76.7421C85.9483 76.6203 85.7047 76.6203 85.5829 76.6203C78.1523 80.1529 73.158 88.9234 73.6452 88.9234C87.8973 89.1671 92.039 87.4617 93.988 84.9036ZM55.0078 21.8045L56.1042 24.7281C56.7133 25.7026 60.8549 29.7224 62.5603 28.3824C64.1438 27.1643 60.2458 21.3173 59.1495 19.6119C57.8096 20.221 56.4696 20.83 55.1296 21.5609L55.0078 21.8045ZM71.6962 26.068C73.6452 25.7025 69.9909 18.3938 68.6509 17.4193H68.4073C67.311 17.5411 66.0928 17.6629 64.9965 17.9065C64.5093 18.0283 64.1438 18.1501 63.6565 18.1501C63.0475 18.3938 62.4384 18.5156 62.4384 18.5156C62.4384 18.5156 68.0418 26.7988 71.6962 26.068ZM43.9229 31.6714C44.0447 33.3767 50.988 30.9405 52.2062 28.626C51.3535 24.8498 48.6735 19.6119 45.9937 19.8555C43.192 20.5864 43.9229 31.6714 43.9229 31.6714Z" fill="#A88761"/>
<path d="M120.056 59.6883C119.812 59.2011 119.325 58.9575 118.838 58.8357C118.716 58.8357 118.472 58.8357 118.35 58.8357C116.036 58.8357 112.503 61.0283 111.163 62.0028L110.311 62.6118V61.5155C110.311 57.7393 109.58 55.0594 108.483 54.2067C108.24 54.0849 107.874 53.9631 107.631 53.9631C107.387 53.9631 107.143 53.9631 106.9 54.0849C105.316 54.694 104.707 56.643 104.951 60.0538C105.073 61.5155 105.316 62.9773 105.682 64.439L105.804 64.9263L105.316 65.0481C104.098 65.5353 101.053 66.6317 98.6166 67.9716C99.8347 68.4589 103.976 71.5042 104.707 73.8186C104.951 74.4277 104.829 74.9149 104.464 75.4022C103.002 77.1076 99.8347 77.5948 95.084 76.9858C92.7696 76.6203 90.5769 76.1331 88.2625 75.524L85.9481 76.9858C88.3843 77.5948 92.6478 79.5438 93.9877 82.3455C94.475 83.32 94.475 84.2945 93.9877 85.1472C93.0132 86.8526 90.2115 88.0708 85.4608 88.6798C83.2682 88.9234 80.9537 89.0452 78.7611 89.0452L78.5174 89.6543C77.9084 91.6033 75.9594 98.303 79.9792 100.617C80.9537 101.227 82.2936 101.47 83.7554 101.47C85.948 101.47 88.3843 100.861 90.9424 99.7648C94.475 98.1812 99.9565 94.6486 105.316 87.4617C108.727 82.9546 110.067 77.7167 110.676 74.0623C111.042 71.8696 111.042 69.677 111.042 67.6062V67.1189L111.407 66.9971C115.183 65.779 119.447 63.83 120.299 61.6373C120.543 61.0283 120.421 60.4192 120.056 59.6883Z" fill="#A0B3BE"/>
<path d="M97.3991 47.1416C97.3991 48.847 96.1809 50.3088 94.5974 50.3088C93.0138 50.3088 91.6738 48.847 91.6738 47.1416C91.6738 45.4362 93.1356 44.2181 94.5974 44.2181C96.0591 44.2181 97.3991 45.3144 97.3991 47.1416Z" fill="#050404"/>
<path d="M96.6678 47.8725C96.6678 48.3598 96.1806 48.847 95.6933 48.847C95.2061 48.847 94.7188 48.3598 94.7188 47.8725C94.7188 47.3853 95.2061 46.898 95.6933 46.898C96.3024 46.898 96.6678 47.2634 96.6678 47.8725Z" fill="white"/>
<path d="M74.2549 55.9121C74.2549 57.8611 72.7932 59.4447 71.0878 59.4447C69.3824 59.4447 67.7988 57.8611 67.7988 55.9121C67.7988 53.9631 69.3824 52.6232 71.0878 52.6232C72.915 52.745 74.2549 53.9631 74.2549 55.9121Z" fill="#050404"/>
<path d="M73.5233 56.8866C73.5233 57.3739 73.036 57.8611 72.5488 57.8611C72.0615 57.8611 71.5742 57.3739 71.5742 56.8866C71.5742 56.3994 72.0615 55.9121 72.5488 55.9121C73.036 56.0339 73.5233 56.3994 73.5233 56.8866Z" fill="white"/>
<path d="M87.1669 33.7422C87.8978 31.915 89.4813 30.9405 90.5777 31.4277C91.674 31.915 91.9176 33.7422 91.1867 35.5694C90.4559 37.3966 88.8723 38.3711 87.776 37.8838C86.5579 37.2747 86.3142 35.4476 87.1669 33.7422Z" fill="#A88761"/>
<path d="M68.0422 39.711C68.2859 38.4929 70.2348 37.8838 72.1838 38.3711C74.1328 38.8583 75.5946 40.1983 75.2292 41.5382C74.9855 42.7563 73.0366 43.3654 71.0876 42.8781C69.1386 42.2691 67.7986 40.9291 68.0422 39.711Z" fill="#A88761"/>
<path d="M44.4104 32.8895C45.6285 32.8895 47.8212 32.0368 49.2829 31.3059C52.6937 29.7224 52.6937 28.9915 52.6937 28.626C52.6937 27.5297 50.7447 22.5354 48.4302 20.3428C47.5775 19.6119 46.7249 19.2465 45.8722 19.2465C45.3849 19.2465 44.8977 19.4901 44.5323 19.9773C42.4614 22.4136 43.0705 30.9405 43.1923 31.915C43.3141 32.2804 43.4359 32.8895 44.4104 32.8895ZM45.5068 20.83C45.7504 20.5864 45.8722 20.5864 45.994 20.4646C46.4812 20.4646 47.0903 20.7082 47.6994 21.1954C49.7702 23.1444 51.4756 27.6515 51.5974 28.5042C51.3538 28.7478 50.2575 29.6005 48.1867 30.4532C46.3595 31.3059 45.0195 31.5495 44.5323 31.5495C44.2886 28.9915 44.045 22.4136 45.5068 20.83ZM120.543 59.4447C120.178 58.8357 119.569 58.4702 118.838 58.3484C116.402 57.8611 112.382 60.2974 110.677 61.5155C110.677 59.4447 110.433 55.0594 108.606 53.7195C108.24 53.4759 107.51 53.1104 106.535 53.4759C104.708 54.2067 103.977 56.3994 104.221 60.0538C104.342 61.5155 104.586 63.0991 104.951 64.5608C103.733 65.0481 100.566 66.2662 98.13 67.6062C97.6427 67.3625 97.2773 67.1189 96.9118 66.9971C100.566 61.5155 102.393 55.1813 102.272 48.3597C102.028 37.762 96.9118 27.5297 88.994 22.4136C87.045 21.1954 85.0959 20.0992 83.0251 19.2465C83.1469 15.3484 82.1725 3.89803 79.249 0.852705C78.7617 0.243641 78.1526 0 77.5435 0C75.3509 0 73.2801 2.92353 71.3311 8.89236C70.2348 12.4249 69.5039 15.8357 69.2603 17.0538C67.7985 17.1756 66.3367 17.2974 64.875 17.6629C59.7588 18.7592 56.1045 20.7082 54.7645 21.4391C54.1554 20.4646 53.5464 19.3683 52.9373 18.3938C49.1611 12.4249 46.2376 9.62323 43.9232 9.86685C41.2433 10.3541 39.7815 14.983 39.4161 24.119C39.2943 26.3116 39.2943 28.626 39.2943 30.575C37.3453 29.2351 34.5436 28.1388 31.4983 27.5297C28.3311 26.9207 25.0422 26.9207 21.875 27.5297C23.4586 24.9717 26.2603 20.5864 30.4019 16.2011C33.4472 12.7904 34.4218 10.4759 33.3255 9.37961C31.6201 7.55241 26.2603 9.74504 22.2405 12.9122C13.1045 20.0991 8.4756 27.2861 6.03934 32.0368C3.7249 36.7875 3.23765 40.0764 3.11584 40.6855C2.62859 41.66 2.14133 42.7563 1.77589 43.7308C0.435948 47.6288 -0.173102 52.745 0.192337 57.7393C0.679589 63.5863 2.50677 69.1897 5.43028 73.8186C7.86654 77.8385 11.2773 81.1274 15.2971 83.5637C19.8042 86.3654 25.2858 88.0707 31.4983 88.8016C32.351 88.9234 33.2037 88.9234 33.9345 88.9234C36.6144 88.9234 39.2943 88.4362 41.4869 87.4617C43.0705 86.8526 44.2886 85.8781 45.2631 84.9036C46.4812 85.3909 50.5011 86.7308 56.7136 87.9489C63.0478 89.1671 69.6257 89.7761 76.0818 89.7761C76.6908 89.7761 77.2999 89.7761 77.7872 89.7761C77.0563 92.0906 75.2291 98.9121 79.4925 101.47C80.5888 102.079 82.0506 102.445 83.6342 102.445C85.8268 102.445 88.3849 101.836 91.0647 100.617C94.7191 98.9121 100.201 95.5013 105.682 88.1925C109.215 83.6855 110.555 78.2039 111.164 74.5495C111.529 72.3569 111.529 70.1643 111.529 67.9716C113.235 67.4844 119.691 65.2917 120.787 62.2464C121.153 61.0283 121.031 60.1756 120.543 59.4447ZM103.49 73.0877C103.124 72.9659 102.881 72.9659 102.515 72.9659C101.784 73.0877 102.15 74.1841 102.759 74.0623C103.002 74.0623 103.368 74.1841 103.612 74.3059L103.733 74.4277C103.977 74.6713 103.977 74.915 103.855 75.2804C103.368 75.8895 102.393 76.3767 101.175 76.4985C101.053 76.0113 100.688 75.524 100.444 75.1586C99.9571 74.6713 99.1044 75.4022 99.5917 76.0112C99.7135 76.2549 99.9571 76.3767 100.079 76.6203C96.6682 76.8639 91.9175 76.0113 89.1158 75.2804C91.9175 73.0878 94.3538 70.6515 96.3028 67.8498C98.4954 68.8243 102.15 71.0169 103.49 73.0877ZM72.4274 9.01415C74.7418 1.949 76.569 0.974526 77.5435 0.974526C77.909 0.974526 78.1526 1.09633 78.518 1.46177C80.9543 4.01984 81.9288 14.4958 81.9288 18.6374C78.2744 17.2975 74.3764 16.6884 70.4784 16.6884C70.722 15.4703 71.3311 12.1813 72.4274 9.01415ZM7.13569 32.0368C9.45013 27.4079 13.9572 20.3428 22.9714 13.3994C27.2348 9.98866 31.6201 8.89234 32.4728 9.74503C32.96 10.2323 32.4728 11.9377 29.5493 15.1048C24.7986 20.0991 21.7532 25.0935 20.2915 27.4079C20.0478 27.4079 19.8042 27.5297 19.5606 27.5297C15.6626 28.5042 12.2518 30.2096 9.32831 32.6459C7.74474 33.9858 6.28298 35.5694 5.06485 37.2748C5.67392 35.5694 6.283 33.7422 7.13569 32.0368ZM57.079 86.609C51.4756 85.5127 47.5776 84.2945 46.1158 83.6855C46.3594 83.32 46.6031 82.8328 46.7249 82.3455C47.4558 80.0311 45.994 77.8385 42.9486 76.3767C40.2688 75.4022 37.9543 74.9149 36.1271 74.5495C32.7164 73.8186 31.6201 73.4532 31.4983 71.7478C31.4983 71.2605 31.4983 70.7733 31.4983 70.0424C31.4983 65.2917 31.4982 55.4249 21.266 50.1869C21.0223 50.0651 20.6569 50.1869 20.5351 50.4305C20.4133 50.6742 20.5351 51.0396 20.7787 51.1614C30.4019 56.1558 30.4019 65.5353 30.4019 70.0424C30.4019 70.7733 30.4019 71.3824 30.4019 71.8696C30.6455 74.5495 32.7164 75.0368 35.8835 75.6458C37.7107 76.0113 39.9034 76.4985 42.4614 77.473C45.0195 78.6911 46.1158 80.3965 45.5068 82.1019C45.3849 82.5891 45.1413 82.9546 44.8977 83.4418C44.6541 83.0764 44.2886 82.711 43.9232 82.3455C43.6796 82.1019 43.3141 82.1019 43.0705 82.3455C42.8269 82.5892 42.8269 82.9546 43.0705 83.1982C43.4359 83.5637 43.8014 83.9291 44.045 84.2945C43.3141 85.0254 42.3396 85.6345 41.1215 86.1217C40.9997 86.2436 40.8779 86.2436 40.6342 86.2436C40.5124 85.7563 40.2688 85.3909 39.9034 85.0254C39.6597 84.7818 39.2943 84.7818 39.0506 85.0254C38.807 85.2691 38.807 85.6345 39.0506 85.8781C39.2943 86.1217 39.4161 86.3654 39.4161 86.609C37.1017 87.3399 34.3 87.5835 31.4983 87.218C20.1697 85.9999 11.3991 81.0056 6.28298 72.8441C0.192337 63.0991 0.192344 50.9178 2.75042 43.7308C3.11585 42.7563 3.60311 41.66 4.09036 40.6855C4.09036 40.6855 4.09036 40.6855 4.09036 40.5637C8.11019 32.8895 14.6881 29.8442 19.6824 28.626C23.4586 27.6515 27.3566 27.5297 31.1328 28.2606C34.2999 28.8697 37.1016 29.966 38.9288 31.4278C35.3963 35.6912 33.0818 42.1473 33.0818 42.6345C33.0818 43 33.3255 43.2436 33.6909 43.2436C33.9345 43.2436 34.1781 43 34.3 42.7563C34.4218 42.2691 36.1272 37.0311 39.2943 32.8895C39.4161 35.2039 39.4161 36.6657 39.4161 36.7875C39.4161 37.0311 39.6597 37.2748 40.0252 37.2748C40.3906 37.2748 40.5124 37.0311 40.5124 36.6657C40.5124 36.5439 40.147 30.2096 40.3906 23.7535C40.5124 19.9773 40.8778 16.932 41.4869 14.7394C42.096 12.1813 42.9487 10.8414 43.9232 10.5977C44.8977 10.4759 47.2122 11.4504 51.841 18.6374C54.5209 22.9008 56.7136 27.2861 56.7136 27.2861C56.8354 27.5297 57.2008 27.6515 57.4444 27.5297C57.688 27.4079 57.8099 27.0425 57.688 26.7988C57.688 26.7988 56.7135 24.728 55.1299 22.0481C56.3481 21.3173 60.0024 19.3683 64.875 18.3938C70.4784 17.2974 79.1271 17.1756 88.1413 23.1445C95.6937 28.1388 100.688 38.0056 100.932 48.2379C101.175 58.9575 96.3028 68.4589 87.1668 75.0368C82.7815 78.2039 75.2291 79.9093 67.0677 79.422C58.2971 78.9348 50.0138 76.1331 43.8013 71.626C43.5577 71.3824 43.1923 71.5042 43.0705 71.7478C42.8269 71.9914 42.9487 72.3569 43.1923 72.4787C46.4812 74.9149 50.2574 76.7421 54.5209 78.2039C58.5407 79.5438 62.6823 80.2747 66.9458 80.5183C67.9203 80.5183 68.8948 80.6402 69.7475 80.6402C72.7928 80.6402 75.8382 80.3965 78.6399 79.7875C81.0761 79.3002 83.2688 78.5693 85.096 77.5948C91.1866 79.7875 92.892 81.7365 93.3792 82.9546C93.1356 82.711 92.7702 82.5892 92.4047 82.5892C91.6739 82.4674 91.4302 83.5637 92.1611 83.6855C92.6483 83.8073 93.1356 84.0509 93.3792 84.5381C93.0138 85.3908 92.1611 86.1217 90.8212 86.7308C90.6994 86.2436 90.3339 85.8781 90.0903 85.6345C89.8466 85.3909 89.4812 85.3909 89.2376 85.6345C88.9939 85.8781 88.9939 86.2435 89.2376 86.4872C89.4812 86.7308 89.7248 86.9744 89.7248 87.218C88.7503 87.5835 87.654 87.8271 86.5577 87.9489C74.3764 89.1671 63.7787 87.9489 57.079 86.609ZM96.1809 95.9886C94.3537 97.3285 92.5265 98.4248 90.6993 99.2775C87.5322 100.739 84.4869 101.227 82.1724 100.861C82.7815 100.374 83.5123 99.5212 83.756 98.303C83.756 97.9376 83.6342 97.694 83.2688 97.694C83.0251 97.694 82.6597 97.8158 82.6597 98.1812C82.4161 99.643 81.1979 100.252 80.7106 100.496C80.5888 100.374 80.3453 100.374 80.2234 100.252C76.4472 98.0594 78.6398 91.1161 79.1271 89.5325C81.6852 89.4107 84.3651 89.2889 87.0449 89.0452C89.4812 88.6798 91.4302 87.9489 92.8919 86.9744C93.8664 87.8271 96.5463 90.6288 96.1809 95.9886ZM119.691 61.5155C118.716 63.9518 112.869 66.0226 110.677 66.6317C110.433 66.7535 110.189 66.9971 110.311 67.2407C110.311 67.2407 110.555 70.1643 110.068 74.0623C109.58 77.5948 108.24 82.8328 104.83 87.218C102.515 90.2634 100.079 92.9433 97.399 95.1359C97.399 90.1416 94.9628 87.3399 93.8665 86.2436C94.5974 85.5127 94.9628 84.7818 94.9628 84.0509C95.0846 82.2237 93.7447 79.5438 86.6795 76.864C87.045 76.6203 87.4104 76.3767 87.7759 76.1331C88.6285 76.3767 91.6739 77.1076 94.841 77.473C96.0591 77.5948 97.3991 77.7167 98.739 77.7167C101.784 77.7167 103.855 77.1076 104.708 75.7676C105.073 75.0368 105.195 74.3059 104.951 73.575C104.342 71.626 101.662 69.5552 99.2262 68.2152C102.028 66.7535 105.682 65.5354 105.682 65.4135C105.926 65.2917 106.17 65.0481 106.048 64.6827C105.317 62.2464 104.099 55.5467 106.779 54.5722C107.388 54.3286 107.631 54.4504 107.875 54.694C109.215 55.6685 109.459 60.0538 109.459 62.6118C109.459 62.9773 109.702 63.2209 109.946 63.2209C110.068 63.2209 110.189 63.2209 110.311 63.0991C111.895 62.0028 116.402 59.0793 118.595 59.4447C118.96 59.5665 119.325 59.6883 119.447 60.0538C119.813 60.541 119.934 61.0283 119.691 61.5155ZM86.1922 92.5778C86.1922 93.5523 85.3395 94.405 84.365 94.405C83.3905 94.405 82.5378 93.5523 82.5378 92.5778C82.5378 91.6033 83.3905 90.7506 84.365 90.7506C85.3395 90.8724 86.1922 91.6033 86.1922 92.5778ZM80.9543 60.6628C80.8325 60.4192 81.0761 60.0538 81.3197 59.932C81.5633 59.8102 81.9288 60.0538 82.0506 60.2974C82.0506 60.4192 82.4161 61.6373 83.8778 61.6373C85.096 61.5155 85.5832 60.2974 85.8268 59.5665C84.6087 59.4447 83.756 58.4702 83.756 57.6175C83.756 56.643 84.9741 55.6685 86.4359 55.4249C87.8976 55.3031 89.1158 55.9121 89.1158 57.0085C89.1158 57.8612 88.1413 59.0793 86.9231 59.4447C87.045 60.1756 87.654 60.7846 88.1413 60.7846C88.7503 60.7846 89.1158 60.2974 89.4812 59.3229C89.603 59.0793 89.8467 58.8356 90.2121 58.9574C90.4557 59.0793 90.6994 59.3229 90.5775 59.6883C90.0903 61.1501 89.2376 62.0028 88.1413 62.0028C87.5322 62.0028 86.9232 61.6373 86.5577 61.1501C85.9487 62.2464 85.096 62.8555 84.1215 62.9773H83.9996C81.9288 62.8555 81.0761 61.3937 80.9543 60.6628Z" fill="#050404"/>
</svg>
