<svg width="120" height="100" viewBox="0 0 120 100" fill="none" xmlns="http://www.w3.org/2000/svg">
<g clip-path="url(#clip0_4005_29224)">
<path fill-rule="evenodd" clip-rule="evenodd" d="M10.7713 16.2235L6.70312 18.7443L11.1758 20.4441L12.32 25.0926L15.3249 21.3576L20.0981 21.7045L17.463 17.6921L19.2775 13.2633L14.6546 14.5237L10.9909 11.4363L10.7713 16.2235Z" fill="white"/>
<path fill-rule="evenodd" clip-rule="evenodd" d="M63.9117 2.1161L60.8606 1.39917L62.155 4.25532L60.5254 6.93802L63.6459 6.59112L65.6915 8.97317L66.3272 5.89732L69.2165 4.68316L66.5005 3.12211L66.2347 0L63.9117 2.1161Z" fill="white"/>
<path fill-rule="evenodd" clip-rule="evenodd" d="M111.944 23.647L107.287 22.5022L109.217 26.8963L106.686 30.9666L111.447 30.4925L114.533 34.1581L115.562 29.4865L120 27.671L115.874 25.2543L115.527 20.467L111.944 23.647Z" fill="white"/>
<path fill-rule="evenodd" clip-rule="evenodd" d="M110.338 49.5491L107.761 48.9131L108.824 51.353L107.426 53.6079L110.072 53.3535L111.783 55.3886L112.349 52.7869L114.811 51.7809L112.523 50.4395L112.326 47.7915L110.338 49.5491Z" fill="white"/>
<path fill-rule="evenodd" clip-rule="evenodd" d="M109.598 81.4525L107.021 80.8165L108.084 83.2563L106.686 85.5112L109.321 85.2568L111.043 87.2804L111.609 84.6902L114.071 83.6842L111.782 82.3428L111.586 79.6948L109.598 81.4525Z" fill="white"/>
<path fill-rule="evenodd" clip-rule="evenodd" d="M2.65819 51.0638L0 52.7174L2.93557 53.8275L3.6868 56.8687L5.63999 54.4172L8.77203 54.6485L7.04998 52.0236L8.22884 49.1212L5.20081 49.9538L2.80844 47.9302L2.65819 51.0638Z" fill="white"/>
<path fill-rule="evenodd" clip-rule="evenodd" d="M8.76074 39.0033C8.76074 39.2206 8.82513 39.4329 8.94577 39.6136C9.06641 39.7943 9.23787 39.9351 9.4385 40.0182C9.63912 40.1014 9.85988 40.1231 10.0729 40.0807C10.2858 40.0383 10.4815 39.9337 10.635 39.7801C10.7886 39.6265 10.8932 39.4307 10.9355 39.2176C10.9779 39.0045 10.9561 38.7837 10.873 38.5829C10.7899 38.3822 10.6492 38.2106 10.4687 38.0899C10.2881 37.9692 10.0758 37.9048 9.85867 37.9048C9.56748 37.9048 9.28821 38.0205 9.0823 38.2265C8.8764 38.4326 8.76074 38.712 8.76074 39.0033Z" fill="white"/>
<path fill-rule="evenodd" clip-rule="evenodd" d="M6.66904 68.2008C6.66674 68.3454 6.7075 68.4873 6.7861 68.6086C6.8647 68.73 6.97762 68.8251 7.11044 68.882C7.24327 68.9389 7.39 68.955 7.53199 68.9282C7.67399 68.9015 7.80481 68.833 7.9078 68.7316C8.01079 68.6302 8.08128 68.5004 8.11032 68.3588C8.13936 68.2172 8.12564 68.0701 8.07089 67.9363C8.01613 67.8025 7.92284 67.6881 7.80287 67.6075C7.68289 67.5269 7.54165 67.4839 7.39716 67.4839C7.20603 67.4839 7.02259 67.559 6.88637 67.6931C6.75015 67.8273 6.67207 68.0096 6.66904 68.2008Z" fill="white"/>
<path fill-rule="evenodd" clip-rule="evenodd" d="M102.294 38.4251C102.294 38.6401 102.358 38.8502 102.477 39.029C102.596 39.2077 102.766 39.347 102.965 39.4293C103.163 39.5116 103.382 39.5331 103.592 39.4912C103.803 39.4492 103.997 39.3457 104.149 39.1937C104.3 39.0417 104.404 38.848 104.446 38.6371C104.488 38.4263 104.466 38.2077 104.384 38.0091C104.302 37.8105 104.163 37.6408 103.984 37.5213C103.805 37.4019 103.595 37.3381 103.38 37.3381C103.092 37.3381 102.816 37.4526 102.612 37.6565C102.408 37.8603 102.294 38.1368 102.294 38.4251Z" fill="white"/>
<path fill-rule="evenodd" clip-rule="evenodd" d="M118.162 62.9046C117.336 64.5088 116.237 65.9567 114.915 67.1831C114.301 67.7439 113.548 68.1291 112.735 68.298C111.921 68.4669 111.077 68.4133 110.292 68.1428C109.608 67.7068 108.847 67.4083 108.049 67.264C107.273 67.2428 106.512 67.4831 105.888 67.9463C104.617 69.0602 103.812 70.6127 103.635 72.2941C103.392 73.3695 105.045 73.832 105.287 72.7451C105.588 71.3921 106.027 69.1604 107.761 68.987C108.5 68.906 109.171 69.542 109.829 69.808C110.595 70.1013 111.419 70.2084 112.233 70.1202C115.862 69.7502 117.954 66.6512 119.653 63.7719C119.727 63.637 119.764 63.4849 119.76 63.3312C119.755 63.1774 119.71 63.0276 119.629 62.8969C119.548 62.7663 119.434 62.6596 119.298 62.5878C119.162 62.516 119.009 62.4817 118.856 62.4884C118.715 62.4892 118.577 62.5284 118.457 62.6017C118.337 62.6751 118.239 62.7798 118.174 62.9046" fill="white"/>
<path fill-rule="evenodd" clip-rule="evenodd" d="M104.513 14.0149C104.364 14.0076 104.215 14.0427 104.084 14.1164C103.953 14.19 103.845 14.2991 103.774 14.4312C103.254 15.6569 102.537 17.4723 100.965 17.5648C100.26 17.5648 99.8096 17.0445 99.382 16.5935C98.9126 16.0444 98.2945 15.6428 97.6022 15.4372C96.8855 15.3029 96.1456 15.3713 95.4657 15.6349C94.7857 15.8984 94.1928 16.3465 93.7536 16.9289C92.8211 18.3289 92.3042 19.9647 92.2627 21.6467C92.2627 21.8736 92.3528 22.0913 92.5132 22.2517C92.6736 22.4122 92.8911 22.5024 93.1179 22.5024C93.344 22.4967 93.5595 22.405 93.7205 22.2461C93.8815 22.0872 93.976 21.8728 93.9847 21.6467C94.1465 20.2591 94.3199 18.4668 95.5334 17.5532C95.964 17.2 96.5159 17.0297 97.0705 17.0791C97.7177 17.1717 98.1338 17.7729 98.5614 18.2355C99.0597 18.7597 99.7155 19.1067 100.429 19.2236C101.143 19.3405 101.875 19.2209 102.514 18.883C103.824 18.0549 104.799 16.789 105.265 15.31C105.368 15.1135 105.394 14.8849 105.336 14.6704C105.278 14.4558 105.141 14.2712 104.953 14.1536C104.825 14.0723 104.676 14.0319 104.525 14.038" fill="white"/>
<path fill-rule="evenodd" clip-rule="evenodd" d="M4.46116 77.3474C4.26878 77.3382 4.07901 77.3951 3.92343 77.5087C3.76785 77.6223 3.6558 77.7857 3.60589 77.9718C3.49834 78.6163 3.53816 79.2767 3.72232 79.9036C3.90647 80.5305 4.2302 81.1074 4.66918 81.5911C5.13486 82.0571 5.70496 82.4051 6.33214 82.6063C6.95931 82.8074 7.62543 82.8558 8.27507 82.7475C8.93828 82.6207 9.57277 82.3738 10.1474 82.019C10.6343 81.7283 11.1784 81.5468 11.7423 81.4871C12.2403 81.4594 12.7355 81.5783 13.1668 81.829C13.5981 82.0797 13.9466 82.4512 14.1693 82.8978C14.6663 83.8923 16.1456 83.0134 15.6487 82.0306C15.3898 81.5356 15.0346 81.0974 14.6039 80.7419C14.1731 80.3864 13.6756 80.1208 13.1407 79.9607C12.5933 79.7964 12.0183 79.7445 11.4502 79.808C10.8822 79.8716 10.3329 80.0494 9.83532 80.3307C8.80671 80.8627 7.88214 81.4871 6.70329 80.9667C6.23039 80.755 5.83801 80.3969 5.58413 79.945C5.33024 79.4932 5.22829 78.9717 5.29329 78.4575C5.34438 78.2386 5.3108 78.0084 5.19933 77.8132C5.08786 77.6181 4.90672 77.4723 4.69228 77.4052C4.62727 77.394 4.56084 77.394 4.49583 77.4052" fill="white"/>
<path fill-rule="evenodd" clip-rule="evenodd" d="M43.6748 8.97319C43.6748 9.18817 43.7385 9.3983 43.8579 9.57705C43.9773 9.7558 44.1469 9.89513 44.3454 9.9774C44.5439 10.0597 44.7624 10.0812 44.9731 10.0393C45.1839 9.99732 45.3775 9.89379 45.5294 9.74178C45.6813 9.58976 45.7848 9.39609 45.8267 9.18524C45.8686 8.97439 45.8471 8.75582 45.7649 8.55721C45.6827 8.35859 45.5434 8.18885 45.3647 8.06941C45.1861 7.94998 44.9761 7.88623 44.7612 7.88623C44.4731 7.88623 44.1968 8.00073 43.993 8.20457C43.7893 8.40841 43.6748 8.68491 43.6748 8.97319Z" fill="white"/>
<path fill-rule="evenodd" clip-rule="evenodd" d="M86.7954 94.7733L61.7853 94.3108C61.219 94.3108 60.93 94.2414 60.9416 93.5245C61.0726 86.6867 61.1689 79.8527 61.2305 73.0226C61.2305 69.1374 61.2305 65.2405 61.2305 61.3552C61.2305 60.7424 61.4386 60.5111 62.0627 60.5111L83.7674 60.5805H87.9742V63.506C88.032 69.3802 88.0552 75.2544 88.1361 81.117C88.1938 85.1526 88.321 89.2114 88.4019 93.2007C88.4019 94.5305 88.2169 94.7733 87.0381 94.7733H86.8301M30.7885 93.2354C30.9156 88.0203 31.1236 82.8284 31.2045 77.5902C31.2854 72.352 31.2045 67.1831 31.2045 61.9334C31.2045 61.679 31.2045 61.4246 31.2045 61.1702C31.2045 60.9158 31.297 60.5689 31.7708 60.5689C39.5759 60.5689 47.3771 60.5496 55.1745 60.5111C55.995 60.5111 56.2031 60.7424 56.2031 61.5749C56.2031 66.8478 56.2031 72.1323 56.2031 77.4052C56.2031 82.7706 56.2031 88.136 56.2031 93.4898C56.2031 94.1142 56.0413 94.3455 55.4056 94.3571C52.5163 94.3571 49.6269 94.438 46.7376 94.4842L32.3603 94.7618H32.21C31.008 94.7618 30.7191 94.4727 30.7538 93.2354H30.7885ZM52.9786 41.9866C52.2505 41.8131 51.5108 41.6628 50.7827 41.4778C47.1329 40.6508 43.801 38.7831 41.1901 36.1008C37.8385 32.574 37.9887 28.0758 41.6755 24.8612C42.3954 24.1932 43.2828 23.7329 44.2434 23.5293C45.204 23.3256 46.2017 23.3864 47.1306 23.7049C49.2465 24.3829 51.1947 25.5024 52.8462 26.9894C54.4978 28.4764 55.8153 30.2971 56.7116 32.3312C57.638 34.4884 58.4406 36.6967 59.1155 38.9454C59.1634 39.0438 59.2215 39.1368 59.2889 39.2229C59.3795 39.1253 59.4571 39.0165 59.52 38.8992C61.6581 32.84 65.9922 28.8853 71.6668 26.2488C72.5515 25.7683 73.5396 25.5099 74.5462 25.4958C75.5527 25.4817 76.5477 25.7124 77.4455 26.1679C79.5836 27.3242 81.8142 31.6605 81.5252 34.0888C81.3886 34.9185 81.0728 35.7084 80.5997 36.4034C80.1266 37.0983 79.5077 37.6817 78.7862 38.1128C76.1341 39.8844 73.1224 41.0455 69.9679 41.5125C68.9393 41.709 67.9107 41.8478 66.8821 42.0213C66.8821 42.0906 66.8821 42.1716 66.8821 42.241H68.9162H87.9858C88.6662 42.2411 89.3458 42.2874 90.0199 42.3797C90.3188 42.3794 90.6146 42.4398 90.8894 42.5572C91.1642 42.6747 91.4123 42.8467 91.6187 43.063C91.8251 43.2792 91.9855 43.5351 92.0901 43.8152C92.1947 44.0953 92.2415 44.3937 92.2274 44.6924C92.3314 46.6119 92.2274 48.543 92.2274 50.4741C92.2274 52.4052 92.2274 54.2784 92.2274 56.1748C92.2274 58.0712 91.8113 58.6031 90.043 58.7535C87.9165 58.9269 85.7899 58.9731 83.6634 58.9963C76.6018 59.0657 69.5403 59.0772 62.4787 59.1466C61.6697 59.1466 61.4848 58.8575 61.4732 58.0943C61.4732 53.469 61.4039 48.8436 61.3577 44.2183C61.3577 43.9986 61.3577 43.7673 61.3577 43.5361C61.2883 42.4375 61.2652 42.3797 60.2019 42.3797H59.1964C58.5111 42.4144 57.8245 42.4144 57.1392 42.3797C56.2493 42.3219 55.9835 42.7498 55.9835 43.5361C55.9835 44.7849 55.9835 46.0338 55.9257 47.2826C55.9257 50.8904 55.8332 54.4981 55.8332 58.0943C55.8332 58.8922 55.6368 59.1813 54.7931 59.1813C46.911 59.1813 39.0289 59.2507 31.1352 59.2622C30.2868 59.2739 29.4392 59.2042 28.6041 59.0541C28.3428 59.0493 28.0857 58.9869 27.8512 58.8715C27.6167 58.756 27.4105 58.5903 27.2472 58.3861C27.0839 58.1819 26.9676 57.9442 26.9065 57.6899C26.8454 57.4357 26.841 57.171 26.8936 56.9149C27.1248 53.7189 27.1016 50.5096 26.8243 47.3173C26.8243 46.4963 26.6741 45.6753 26.6625 44.8543C26.6625 42.9926 27.1941 42.3682 29.0664 42.3335C31.9904 42.2757 34.9145 42.3335 37.8269 42.3335H52.3776C52.6036 42.2942 52.8061 42.1701 52.9439 41.9866H52.9786ZM36.6365 22.5139C35.0984 24.4173 34.0826 26.6891 33.6894 29.105C33.5159 30.2199 33.5159 31.355 33.6894 32.4699C34.0223 33.9774 34.4312 35.4672 34.9144 36.9334C33.7587 36.9334 32.6839 36.864 31.5859 36.9334C29.7217 36.9908 27.8658 37.2074 26.0384 37.5809C24.9891 37.8613 24.0362 38.4231 23.2826 39.2056C22.5289 39.9881 22.0033 40.9617 21.7622 42.0213C21.3449 44.1073 21.2669 46.2471 21.531 48.358C21.6004 50.5435 21.7622 52.729 21.6697 54.9029C21.5865 56.3125 21.6836 57.7269 21.9586 59.1119C22.1477 60.0166 22.5434 60.8653 23.1148 61.5915C23.6863 62.3177 24.4179 62.9017 25.2525 63.2978C25.4766 63.3919 25.6654 63.5543 25.7919 63.7619C25.9185 63.9695 25.9764 64.2118 25.9575 64.4542C25.9575 68.351 25.9575 72.2363 25.9575 76.1216C25.8419 81.7645 25.5877 87.4075 25.5299 93.062C25.5492 94.4191 25.8607 95.7561 26.4429 96.9819C27.5293 99.2946 29.7368 100 32.0482 100C38.7399 100 45.4316 99.7919 52.1233 99.6762H53.2791C55.0048 99.7791 56.7349 99.5716 58.3874 99.0634C58.6352 99.0123 58.8909 99.0123 59.1387 99.0634C60.9069 99.2484 62.6752 99.549 64.4435 99.5953C71.9904 99.7687 79.5258 99.9075 87.0728 99.9422C88.2823 99.9217 89.4701 99.6167 90.54 99.0518C91.5462 98.5036 92.3701 97.6729 92.9102 96.662C93.4503 95.6511 93.683 94.5042 93.5796 93.3626C93.4871 87.685 93.2791 82.0189 93.175 76.3413C93.1173 72.2248 93.175 68.1198 93.175 64.0032C93.165 63.7638 93.2253 63.5266 93.3485 63.3211C93.4718 63.1155 93.6526 62.9507 93.8685 62.8469C94.7332 62.2976 95.5121 61.6235 96.18 60.8464C97.2269 59.4139 97.7307 57.6556 97.6015 55.8857C97.6015 53.2493 97.6015 50.6013 97.6709 47.9648C97.8173 45.9836 97.6179 43.9919 97.0814 42.0791C96.7687 40.9338 96.1472 39.8966 95.285 39.0808C94.4228 38.2651 93.353 37.7022 92.1927 37.4538C90.5515 37.1698 88.8965 36.9729 87.2346 36.864C86.9456 36.864 86.6452 36.864 86.2638 36.7946C86.3678 36.2743 86.4718 35.8696 86.5296 35.4533C86.7124 34.6528 86.8055 33.8345 86.807 33.0134C86.5025 29.5041 85.0527 26.1925 82.681 23.5893C81.5898 22.3416 80.2077 21.3828 78.6574 20.7978C77.107 20.2128 75.4362 20.0198 73.7934 20.2359C70.5883 20.6261 67.551 21.8856 65.0098 23.8783C63.4033 25.0347 61.82 26.3066 60.1904 27.5555C60.0979 27.4398 59.9708 27.3011 59.8552 27.1392C57.3916 23.4718 53.9023 20.6121 49.8234 18.9177C47.5447 18.0276 45.0424 17.884 42.6769 18.5073C40.3113 19.1307 38.2045 20.489 36.6596 22.3867L36.6365 22.5139Z" fill="white"/>
</g>
<defs>
<clipPath id="clip0_4005_29224">
<rect width="120" height="100" fill="white"/>
</clipPath>
</defs>
</svg>
