<svg width="576" height="120" viewBox="0 0 576 120" fill="none" xmlns="http://www.w3.org/2000/svg">
<path d="M169.997 19.6469C170.191 8.86035 161.284 0 150.248 0C139.405 0 130.499 8.86035 130.499 19.6469V35.634C130.499 43.3387 124.109 49.5024 116.365 49.5024L53.8259 49.3098C46.0812 49.3098 39.6918 42.9534 39.6918 35.2488V19.6469C39.6918 8.86035 30.7853 0 19.7491 0C8.90644 0 0 8.86035 0 19.6469V43.3387C0 64.3339 17.232 81.6693 38.7237 81.6693L130.499 81.862V100.353C130.499 111.14 139.405 120 150.248 120C161.09 120 169.997 111.14 169.997 100.353V19.6469Z" fill="white"/>
<path d="M372.919 81.8795L373 38.5971C373.08 17.5515 355.686 0.317943 334.345 0.238526L241.977 0.000274647C220.636 -0.0791426 203.161 17.075 203.081 38.1205L203 81.4029C202.92 102.449 220.314 119.682 241.655 119.761L334.023 120C355.364 120.079 372.839 102.846 372.919 81.8795ZM256.633 87.4387C248.903 87.4387 242.541 81.1647 242.541 73.4612L242.621 46.1417C242.621 38.5176 248.983 32.2437 256.795 32.2437L319.367 32.4025C327.097 32.4025 333.459 38.6765 333.459 46.3799L333.379 73.6995C333.379 81.3235 327.017 87.5975 319.206 87.5975L256.633 87.4387Z" fill="white"/>
<circle cx="275" cy="60" r="17" fill="white"/>
<circle cx="301" cy="60" r="17" fill="white"/>
<path d="M575.997 19.6469C576.191 8.86035 567.284 0 556.248 0C545.405 0 536.499 8.86035 536.499 19.6469V35.634C536.499 43.3387 530.109 49.5024 522.365 49.5024L459.826 49.3098C452.081 49.3098 445.692 42.9534 445.692 35.2488V19.6469C445.692 8.86035 436.785 0 425.749 0C414.906 0 406 8.86035 406 19.6469V43.3387C406 64.3339 423.232 81.6693 444.724 81.6693L536.499 81.862V100.353C536.499 111.14 545.405 120 556.248 120C567.09 120 575.997 111.14 575.997 100.353V19.6469Z" fill="white"/>
</svg>
