<svg xmlns="http://www.w3.org/2000/svg" version="1.1" xmlns:xlink="http://www.w3.org/1999/xlink" width="400" height="400"><svg width="400" height="400" viewBox="0 0 400 400" fill="none" xmlns="http://www.w3.org/2000/svg">
<rect width="400" height="400" rx="50" fill="#9164CC"></rect>
<path d="M383.923 216.008L384 174.861C384.077 154.854 367.509 138.47 347.183 138.395L259.204 138.168C238.878 138.093 222.234 154.401 222.157 174.408L222.08 215.555C222.004 235.562 238.571 251.946 258.898 252.021L346.876 252.248C367.202 252.323 383.846 235.94 383.923 216.008ZM273.164 221.293C265.801 221.293 259.741 215.329 259.741 208.005L259.818 182.033C259.818 174.785 265.878 168.821 273.318 168.821L332.916 168.972C340.279 168.972 346.339 174.936 346.339 182.26L346.262 208.232C346.262 215.48 340.203 221.444 332.762 221.444L273.164 221.293Z" fill="white"></path>
<ellipse cx="290.16" cy="195.278" rx="16.56" ry="16.4382" fill="white"></ellipse>
<ellipse cx="315.92" cy="195.4" rx="16.56" ry="16.56" fill="white"></ellipse>
<path d="M214.72 257.697V138.167H182.084H181.779V177.833C180.334 172.134 177.443 167.043 173.715 163.167C168.466 157.772 156.37 152.909 156.37 152.909L50.7011 108L37.7683 137.863L144.122 183.152C146.556 184.216 148.763 184.9 148.915 187.56C148.991 190.143 146.861 191.815 144.883 191.815C142.981 191.815 84.2505 166.359 84.2505 166.359C84.2505 166.359 63.0254 156.328 54.7331 155.569C42.1807 154.353 29.5521 160.888 23.39 172.134C21.4121 175.63 18.2169 183 17.1518 186.876C14.6413 196.146 16.5432 204.657 19.8905 210.964C24.3029 219.247 29.9325 223.046 40.8113 227.605C51.0054 231.937 61.2756 236.268 71.4698 240.675C82.6529 245.387 88.4346 248.35 99.0091 246.678C106.16 245.539 113.844 241.587 119.245 234.596C120.691 232.697 121.832 230.569 123.049 228.289C123.962 226.542 125.331 222.59 126.701 221.754C128.45 220.691 131.189 221.146 132.33 223.198C133.471 225.326 131.189 230.037 131.189 230.037L118.256 260.584L148.078 273.35L181.247 195.234C181.399 194.703 181.627 194.095 181.703 193.487V196.07L181.399 252.985C181.399 255.645 181.551 258.001 179.193 259.065C177.139 259.444 163.825 259.217 161.543 259.217V291.967C184.822 291.967 201.559 293.563 211.144 274.414C213.427 269.931 214.568 263.852 214.644 258.153L214.72 257.697ZM90.9451 213.168C87.9782 212.712 69.1875 204.049 64.8512 202.225C61.1996 200.63 55.1896 198.502 51.9944 196.678C48.1906 194.551 50.1686 188.623 54.7331 189.535C56.1025 189.763 91.3255 204.733 93.3795 205.949C97.0311 208 94.901 213.7 90.9451 213.168Z" fill="white"></path>
</svg><style>@media (prefers-color-scheme: light) { :root { filter: none; } }
@media (prefers-color-scheme: dark) { :root { filter: none; } }
</style></svg>