<svg width="106" height="106" viewBox="0 0 106 106" fill="none" xmlns="http://www.w3.org/2000/svg">
<path d="M101.62 73.9513C100.896 72.5046 99.5702 71.4195 98.0029 70.9373L97.6412 70.8167V70.4551C97.6412 66.7176 96.7972 62.8597 95.1094 58.7606C92.6981 53.4558 88.3579 49.1156 82.8121 46.8249L82.2093 46.5838L82.571 46.1016C84.1383 43.6903 86.0673 39.7118 86.1878 34.0454C86.4289 26.5705 83.7766 20.3013 78.4718 15.72L78.2307 15.5994V15.3583C78.3513 13.791 78.3513 10.6564 77.9896 7.64234C77.5074 3.78436 76.4223 1.49368 74.7344 0.649746C74.1316 0.408622 73.5288 0.288064 72.926 0.408626C68.7064 0.890873 63.7633 7.28064 62.7988 8.60683L62.5577 8.84795H62.196C60.1464 8.48627 57.9763 8.24515 55.8062 8.24515C53.7567 8.12458 51.8277 8.24514 49.7781 8.48627C48.5725 8.60683 47.4875 8.84795 46.2818 9.08907L45.9201 9.20963L45.7996 8.84795C45.4379 8.12458 42.3033 1.61425 38.2042 2.09649H38.0836C35.6724 2.57874 33.9845 4.86941 33.02 8.96851C32.2967 12.3442 32.2967 15.72 32.2967 16.4433V16.6845L32.1761 16.805C29.7649 19.2163 27.8359 22.1098 26.6302 25.2444C25.4246 28.379 24.8218 31.8753 24.9424 35.251C25.1835 39.8323 26.5097 43.9315 28.8004 47.3072C30.6088 49.9595 33.02 52.1297 35.9135 53.9381L37.1191 54.6615L35.793 54.9026C34.5873 55.1437 33.5023 55.3848 32.4172 55.8671C29.0415 57.1933 26.8714 59.3634 26.148 62.1363C25.1835 65.8737 26.148 68.8878 28.8004 70.2139C29.7649 70.6962 30.8499 70.9373 31.935 70.8167C33.0201 70.6962 33.864 70.2139 34.3462 69.6111C36.2752 67.0793 38.5659 66.3559 40.0126 66.1148C40.1332 66.1148 40.3743 66.1148 40.4949 66.1148H40.8566L40.9771 66.4765C42.9061 70.455 45.3173 73.5897 47.9697 75.6392L48.2108 75.8803L48.0902 76.242C47.9697 76.8448 47.7286 77.4476 47.608 77.9299C46.8847 80.7028 45.9201 83.8374 46.0407 86.3692V87.0926H45.9201C46.2818 88.6599 47.0052 90.7094 48.5725 91.5534C51.3454 92.759 54.7211 92.1562 57.1324 90.3478L57.3735 90.2272C57.7352 89.9861 58.0969 89.6244 58.338 89.3833C59.0614 88.6599 59.7848 87.9365 60.3876 87.0926L61.2315 86.0075L61.352 87.3337C61.352 88.0571 61.5932 88.7804 61.9548 89.6244C62.7988 91.4328 64.8483 92.8795 67.6213 93.6029C70.0325 94.3263 73.0466 94.4469 76.0606 94.2057C77.2662 94.0852 78.4719 93.8441 79.5569 93.4824L80.2803 93.2412L80.1597 93.9646C80.0392 94.4469 80.1597 94.9291 80.4009 95.2908C80.7626 95.8936 81.3653 96.3758 82.4504 96.617C83.0532 96.7375 84.0177 96.7375 85.1027 96.617C87.0317 96.3758 89.3224 95.773 91.372 94.8085C94.386 93.4824 98.4851 90.83 100.655 86.1281C102.705 81.1851 103.066 76.7243 101.62 73.9513Z" fill="#E2914A"/>
<path d="M77.6277 14.8765C76.6632 14.1531 75.5782 13.4297 74.4932 12.8269L74.252 12.7064V12.3447C74.252 11.8624 74.3726 10.4157 74.252 8.96896C74.1315 6.43716 73.6492 4.99042 72.9259 4.74929C72.6847 4.62873 72.4436 4.62873 72.3231 4.74929C71.4791 4.86985 70.394 5.59323 69.0679 6.91941C68.3445 7.64278 67.6211 8.48671 67.0183 9.33065L66.7772 9.57177L66.4155 9.45121C65.451 9.21008 64.4865 8.96896 63.6426 8.8484L62.7986 8.72784L63.2809 8.12503C64.0043 7.28109 65.3304 5.47267 67.0183 3.90536C69.309 1.73525 71.3585 0.529632 73.0464 0.288509C73.6492 0.167947 74.252 0.288505 74.8548 0.529629C78.4717 2.33806 78.5923 10.8979 78.3511 14.3942V15.3587L77.6277 14.8765ZM32.5376 16.4438L33.3816 15.5999C34.1049 14.997 34.8283 14.2737 35.6722 13.7914L35.9134 13.6709V13.4297C35.9134 10.7774 36.5162 6.3166 38.5657 5.95491C38.5657 5.95491 38.5657 5.95491 38.6863 5.95491C39.4096 5.83435 40.3742 6.43716 41.3386 7.76334C41.8209 8.36615 42.3031 9.08952 42.6648 9.69233L42.9059 10.054L43.2676 9.93346C43.991 9.69233 44.8349 9.4512 45.6789 9.21008L46.2817 9.08952L46.0406 8.48671C45.1966 6.79884 42.3031 1.49412 38.4452 1.97637H38.3246C33.261 2.8203 32.6582 11.6213 32.5376 15.3587V16.4438ZM46.6434 8.8484L46.2817 8.96896V8.8484C45.1966 9.21008 44.1116 9.69233 43.0265 10.054C42.062 12.4653 41.4592 15.2382 42.7854 15.7204C44.9555 16.4438 47.9695 10.5363 49.778 8.24559C48.5724 8.48671 47.6079 8.60727 46.6434 8.8484ZM57.8556 8.24559C54.1182 12.2241 51.2247 19.3373 48.8135 18.855C46.2817 18.2522 49.1752 11.6213 50.8631 8.24559C52.5509 8.12503 54.2387 8.00447 55.9266 8.12503C56.65 8.12503 57.2528 8.12503 57.8556 8.24559ZM68.8267 79.2565C70.0323 80.7033 73.2875 85.2846 72.3231 86.2491C71.238 87.3342 67.5006 83.4762 66.295 82.15C64.4865 83.4762 62.7986 83.5967 62.7986 83.5967C62.7986 83.5967 64.4865 75.5191 64.3659 72.7462C65.9332 72.505 69.1884 74.1929 70.0323 75.7602C69.7912 77.2069 69.309 78.4126 68.8267 79.2565ZM48.5724 62.8601C49.778 67.562 49.4163 73.7107 48.4518 75.1574C47.9696 74.9163 47.4873 74.5546 47.0051 74.1929C44.835 72.1434 42.9059 69.491 41.2181 66.1153L41.0975 65.7536C38.5657 60.3283 37.2396 54.6619 37.2396 54.6619C39.4097 56.4703 46.5228 57.6759 46.5228 57.6759C46.5228 57.6759 47.1256 58.2787 48.5724 62.8601ZM29.2825 31.0318C29.0413 33.6841 26.9918 35.1309 25.1834 35.9748C25.1834 35.7337 25.1834 35.4926 25.1834 35.1309C25.0628 31.8757 25.545 28.7411 26.6301 25.7271C27.9563 26.571 29.5236 28.1383 29.2825 31.0318ZM59.3024 8.36615C60.1463 8.48671 60.9902 8.60728 61.8342 8.72784C62.3164 8.8484 62.7987 8.96896 63.2809 9.08952C63.7632 9.21008 64.2454 9.33064 64.7277 9.45121C62.7987 11.983 60.2669 16.926 58.2173 16.2027C56.2883 15.5999 58.2173 10.7774 59.3024 8.36615ZM102.464 78.7743C100.052 75.7602 97.0382 75.8808 96.9176 75.8808C96.9176 75.8808 97.3999 73.5901 97.7616 70.9377C99.4494 71.0583 100.896 72.3845 101.74 74.1929C102.343 75.6397 102.584 77.0864 102.464 78.7743ZM75.096 69.2499C75.096 69.2499 79.5567 81.7883 77.2661 82.2706C74.252 82.8734 71.1174 74.3135 71.1174 74.1929C71.9614 71.1789 75.096 69.2499 75.096 69.2499ZM86.3082 34.0458C86.1876 35.8543 85.9465 37.7832 85.4642 39.5917C80.7623 38.9889 73.6492 37.6627 73.6492 34.2869C73.5286 30.0673 81.3652 28.2589 85.7054 27.4149C86.1876 29.585 86.3082 31.7551 86.3082 34.0458ZM100.534 86.1285C99.9317 87.2136 99.3289 88.2987 98.485 89.2631C98.1233 89.6248 97.7616 89.9865 97.3999 90.3482C96.4354 85.4052 92.4569 84.8023 92.4569 84.8023C92.4569 84.8023 93.3008 83.235 94.8681 81.1855C98.7261 80.9444 100.293 85.2846 100.534 86.1285ZM92.4569 93.8445C92.2158 93.965 91.8541 94.0856 91.6129 94.2062C90.6485 94.6884 89.6839 94.9296 88.7194 95.2912C88.5989 91.7949 86.0671 90.2276 86.0671 90.2276C86.0671 90.2276 87.3933 89.1426 88.9606 88.0575C91.7335 89.3837 92.3363 93.0006 92.4569 93.8445ZM82.5708 67.3209C82.6914 67.4414 83.7764 75.6397 82.2091 75.8808C79.9185 76.1219 77.9895 67.9237 77.9895 67.9237C79.4362 66.9592 82.3297 67.2003 82.5708 67.3209Z" fill="#E6B279"/>
<path d="M57.7351 94.5678C57.9762 94.3267 57.9763 94.2061 57.9763 94.2061C57.9763 93.2416 57.494 90.4687 57.494 90.2275L57.3734 89.8659C55.0828 91.7949 51.7071 92.3977 48.8136 91.0715C47.2463 90.2276 46.5229 88.178 46.1612 86.6107L34.7078 82.8733V82.6322C33.8639 78.0508 33.3816 76.6041 33.2611 76.2424C32.7788 75.3985 28.6798 73.4695 21.0844 70.3348C15.5385 68.0442 9.51041 65.7535 6.97861 64.789C5.89355 64.4273 5.17018 64.1862 4.56737 64.3068C4.32625 64.3068 4.20569 64.4273 4.08513 64.5479C3.84401 64.789 3.84399 65.1507 3.84399 65.1507C3.84399 67.3208 4.92904 84.4406 6.13466 90.2275C6.25522 90.7098 8.30478 92.3977 20.7227 97.8229C27.9564 100.958 36.034 104.213 38.6864 104.936C38.9275 105.057 39.1686 105.057 39.4097 105.057H39.5303C40.6154 104.936 43.8706 103.248 48.4519 100.596C52.0688 98.5463 56.5295 95.7734 57.7351 94.5678Z" fill="white"/>
<path d="M62.1958 29.8265C62.4369 31.3938 61.2313 32.8405 59.664 32.9611C58.0967 33.2022 56.5294 31.9966 56.4088 30.5498C56.1677 28.9825 57.4939 27.7769 59.0612 27.5358C60.6285 27.4152 61.9547 28.2591 62.1958 29.8265Z" fill="#050404"/>
<path d="M61.2315 30.3083C61.2315 30.7905 60.8698 31.1522 60.3876 31.2728C59.9053 31.2728 59.4231 31.0316 59.4231 30.5494C59.4231 30.0671 59.7848 29.7055 60.267 29.5849C60.7493 29.4643 61.2315 29.826 61.2315 30.3083Z" fill="white"/>
<path d="M37.1191 28.2591C37.3602 29.8264 36.2752 31.2731 34.8284 31.3937C33.3817 31.5142 31.9349 30.4292 31.6938 28.8619C31.4527 27.2946 32.7789 26.089 34.2256 25.9684C35.6723 25.8478 36.878 26.6918 37.1191 28.2591Z" fill="#050404"/>
<path d="M36.1544 28.7409C36.1544 29.2231 35.7927 29.5848 35.3104 29.7054C34.8282 29.7054 34.3459 29.4642 34.3459 28.982C34.3459 28.4997 34.7076 28.1381 35.1899 28.0175C35.6721 27.8969 36.1544 28.2586 36.1544 28.7409Z" fill="white"/>
<path d="M58.6997 22.3512C59.4231 21.2661 61.2315 21.1456 62.7988 22.11C64.3661 23.0745 65.0894 24.7624 64.3661 25.968C63.6427 27.0531 61.8343 27.1736 60.267 26.2092C58.6997 25.1241 57.9764 23.4362 58.6997 22.3512Z" fill="#E4B47A"/>
<path d="M33.7433 20.1812C35.5517 19.6989 37.2396 20.4223 37.6012 21.7484C37.9629 23.0746 36.6368 24.4008 34.8283 24.8831C33.0199 25.3653 31.332 24.6419 30.9703 23.3158C30.7292 21.9896 31.9349 20.6634 33.7433 20.1812Z" fill="#E4B47A"/>
<path d="M52.6715 33.2017C51.9481 34.5279 50.863 35.3718 49.5368 35.4924H49.4163C47.7284 35.613 46.5228 34.2868 45.92 32.84C45.3172 33.5634 44.1116 34.6485 42.7854 34.5279C40.6153 34.4073 39.8919 32.4784 39.7714 31.3933C39.7714 31.1522 40.0125 30.911 40.2536 30.911C40.4947 30.911 40.7358 31.1522 40.7358 31.3933C40.7358 31.5139 40.977 33.4429 42.7854 33.5634C43.991 33.5634 44.9555 32.3578 45.4377 31.755C44.8349 30.7905 43.991 28.8615 44.5938 28.2587C45.1966 27.7764 46.1611 28.4998 46.4023 28.9821C47.7284 27.6559 50.7425 28.6204 46.5228 31.8755C46.8845 32.9606 47.849 34.5279 49.1752 34.4073C50.5013 34.2868 51.2247 33.4428 51.5864 32.5989C51.707 32.3578 52.0686 32.2372 52.3097 32.3578C52.6714 32.5989 52.7921 32.9606 52.6715 33.2017ZM101.258 85.7667C99.0878 90.5892 94.8681 93.2415 91.7335 94.6883C89.4428 95.7733 87.1521 96.2556 85.3437 96.4967C84.1381 96.6173 83.1736 96.6173 82.5708 96.4967C81.3652 96.2556 80.6418 95.7733 80.2801 94.9294C80.039 94.4471 79.9184 93.8443 80.039 93.2415C78.8334 93.6032 77.6277 93.8443 76.4221 93.9649C73.1669 94.3266 70.153 94.0854 67.7417 93.3621C64.8482 92.5181 62.6781 90.9508 61.8342 89.1424C61.4725 88.2985 61.2314 87.4545 61.1108 86.7312C60.508 87.5751 59.7846 88.419 58.9406 89.1424C58.579 89.5041 58.2173 89.7452 57.8556 89.9863C57.8556 90.1069 58.3378 93.121 58.3378 94.0855C58.3378 94.3266 58.2173 94.5677 57.8556 94.8088C56.65 96.0144 52.1892 98.9079 48.4518 100.957C45.6789 102.645 40.8564 105.298 39.2891 105.539C39.1685 105.539 39.1685 105.539 39.048 105.539C38.9274 105.539 38.6863 105.539 38.204 105.418C35.5517 104.695 27.474 101.44 20.1198 98.3051C5.65234 92.0359 5.41123 90.8303 5.29067 90.348C4.08505 84.3199 3 67.2002 3 65.1506C3 64.9095 2.99999 64.4272 3.36167 64.0656C3.96448 63.5833 5.04953 63.5833 6.85796 64.3067C9.26919 65.2712 15.4179 67.5618 20.9637 69.8525C32.6582 74.675 33.1404 75.6395 33.3816 76.0012C33.7432 76.604 34.2255 79.1358 34.9489 82.5115L45.6789 86.0078C45.6789 83.3554 46.5228 80.2208 47.3667 77.4479C47.4873 76.8451 47.7285 76.2423 47.849 75.76C45.0761 73.7105 42.6648 70.5759 40.7358 66.4768C39.4097 66.4768 36.9984 67.0796 34.8283 69.8525C33.6227 71.4198 30.8498 71.7815 28.6797 70.6965C25.7862 69.2497 24.7011 65.9945 25.6656 62.016C26.5095 59.002 28.8002 56.7113 32.2965 55.3851C33.3816 54.9029 34.5872 54.6617 35.7928 54.4206C32.7788 52.6122 30.3675 50.3215 28.5591 47.6691C26.1479 44.1729 24.8217 40.0738 24.5806 35.2513C24.46 31.755 24.9422 28.2587 26.2684 25.0035C27.5946 21.7484 29.5236 18.8549 31.9348 16.3231C31.9348 14.7558 31.8143 2.57902 38.0835 1.49397C42.5443 0.891156 45.92 7.52205 46.4023 8.48655C49.4163 7.76318 52.6714 7.52206 55.9266 7.64262C58.0967 7.76318 60.2669 8.0043 62.3164 8.36599C63.5221 6.67812 70.0324 -1.64064 74.8548 0.288347C76.6633 1.13228 77.8689 3.66408 78.4717 7.64262C78.8334 10.6567 78.8334 13.6707 78.7128 15.4791C84.1381 20.181 86.911 26.5708 86.6699 34.1662C86.4287 39.7121 84.6203 43.8112 82.9325 46.4635C88.4783 48.8748 92.9391 53.215 95.4709 58.6403C97.1588 62.7394 98.0027 66.8385 98.0027 70.5759C99.8111 71.0582 101.137 72.1432 101.981 73.8311C103.549 76.7246 103.307 81.1853 101.258 85.7667ZM63.6426 8.48655C64.6071 8.72767 65.5716 8.84823 66.5361 9.08936C67.1389 8.24542 67.8622 7.40149 68.5856 6.55756C70.394 4.62857 71.9613 3.9052 73.0464 4.26688C74.0109 4.62857 74.4932 6.07531 74.7343 8.9688C74.8549 10.4155 74.7343 11.8623 74.7343 12.4651C75.8194 13.0679 76.9044 13.7913 77.8689 14.6352C78.11 8.84823 77.3866 2.57902 74.6137 1.25284C72.323 0.408903 69.309 2.57902 67.2594 4.50801C65.6921 5.83419 64.2454 7.52205 63.6426 8.48655ZM72.6847 5.23138C71.4791 4.8697 69.0679 7.28093 67.5006 9.33049C69.6707 9.93329 71.7203 10.7772 73.7698 11.8623C73.7698 11.1389 73.7698 10.0539 73.7698 8.9688C73.5287 5.71363 72.8053 5.35194 72.6847 5.23138ZM33.0199 15.238C33.7433 14.5146 34.5872 13.9118 35.3106 13.309C35.3106 12.224 35.5517 5.83419 38.3246 5.23138C39.2891 5.11082 40.3742 5.71362 41.5798 7.28093C42.062 7.88374 42.5443 8.60711 43.0265 9.33049C43.8704 9.08936 44.5938 8.84823 45.4377 8.60711C44.8349 7.28093 41.9415 1.85565 38.3246 2.33789C33.6227 3.18183 33.0199 12.1034 33.0199 15.238ZM38.5657 6.31644C37.119 6.55756 36.5162 10.0539 36.3956 12.5857C38.204 11.38 40.133 10.4155 42.062 9.69216C41.0975 8.12486 39.5302 6.19588 38.5657 6.31644ZM40.3742 65.2712C38.3246 60.8104 37.3601 56.4702 37.119 55.0234H36.9984C35.5517 55.144 34.1049 55.5057 32.7788 56.1085C29.5236 57.3141 27.5946 59.3636 26.7507 62.016C26.2684 63.5833 26.2684 64.9095 26.5096 65.874C26.7507 65.6329 26.9918 65.3917 27.3535 65.1506C27.5946 65.0301 27.9563 65.1506 28.0768 65.3917C28.1974 65.6329 28.0768 65.874 27.9563 66.1151C27.9563 66.1151 27.3535 66.4768 27.1124 67.0796C27.1124 67.0796 27.1124 67.2002 26.9918 67.2002C27.474 68.1647 28.318 69.0086 29.2825 69.4908C29.6442 69.6114 30.0058 69.8525 30.3675 69.8525C30.7292 69.3703 30.7292 68.5264 30.7292 68.1647C30.7292 67.9235 30.9703 67.6824 31.2115 67.6824C31.4526 67.6824 31.6937 67.9235 31.6937 68.1647C31.6937 68.2852 31.6937 69.1292 31.332 69.9731C32.5377 69.9731 33.5021 69.6114 34.1049 68.888C36.3956 66.1151 38.8069 65.3917 40.3742 65.2712ZM35.4311 83.5966C35.5517 84.3199 35.6722 85.1639 35.9134 86.0078L46.5228 89.6247L46.7639 89.5041C46.2817 88.7807 46.0405 87.9368 45.92 86.9723L35.4311 83.5966ZM41.4592 94.0855L38.3246 96.0144L42.1826 97.9434C43.2677 97.3406 44.3527 96.6173 45.7995 95.8939L41.4592 94.0855ZM41.3386 92.8798L45.3172 90.348L41.0975 88.9013L37.3601 91.3125L41.3386 92.8798ZM46.8845 95.1705C48.6929 94.0854 50.3808 93.121 51.7069 92.3976C51.4658 92.3976 51.3453 92.3976 51.1041 92.277C50.5013 92.1565 50.0191 92.0359 49.5368 91.9153L46.5228 90.9508L42.4237 93.4826L46.8845 95.1705ZM38.204 104.333C37.9629 103.73 37.7218 103.007 37.6012 102.284C37.6012 102.043 37.4807 101.681 37.3601 101.078C37.2396 100.355 36.9984 99.2696 36.8778 97.9434C35.7928 91.4331 33.5021 77.689 32.7788 76.3629C32.6582 76.1217 31.332 74.9161 20.8431 70.6965C15.4179 68.4058 9.26919 66.1151 6.85796 65.1506C4.92897 64.4272 4.44672 64.7889 4.44672 64.7889V64.9095V65.0301C4.44672 65.874 5.41121 83.5966 6.73739 89.9863C6.85795 90.1069 7.34022 90.8303 11.3188 92.7593C13.8506 93.9649 17.2263 95.6528 21.2048 97.3406C27.8357 100.475 35.19 103.369 38.204 104.333ZM36.6367 90.5892L39.8919 88.5396L36.1545 87.2134C36.2751 88.2985 36.5162 89.3835 36.6367 90.5892ZM37.4807 95.4116L40.3742 93.6032L36.9984 92.277C37.119 93.2415 37.2395 94.3266 37.4807 95.4116ZM38.3246 100.234C38.8069 99.993 39.4097 99.6313 40.2536 99.1491L41.2181 98.5462L37.8424 96.8584C37.8424 97.2201 37.9629 97.5817 37.9629 97.9434C38.0835 98.7874 38.204 99.5107 38.3246 100.234ZM57.0117 90.7097C56.1678 91.3125 55.2032 91.6742 54.3593 92.0359C52.1892 93.2415 49.6574 94.8088 47.2462 96.135C43.1471 98.5462 39.5302 100.716 38.5657 101.319C38.6863 101.801 38.6863 102.043 38.6863 102.163C39.048 103.851 39.4097 104.454 39.5302 104.695C40.3742 104.574 43.7499 103.007 48.8135 99.8724C53.636 96.9789 57.0117 94.6883 57.494 94.0855C57.3734 93.3621 57.1323 91.5537 57.0117 90.7097ZM85.7054 89.7452C89.5634 87.334 96.7971 81.3059 97.0382 70.9376C97.0382 70.817 97.0382 70.817 97.0382 70.6965C97.0382 70.6965 97.0382 70.6965 97.0382 70.5759C97.0382 67.2002 96.4354 63.2216 94.627 58.8814C92.2158 53.5767 87.8755 49.357 82.4502 47.0663L82.3297 47.1869C80.2801 49.9598 78.3511 51.286 78.2305 51.286C77.9894 51.4066 77.6278 51.4066 77.5072 51.1654C77.3866 50.9243 77.3866 50.6832 77.6277 50.4421C77.6277 50.4421 79.5567 49.2364 81.4857 46.4635C83.2942 44.0523 85.4643 39.8326 85.7054 33.8045C85.9465 26.3297 83.2942 20.181 78.11 15.8408C77.9894 15.8408 77.9895 15.7203 77.9895 15.7203C76.7839 14.7558 75.4577 13.7913 74.1315 13.0679C74.0109 13.0679 74.0109 13.0679 73.8903 12.9473C71.7202 11.7417 69.309 10.7772 66.6566 10.0539H66.5361C65.3305 9.69217 64.0043 9.45104 62.6781 9.20992C62.6781 9.20992 62.6781 9.20992 62.5575 9.20992C60.3874 8.84823 58.2173 8.60711 55.9266 8.48655C46.6433 8.12486 38.4452 11.0183 32.6582 16.8053C27.7151 21.7484 25.1834 28.2587 25.545 35.0102C26.0273 43.2084 29.7647 49.4776 36.6367 53.5767C41.8209 56.5907 47.0051 57.1935 47.0051 57.3141C47.2462 57.3141 47.4873 57.6758 47.3667 57.9169C47.3667 58.158 47.1256 58.2786 46.8845 58.2786C46.6433 58.2786 42.6648 57.7963 38.0835 55.5057C38.4452 57.3141 39.4097 61.0515 41.2181 65.0301C41.2181 65.1506 41.3386 65.2712 41.3386 65.3917C43.2676 69.3703 45.4377 72.5049 48.0901 74.5544C48.0901 74.4339 48.2107 74.1928 48.2107 74.0722C49.4163 68.4058 47.7284 63.1011 47.7284 63.1011C47.6079 62.8599 47.849 62.4982 48.0901 62.4982C48.3312 62.3777 48.6929 62.6188 48.6929 62.8599C48.8135 63.1011 50.5013 68.4058 49.1752 74.4339C48.934 75.3984 48.6929 76.604 48.3312 77.8096C47.2462 81.6676 45.92 86.4901 47.3667 89.1424C47.6079 88.6602 47.9695 88.1779 48.3312 87.8162C48.5723 87.5751 48.8135 87.6957 49.0546 87.8162C49.2958 88.0574 49.1752 88.2985 49.0546 88.5396C49.0546 88.5396 48.3312 89.1424 48.0901 89.9863C48.5723 90.4686 49.0546 90.7097 49.6574 90.9508C50.1397 91.0714 50.6219 91.192 51.1041 91.3125C51.5864 91.4331 51.9481 91.4331 52.4304 91.3125C52.792 90.8303 52.792 89.8658 52.792 89.6247C52.792 89.3835 53.0332 89.1424 53.2743 89.1424C53.5154 89.1424 53.7565 89.3835 53.7565 89.6247C53.7565 90.1069 53.7565 90.7097 53.636 91.192C55.0827 90.7097 56.65 89.8658 58.0968 88.5396C61.9548 84.9227 63.8837 79.2563 63.4015 72.8666C63.4015 72.6254 63.6426 72.3843 63.8837 72.3843C64.1249 72.3843 64.3659 72.6254 64.3659 72.8666C64.7276 76.604 64.1249 80.2208 62.9192 83.2349C63.2809 82.9938 63.7632 82.8732 64.2454 82.7526C65.2099 82.5115 66.1744 82.0293 66.8978 81.3059C67.8623 80.462 68.465 79.3769 68.8267 78.1713C69.9118 74.5544 71.3585 72.2638 71.4791 72.2638C71.4791 72.2638 71.4791 72.2638 71.4791 72.1432C72.323 70.9376 73.4081 69.8525 74.6137 69.0086C76.9044 67.4413 79.5567 66.7179 82.4502 66.959C82.6913 66.959 82.9325 67.2002 82.9325 67.4413C82.9325 67.6824 82.6913 67.9235 82.4502 67.9235C76.7838 67.4413 73.5286 71.0581 72.4436 72.746L72.3231 72.8666C72.2025 73.1077 70.7558 75.2778 69.9118 78.533C69.5501 79.8591 68.7062 81.1853 67.7417 82.1498C66.8978 82.9938 65.8127 83.5966 64.7277 83.8377C64.0043 84.0788 62.7987 84.5611 62.3164 85.6461C61.9548 86.3695 62.0753 87.2134 62.3164 88.1779C62.5576 87.9368 62.9192 87.8162 63.2809 87.6957C63.522 87.5751 63.8837 87.6957 63.8837 88.0574C64.0043 88.2985 63.8837 88.6602 63.5221 88.6602C63.5221 88.6602 63.0398 88.9013 62.6781 89.263C63.0398 90.1069 63.7632 90.8303 64.7277 91.4331C64.8482 91.0714 65.0894 90.7097 65.3305 90.4686C65.5716 90.348 65.8127 90.348 66.0538 90.5892C66.1744 90.8303 66.1744 91.0714 66.0538 91.3125C65.8127 91.5537 65.6921 91.7948 65.5715 92.0359C66.2949 92.3976 67.1389 92.7593 67.8623 93.0004C72.6847 93.8443 79.9184 93.4826 85.7054 89.7452ZM101.137 74.1928C100.414 72.8666 99.4495 72.0226 98.0027 71.5404C97.8822 73.9516 97.3999 76.2423 96.556 78.4124C94.1447 84.5611 89.684 88.419 86.1877 90.5892C84.6204 91.5536 82.9325 92.3976 81.1241 93.0004C81.0035 93.3621 80.8829 93.9649 81.2446 94.4471C81.4857 94.9294 82.0886 95.2911 82.9325 95.4116C84.4998 95.7733 87.9961 95.2911 91.4923 93.7238C94.5064 92.3976 98.4849 89.8658 100.534 85.2844C102.222 81.0648 102.463 76.8451 101.137 74.1928ZM19.7581 80.2208C18.9142 81.0648 18.1908 80.7031 17.8291 80.462C17.3468 79.9797 16.2618 78.533 15.5384 79.9797C14.6945 81.4264 14.2122 86.2489 17.7085 87.4546C21.8076 88.7807 23.1338 85.1639 22.531 81.9087C21.8076 78.6535 20.602 79.3769 19.7581 80.2208Z" fill="#050404"/>
</svg>
