<svg width="106" height="106" viewBox="0 0 106 106" fill="none" xmlns="http://www.w3.org/2000/svg">
<path d="M62.1327 99.7584C61.8826 99.7584 61.5076 99.7584 61.2576 99.7584C57.7571 99.5093 54.6317 97.5169 53.8816 95.151C52.7565 91.2908 54.6317 89.921 56.2569 88.6758C56.507 88.5513 56.632 88.3022 56.882 88.1777L56.382 87.057C53.2566 87.6796 50.1311 87.9287 46.8807 88.0532C43.1303 88.0532 39.5048 87.5551 36.1294 86.5589C31.8788 85.3137 28.0033 83.3213 24.6279 80.5818L23.7528 79.9592L23.6277 80.9553C23.2527 82.9477 23.1277 84.442 23.3777 85.3137C23.6277 86.0608 24.2528 86.5589 25.128 87.1815C26.7532 88.4267 28.6284 89.921 27.5033 93.6567C26.7532 96.0227 23.6278 97.8905 20.1273 98.2641C19.8773 98.2641 19.5022 98.2641 19.2522 98.2641C15.5017 98.2641 12.2513 96.2717 10.376 92.6605C9.75096 91.5398 7.87574 87.1815 7.50069 80.9553C7.12564 74.9782 8.25076 69.2502 10.8761 63.8957L11.1261 63.3976L10.7511 63.1485C8.62584 61.5297 6.62558 58.9147 5.62545 56.1752C4.50031 53.1867 4.62531 50.5717 6.00048 49.0774C6.25052 48.8284 6.50056 48.4548 6.75059 48.2057L7.00063 47.9567L6.87561 47.5831C4.75034 42.2286 4.75034 36.7496 5.00037 33.1384C5.2504 31.146 5.50043 29.0291 6.12551 27.1613L6.25053 26.5387L5.62545 26.4142C4.87535 26.2896 4.37527 25.7915 4.00022 25.0444C2.12498 21.3087 6.00048 11.0978 7.7507 7.86019C9.50092 4.62259 13.0014 4.24902 14.8766 4.24902C15.3767 4.24902 15.8768 4.24901 16.3768 4.37354C18.1271 4.62258 23.6277 5.61877 26.7531 6.61496C28.7534 7.23757 29.7535 8.60734 29.6285 10.4752V11.0978L30.2536 11.2223C41.63 12.8411 50.2562 16.0787 54.3817 17.8221L54.8817 18.0711L55.1318 17.573C55.6319 16.7013 57.257 14.5845 59.6323 14.5845C59.7574 14.5845 60.0074 14.5845 60.1324 14.5845C61.8827 14.709 66.0082 15.7052 69.6336 17.1994C72.759 18.5692 76.5095 20.6861 76.3845 23.4256C76.2595 25.2934 75.6344 28.1575 74.7593 31.146L74.6343 31.6441L75.1344 31.8932C78.5098 33.2629 81.6352 35.1308 84.5106 37.2477L84.8856 37.4967L85.2606 37.2477C85.8857 36.8741 86.5108 36.6251 87.1359 36.5005C87.6359 36.376 88.136 36.376 88.6361 36.376C89.8862 36.376 91.0114 36.7496 92.0115 37.4967C95.387 39.9872 94.1368 44.3455 93.2617 45.8398L93.1367 46.2134L93.3867 46.4624C93.6367 46.9605 94.0118 47.3341 94.2618 47.8322C97.5122 52.9376 99.7625 58.9147 101.138 66.2616C102.263 72.1142 102.888 83.1968 102.513 87.1815C102.263 89.921 101.638 91.9134 100.513 93.4077C99.2624 95.151 97.2622 96.1472 94.7618 96.2717C94.5118 96.2717 94.2618 96.2717 93.8868 96.2717C90.7614 96.2717 88.6361 95.5246 87.5109 93.9058C86.0107 91.7889 86.7608 88.6758 87.3859 87.057C88.386 84.3175 87.0108 79.7101 85.8857 76.4725L85.7607 76.2235L85.5107 76.0989C84.8856 75.8499 84.1355 75.6008 83.5104 75.3518L83.1354 75.2273L82.8853 75.4763C82.1352 76.0989 81.2601 76.8461 80.51 77.3442L80.135 77.5932L80.26 77.9668C80.76 79.5856 82.1352 85.1891 81.0101 88.9248C80.26 91.1662 78.3848 92.536 75.6344 93.0341C74.8843 93.1586 74.1342 93.2831 73.3841 93.2831C73.0091 93.2831 72.509 93.2832 72.1339 93.1586H71.6339L71.5089 93.5322C71.3838 93.6567 71.3839 93.7812 71.2589 93.9058C69.0086 97.766 65.8831 99.7584 62.1327 99.7584Z" fill="#887D75"/>
<path d="M66.2583 43.5984C65.6332 43.5984 65.1331 43.1003 64.383 42.1041C63.3829 40.6098 62.2577 37.9948 61.0076 34.3837C59.2574 29.4027 57.7572 23.7992 57.0071 20.8106C56.7571 19.6899 56.007 18.8183 55.0068 18.3202L54.2567 17.9466L54.7568 17.1995C55.2568 16.3278 56.8821 14.3354 59.2574 14.3354C59.3824 14.3354 59.5074 14.3354 59.7574 14.3354C61.8827 14.5845 65.8832 15.5807 69.3837 17.0749C74.0093 19.0673 76.2595 21.1842 76.1345 23.3011C76.0095 25.418 75.3844 28.4066 74.3843 31.5196C73.5092 34.5082 70.2588 43.5984 66.2583 43.5984ZM6.00054 26.6632C9.00092 26.6632 13.5015 22.9275 18.2521 18.8183C22.0026 15.7052 25.8781 12.4676 29.0035 11.0978L29.3785 10.9733V10.4752C29.5036 8.48283 28.5034 6.98855 26.3782 6.36593C23.2528 5.36975 17.627 4.37356 16.0018 4.12451C15.5018 3.99999 15.0017 4 14.5017 4C12.5014 4 9.00092 4.49809 7.2507 7.7357C5.50048 10.9733 1.62498 21.1842 3.50022 25.0444C3.87527 25.9161 4.50035 26.2897 5.37546 26.5387C5.62549 26.6632 5.87552 26.6632 6.00054 26.6632ZM94.3869 85.0647C91.0114 84.9401 88.5111 86.3099 86.7609 88.0532C86.2608 89.7965 86.0108 92.1625 87.2609 93.9058C88.3861 95.4001 90.5114 96.2718 93.6368 96.2718C93.8868 96.2718 94.1368 96.2718 94.5119 96.2718C97.0122 96.1472 99.0124 95.151 100.263 93.4077C101.013 92.4115 101.513 91.1663 101.888 89.5475C100.388 87.3061 97.7623 85.1892 94.3869 85.0647ZM57.6322 87.3061L56.507 87.6796L56.632 88.0532C56.507 88.1777 56.257 88.3023 56.0069 88.5513C54.3817 89.7965 52.5065 91.2908 53.6316 95.0265C54.3817 97.3925 57.5071 99.2603 61.0076 99.6339C61.2576 99.6339 61.6327 99.6339 61.8827 99.6339C64.258 99.6339 66.3833 98.8867 68.1335 97.3925C67.8835 88.0532 57.6322 87.3061 57.6322 87.3061ZM24.878 87.3061C24.7529 87.1815 24.6279 87.057 24.5029 87.057C23.0027 86.808 20.5024 86.9325 17.377 88.1777C13.5015 90.0456 12.1263 92.9096 11.6263 95.151C13.5015 97.2679 16.0018 98.5132 19.0022 98.5132C19.2522 98.5132 19.6273 98.5132 19.8773 98.5132C23.3778 98.2641 26.5032 96.2717 27.2533 93.9058C28.3784 89.921 26.5032 88.5513 24.878 87.3061Z" fill="#B7A59D"/>
<path d="M52.2564 55.0544C52.1314 54.8053 47.7558 45.4661 44.5054 39.738C41.38 34.259 35.3792 32.2666 30.8786 32.2666C29.5034 32.2666 28.2533 32.3911 27.1281 32.7647C23.6277 33.7609 12.2513 41.2323 5.50039 49.2018C4.12521 50.696 3.87519 53.4356 5.00033 56.4241C6.37551 60.2843 9.87595 64.5181 13.6264 65.0162C13.7514 65.0162 13.8764 65.0162 14.0015 65.0162C15.6267 65.0162 18.377 63.6465 21.2524 61.2805C25.0029 58.292 28.5033 54.1827 30.7536 50.0734C31.2537 51.8168 33.504 60.0353 35.2542 64.7672C36.3793 67.7557 37.8795 69.499 39.8798 70.2462C40.5049 70.4952 41.255 70.6198 41.8801 70.6198C43.8803 70.6198 46.3806 69.7481 49.381 68.0048C51.6313 66.7595 53.0065 65.0162 53.5065 62.8993C54.6317 58.9146 52.3814 55.1789 52.2564 55.0544Z" fill="#6E5D56"/>
<path d="M54.6316 41.4812C54.6316 43.2246 53.3814 44.5943 51.7562 44.5943C50.131 44.5943 48.7559 43.2246 48.7559 41.4812C48.7559 39.7379 50.256 38.6172 51.7562 38.6172C53.3814 38.6172 54.6316 39.7379 54.6316 41.4812Z" fill="#050404"/>
<path d="M53.5066 41.731C53.5066 42.2291 53.1315 42.6027 52.6315 42.6027C52.1314 42.6027 51.7563 42.2291 51.7563 41.731C51.7563 41.2329 52.1314 40.8594 52.6315 40.8594C53.1315 40.9839 53.5066 41.3575 53.5066 41.731Z" fill="white"/>
<path d="M49.1311 34.1349C49.5061 32.6406 51.6314 31.8935 53.7567 32.5161C55.8819 33.0142 57.3821 34.7575 57.0071 36.2518C56.632 37.7461 54.5068 38.4932 52.3815 37.8706C50.2562 37.248 48.756 35.6292 49.1311 34.1349Z" fill="#6E5D56"/>
<path d="M12.3763 32.3914C11.6262 34.0102 12.2513 35.7535 13.6265 36.5007C15.1267 37.1233 17.0019 36.5007 17.752 34.8819C18.5021 33.2631 17.627 31.6443 16.2518 30.8971C14.7516 30.2745 13.1264 30.7726 12.3763 32.3914Z" fill="#050404"/>
<path d="M15.3767 33.6369C15.1266 34.0105 15.3766 34.6331 15.8767 34.7576C16.2518 35.0067 16.8769 34.7576 17.0019 34.384C17.2519 34.0105 17.0019 33.5124 16.5018 33.2633C16.1267 33.0143 15.6267 33.2633 15.3767 33.6369Z" fill="white"/>
<path d="M13.0014 26.2896C13.2515 24.7953 15.2517 23.9236 17.502 24.2972C19.7523 24.6708 21.2525 26.2896 21.0025 27.7839C20.7524 29.2782 18.7522 30.1498 16.5019 29.7763C14.2516 29.4027 12.6264 27.7839 13.0014 26.2896Z" fill="#6E5D56"/>
<path d="M86.5108 31.1463C87.2609 31.3953 87.0109 32.516 86.2608 32.3915L85.0106 32.1425C84.2605 31.8934 84.5105 30.7727 85.2606 30.8972L86.5108 31.1463ZM87.1358 25.4182C86.3857 25.4182 85.5106 25.4182 84.7605 25.4182C84.0105 25.2937 84.0105 26.5389 84.7605 26.6634C85.5106 26.788 86.3857 26.788 87.1358 26.6634C88.011 26.6634 88.011 25.4182 87.1358 25.4182ZM84.2605 20.4373C85.1356 20.1882 86.1357 20.0637 87.0109 19.9392C87.761 19.9392 87.761 18.6939 87.0109 18.6939C86.0107 18.8185 84.8856 18.943 83.8855 19.192C83.1354 19.4411 83.5104 20.6863 84.2605 20.4373ZM102.888 88.676C102.638 91.5401 102.013 93.6569 100.888 95.2758C99.5124 97.2681 97.3872 98.2643 94.6368 98.3888C94.3868 98.3888 94.0117 98.3888 93.7617 98.3888C90.3863 98.3888 88.136 97.5172 86.8858 95.7738C85.1356 93.4079 86.0107 90.1703 86.6358 88.427C87.5109 85.9365 86.2608 81.4537 85.1356 78.3406C84.3855 78.0915 83.7604 77.8425 83.1354 77.5935C82.3853 78.3406 81.5101 78.9632 80.635 79.5858C81.1351 81.2046 82.5103 86.9327 81.3851 90.9174C80.635 93.4079 78.5098 94.9022 75.6344 95.5248C74.8843 95.6493 74.1342 95.7738 73.2591 95.7738C72.634 95.7738 72.259 95.7739 71.8839 95.6493C71.7589 95.7739 71.7589 95.8984 71.6339 96.0229C69.6336 99.8831 66.2582 102 62.2577 102C61.8826 102 61.6326 102 61.2576 102C57.5071 101.626 54.1316 99.6341 53.3815 97.0191C52.1314 92.7853 54.3817 91.042 56.0069 89.7967C56.2569 89.6722 56.3819 89.5477 56.632 89.2986C53.5066 89.9213 50.2562 90.2948 47.0057 90.2948C43.1302 90.2948 39.5048 89.7968 36.1293 88.8006C31.8788 87.5553 27.8783 85.5629 24.3778 82.6989C24.0028 84.5667 24.0028 85.9365 24.1278 86.8082C24.2528 87.3063 24.8779 87.8043 25.628 88.3024C27.2532 89.5477 29.5035 91.291 28.2533 95.5248C27.3782 98.1398 24.0028 100.257 20.3773 100.506C20.0023 100.506 19.7522 100.506 19.3772 100.506C15.3767 100.506 12.0013 98.3888 10.001 94.5286C9.37592 93.2834 7.50066 88.9251 7.12561 82.5744C6.75056 76.4728 7.87572 70.6201 10.5011 65.2656C8.12575 63.5223 6.12548 60.6583 5.25037 57.9188C4.00021 54.6812 4.25027 51.8171 5.75047 50.1983C6.0005 49.9493 6.2505 49.5757 6.50053 49.3267C4.37526 43.8476 4.25024 38.3686 4.62529 34.6329C4.87532 32.516 5.2504 30.5237 5.75047 28.5313C4.87535 28.2822 4.12524 27.7841 3.62518 26.788C1.62492 22.8032 5.50042 12.4678 7.37566 8.98114C9.87598 4.37378 15.6267 4.99639 16.6268 5.12091C18.3771 5.36996 24.0028 6.36615 27.1282 7.36233C29.3785 7.98495 30.5036 9.72826 30.5036 11.8452C42.0051 13.464 50.7562 16.8261 54.7567 18.5694C55.3818 17.5732 57.257 14.9582 60.3824 15.3318C62.1327 15.4563 66.3832 16.4525 70.1337 18.0713C75.0093 20.0637 77.3846 22.4296 77.2596 24.7956C77.1346 26.788 76.5095 29.7765 75.6344 32.6406C79.0098 34.0103 82.2603 35.8782 85.1356 38.1196C85.7607 37.746 86.5108 37.497 87.2609 37.2479C89.2611 36.7498 91.1364 37.1234 92.6366 38.3686C96.137 41.1081 95.1369 45.591 94.1367 47.4588C94.3868 47.9569 94.7618 48.3305 95.0119 48.8286C98.2623 54.0586 100.513 60.1602 101.888 67.5071C102.638 73.4842 103.263 84.6913 102.888 88.676ZM85.7607 39.1158C88.386 41.2327 90.7613 43.7231 92.8866 46.4626C93.5117 44.7193 94.0117 41.4817 91.5114 39.4893C89.2611 37.8705 86.8858 38.4932 85.7607 39.1158ZM55.5068 19.192C56.757 19.8147 57.5071 20.9354 57.8821 22.1806C58.6322 25.0446 60.1324 30.7727 61.7576 35.6291C64.633 44.2212 66.1332 44.3457 66.2582 44.3457C68.8835 44.3457 71.8839 38.6177 73.7592 33.0141V32.8896C74.7593 29.901 75.3844 26.9125 75.5094 24.9201C75.7594 20.6863 63.7579 17.1997 59.7574 16.7016C57.5071 16.4525 56.0069 18.3204 55.5068 19.192ZM5.62544 27.4106C8.25078 27.9087 13.1264 23.7994 17.877 19.8147C21.6275 16.5771 25.628 13.3394 28.8784 11.9697C29.0034 10.849 28.6284 9.35471 26.5031 8.60757C23.5027 7.61138 17.877 6.61519 16.2518 6.36614C15.7517 6.36614 15.2517 6.24161 14.8766 6.24161C13.0014 6.24161 9.87599 6.73972 8.25079 9.60376C6.37555 13.0904 2.8751 22.8032 4.50031 26.2899C4.50031 27.037 5.00036 27.286 5.62544 27.4106ZM6.8756 48.455C13.8765 40.9836 23.7528 34.7574 27.0032 33.7613C29.5035 33.0141 33.0039 33.1386 36.0043 34.0103C38.7547 34.882 42.5052 36.7498 44.8805 40.8591C48.1309 46.5872 52.3814 55.6774 52.7564 56.3C52.8815 56.549 54.1316 58.7904 54.3817 61.5299C59.7574 57.7942 63.5078 52.1907 65.5081 45.3419C64.3829 44.8438 62.8828 42.7269 60.6325 36.0027C58.8823 31.0218 57.382 25.4182 56.632 22.4296C56.3819 21.4335 55.6318 20.5618 54.7567 20.1882C51.2563 18.5694 41.8801 14.7092 29.2535 13.0904C26.1281 14.4601 22.3776 17.6978 18.6271 20.8109C14.0015 24.6711 9.75095 28.2822 6.50053 28.6558C5.87545 30.6482 3.62519 39.6139 6.8756 48.455ZM13.7515 65.7638C15.1267 65.8883 17.877 64.5185 20.7524 62.2771C24.0028 59.6621 27.6282 55.6774 30.2536 51.07C30.2536 50.9455 30.3786 50.9455 30.3786 50.8209C31.7538 48.3305 32.7539 45.7155 33.254 42.976C32.5039 42.7269 31.8788 42.6024 31.7538 42.4779C27.8783 40.9836 28.0033 38.2441 29.6285 37.3724C30.5036 36.9989 31.8788 36.9989 33.0039 37.1234C34.3791 37.3724 37.3795 38.2441 38.5046 38.8667C39.2547 39.2403 39.8798 39.7384 40.2548 40.2365C41.255 41.7307 40.0048 44.0967 36.0043 43.5986C35.7543 43.5986 35.1292 43.4741 34.5041 43.225C34.0041 45.9646 32.8789 48.7041 31.5037 51.1945C31.8788 52.6888 34.2541 61.1564 36.0043 65.8883C37.0044 68.6278 38.3796 70.2466 40.1299 70.8692C42.2551 71.6163 45.1305 70.8692 49.131 68.6278C51.1312 67.3825 52.5064 65.8883 52.8815 63.8959C53.7566 60.4093 51.6313 56.7981 51.6313 56.7981C51.6313 56.6735 47.2558 47.3343 43.8803 41.4817C40.0048 34.7574 31.7538 33.6367 27.3782 34.882C23.8778 35.8782 12.8764 43.225 6.1255 51.07C4.87534 52.4397 4.75031 54.8057 5.87545 57.5452C7.12561 61.2809 10.5011 65.3902 13.7515 65.7638ZM34.8792 66.3864C34.0041 63.8959 32.8789 60.4092 32.0038 57.4207C29.8786 57.5452 28.6284 57.0471 28.0033 56.6735C26.1281 59.0395 24.0028 61.2809 21.6275 63.2733C24.0028 64.2695 26.3781 65.1411 28.7534 65.7638C30.7537 66.2619 32.8789 66.6354 35.0042 66.7599C34.8792 66.6354 34.8792 66.5109 34.8792 66.3864ZM22.5026 87.0572C22.2526 85.812 22.3776 84.0687 22.8776 81.7027C22.3776 81.3292 22.0025 80.9556 21.6275 80.582C15.3767 74.7294 12.6263 68.1297 12.1263 66.6354C11.7512 66.5109 11.3762 66.2618 11.0011 66.1373C5.50041 77.4689 8.12576 89.0496 10.6261 94.155C12.2513 97.2681 14.8766 99.136 18.127 99.385C18.3771 98.6379 18.2521 98.1398 18.2521 98.1398C18.2521 97.7662 18.5021 97.5172 18.7521 97.3927C19.1272 97.3927 19.3772 97.6417 19.5022 97.8907C19.5022 98.0153 19.6272 98.5134 19.3772 99.385C19.5022 99.385 19.7522 99.385 19.8773 99.385C21.3774 99.2605 22.8776 98.7624 24.1278 98.0153C24.0028 97.3927 23.8778 97.0191 23.8778 97.0191C23.7528 96.77 23.8778 96.3965 24.1278 96.1474C24.3778 95.8984 24.7529 96.1474 25.0029 96.3965C25.1279 96.6455 25.2529 97.0191 25.378 97.2681C26.128 96.6455 26.6281 96.0229 26.8782 95.2758C27.8783 91.9136 26.2531 90.6684 24.7529 89.4232C23.6277 88.676 22.8776 88.0534 22.5026 87.0572ZM79.3849 80.2084C77.7597 81.2046 76.1345 82.0763 74.5093 82.948C74.5093 83.197 74.5093 83.4461 74.5093 83.8196C74.2592 88.5515 73.1341 92.2872 72.2589 94.4041C74.1342 94.5286 78.7598 94.4041 80.135 90.5439C81.0101 87.0572 79.8849 82.0763 79.3849 80.2084ZM100.263 67.8806C98.7623 60.0357 96.137 53.4359 92.3865 48.0814C90.1362 44.8438 87.3859 41.9798 84.3855 39.6139C84.2605 39.6139 84.2605 39.4893 84.2605 39.4893C81.5101 37.3724 78.2597 35.5046 74.7593 34.1348C74.3842 35.2555 74.0092 36.3762 73.5091 37.3724C72.0089 40.9836 69.6336 45.2174 66.7583 45.7155C64.633 53.3114 60.3824 59.2885 54.3817 63.2733C54.3817 63.6469 54.2566 64.145 54.1316 64.5185C53.5066 66.7599 52.1314 68.6278 49.7561 69.9975C46.6307 71.7409 44.1304 72.737 42.0051 72.737C41.255 72.737 40.5049 72.6125 39.7548 72.3635C38.0046 71.7409 36.6294 70.3711 35.6293 68.2542C33.254 68.1297 30.7536 67.7561 28.5034 67.1335C25.628 66.3863 22.8776 65.3902 20.5023 64.2695C17.752 66.2618 15.3767 67.3825 13.7515 67.1335C14.7516 69.3749 17.502 74.9785 22.6276 79.8349C31.6288 88.1779 43.2552 90.9174 57.3821 87.9289C57.6321 84.9403 55.6318 78.4651 55.6318 78.4651C55.5068 78.0915 55.7568 77.8425 56.0069 77.718C56.3819 77.5934 56.632 77.8425 56.757 78.0916C56.882 78.3406 59.0073 85.5629 58.5072 88.5515C58.2572 89.5477 57.382 90.1703 56.5069 90.7929C55.0067 91.9136 53.5066 93.0343 54.1316 95.8984C54.3817 95.6493 54.5067 95.5248 54.7567 95.4003C55.0067 95.2758 55.3818 95.2758 55.6318 95.6493C55.7569 95.8984 55.7568 96.2719 55.3818 96.521C55.3818 96.521 55.0068 96.77 54.5067 97.3927C55.1318 98.6379 56.632 99.6341 58.2572 100.257C58.6322 99.385 59.0072 99.0114 59.0072 99.0114C59.2573 98.7624 59.6323 98.7624 59.8824 99.0114C60.1324 99.2605 60.1324 99.6341 59.8824 99.8831C59.6323 100.132 59.5073 100.381 59.3823 100.755C59.8824 100.879 60.3824 101.004 61.0075 101.004C64.883 101.377 68.2584 99.385 70.2587 95.7738C70.3837 95.5248 70.5087 95.2758 70.6338 95.0267C73.1341 89.4232 75.2593 77.8425 69.3836 66.7599C69.2586 66.5109 69.3836 66.1373 69.6336 65.8883C69.8836 65.7637 70.2587 65.8883 70.5087 66.1373C73.1341 70.9937 74.3842 76.2237 74.3842 81.8273C77.3846 80.333 79.7599 78.8387 81.6351 77.2199C77.6346 75.103 75.6344 71.9899 74.5093 69.4995C73.0091 66.0128 73.1341 63.1488 73.1341 63.0242C73.1341 62.6507 73.3841 62.4016 73.7592 62.4016C74.1342 62.4016 74.3842 62.6507 74.3842 63.0242C74.3842 63.0242 74.3842 65.8883 75.7594 69.1259C77.2596 72.488 79.6349 75.103 83.0103 76.5973C83.8854 76.9708 84.6355 77.3444 85.5107 77.5935C85.7607 77.5935 85.8857 77.8425 85.8857 77.967C87.8859 83.446 88.386 86.9327 87.5109 89.2986C87.0109 90.7929 86.2608 93.657 87.6359 95.5248C87.886 95.8984 88.261 96.2719 88.6361 96.521C88.6361 96.1474 88.7611 95.7739 88.8861 95.4003C89.0111 95.0267 89.2611 94.9022 89.6362 95.0267C89.8862 95.1513 90.1363 95.5248 90.0112 95.7738C89.8862 96.2719 89.7612 96.6455 89.7612 97.1436C90.8863 97.5172 92.3865 97.7662 94.2618 97.6417C94.5118 97.6417 94.6368 97.6417 94.8868 97.6417C94.7618 97.1436 94.7618 96.6455 94.7618 96.1474C94.7618 95.4003 96.012 95.4003 96.012 96.1474C96.012 96.521 96.012 97.0191 96.137 97.3927C99.2624 96.521 101.013 93.906 101.388 89.0496C102.013 84.6913 101.388 73.4842 100.263 67.8806Z" fill="#050404"/>
</svg>
