<svg width="88" height="88" viewBox="0 0 88 88" fill="none" xmlns="http://www.w3.org/2000/svg">
<g opacity="0.12">
<path fill-rule="evenodd" clip-rule="evenodd" d="M29.8555 15.0852C30.1211 13.8185 29.6662 12.5572 28.535 11.8293C27.4396 11.1371 25.9181 11.2284 24.7359 11.9816C22.9176 13.2278 22.4451 15.4165 23.3784 16.9144C23.5526 17.1692 23.494 17.5138 23.2118 17.7961L16.8409 24.1669C16.599 24.4089 16.2544 24.4674 15.9592 24.3336C14.4614 23.4002 12.2323 23.9131 11.0265 25.691C10.2329 26.9136 10.1819 28.3947 10.8741 29.4902C11.6021 30.6214 12.9037 31.0359 14.13 30.8107C13.8645 32.0773 14.3193 33.3386 15.4505 34.0666C16.5459 34.7588 18.0674 34.6674 19.2497 33.9142C21.0679 32.668 21.5405 30.4793 20.6071 28.9815C20.4329 28.7266 20.4915 28.382 20.7738 28.0998L27.1446 21.7289C27.3865 21.487 27.7312 21.4284 28.0263 21.5623C29.5242 22.4956 31.7532 21.9828 32.9591 20.2048C33.7526 18.9823 33.8036 17.5011 33.1114 16.4057C32.4238 15.2342 31.1222 14.8196 29.8555 15.0852Z" fill="white"/>
<g clip-path="url(#clip0_2692_2845)">
<path fill-rule="evenodd" clip-rule="evenodd" d="M-7.8555 58.0852C-8.12107 56.8185 -7.66621 55.5572 -6.53502 54.8293C-5.43959 54.1371 -3.91809 54.2284 -2.73585 54.9816C-0.917604 56.2278 -0.445059 58.4165 -1.37841 59.9144C-1.55261 60.1692 -1.49401 60.5138 -1.21176 60.7961L5.15907 67.1669C5.401 67.4089 5.74562 67.4674 6.04078 67.3336C7.53864 66.4002 9.76765 66.9131 10.9735 68.691C11.7671 69.9136 11.8181 71.3947 11.1259 72.4902C10.3979 73.6214 9.0963 74.0359 7.86997 73.8107C8.13554 75.0773 7.68068 76.3386 6.54949 77.0666C5.45406 77.7588 3.93256 77.6674 2.75032 76.9142C0.932072 75.668 0.459529 73.4793 1.39288 71.9815C1.56708 71.7266 1.50848 71.382 1.22623 71.0998L-5.1446 64.7289C-5.38653 64.487 -5.73115 64.4284 -6.02631 64.5623C-7.52417 65.4956 -9.75318 64.9828 -10.9591 63.2048C-11.7526 61.9823 -11.8036 60.5011 -11.1114 59.4057C-10.4238 58.2342 -9.12216 57.8196 -7.8555 58.0852Z" fill="white"/>
</g>
<path fill-rule="evenodd" clip-rule="evenodd" d="M73.8555 15.0852C74.1211 13.8185 73.6662 12.5572 72.535 11.8293C71.4396 11.1371 69.9181 11.2284 68.7359 11.9816C66.9176 13.2278 66.4451 15.4165 67.3784 16.9144C67.5526 17.1692 67.494 17.5138 67.2118 17.7961L60.8409 24.1669C60.599 24.4089 60.2544 24.4674 59.9592 24.3336C58.4614 23.4002 56.2323 23.9131 55.0265 25.691C54.2329 26.9136 54.1819 28.3947 54.8741 29.4902C55.6021 30.6214 56.9037 31.0359 58.13 30.8107C57.8645 32.0773 58.3193 33.3386 59.4505 34.0666C60.5459 34.7588 62.0674 34.6674 63.2497 33.9142C65.0679 32.668 65.5405 30.4793 64.6071 28.9815C64.4329 28.7266 64.4915 28.382 64.7738 28.0998L71.1446 21.7289C71.3865 21.487 71.7312 21.4284 72.0263 21.5623C73.5242 22.4956 75.7532 21.9828 76.9591 20.2048C77.7526 18.9823 77.8036 17.5011 77.1114 16.4057C76.4238 15.2342 75.1222 14.8196 73.8555 15.0852Z" fill="white"/>
<path fill-rule="evenodd" clip-rule="evenodd" d="M36.1445 58.0852C35.8789 56.8185 36.3338 55.5572 37.465 54.8293C38.5604 54.1371 40.0819 54.2284 41.2641 54.9816C43.0824 56.2278 43.5549 58.4165 42.6216 59.9144C42.4474 60.1692 42.506 60.5138 42.7882 60.7961L49.1591 67.1669C49.401 67.4089 49.7456 67.4674 50.0408 67.3336C51.5386 66.4002 53.7677 66.9131 54.9735 68.691C55.7671 69.9136 55.8181 71.3947 55.1259 72.4902C54.3979 73.6214 53.0963 74.0359 51.87 73.8107C52.1355 75.0773 51.6807 76.3386 50.5495 77.0666C49.4541 77.7588 47.9326 77.6674 46.7503 76.9142C44.9321 75.668 44.4595 73.4793 45.3929 71.9815C45.5671 71.7266 45.5085 71.382 45.2262 71.0998L38.8554 64.7289C38.6135 64.487 38.2688 64.4284 37.9737 64.5623C36.4758 65.4956 34.2468 64.9828 33.0409 63.2048C32.2474 61.9823 32.1964 60.5011 32.8886 59.4057C33.5762 58.2342 34.8778 57.8196 36.1445 58.0852Z" fill="white"/>
<g clip-path="url(#clip1_2692_2845)">
<path fill-rule="evenodd" clip-rule="evenodd" d="M80.1445 58.0852C79.8789 56.8185 80.3338 55.5572 81.465 54.8293C82.5604 54.1371 84.0819 54.2284 85.2641 54.9816C87.0824 56.2278 87.5549 58.4165 86.6216 59.9144C86.4474 60.1692 86.506 60.5138 86.7882 60.7961L93.1591 67.1669C93.401 67.4089 93.7456 67.4674 94.0408 67.3336C95.5386 66.4002 97.7677 66.9131 98.9735 68.691C99.7671 69.9136 99.8181 71.3947 99.1259 72.4902C98.3979 73.6214 97.0963 74.0359 95.87 73.8107C96.1355 75.0773 95.6807 76.3386 94.5495 77.0666C93.4541 77.7588 91.9326 77.6674 90.7503 76.9142C88.9321 75.668 88.4595 73.4793 89.3929 71.9815C89.5671 71.7266 89.5085 71.382 89.2262 71.0998L82.8554 64.7289C82.6135 64.487 82.2688 64.4284 81.9737 64.5623C80.4758 65.4956 78.2468 64.9828 77.0409 63.2048C76.2474 61.9823 76.1964 60.5011 76.8886 59.4057C77.5762 58.2342 78.8778 57.8196 80.1445 58.0852Z" fill="white"/>
</g>
</g>
<defs>
<clipPath id="clip0_2692_2845">
<rect width="22" height="35.619" fill="white" transform="translate(0 48)"/>
</clipPath>
<clipPath id="clip1_2692_2845">
<rect width="22" height="35.619" fill="white" transform="translate(66 48)"/>
</clipPath>
</defs>
</svg>
