<svg width="68" height="150" viewBox="0 0 68 150" fill="none" xmlns="http://www.w3.org/2000/svg">
<path d="M19.2835 0.0410848C18.7539 -0.115628 18.1976 0.186644 18.0409 0.716228C17.8841 1.24581 18.1864 1.80217 18.716 1.95888L19.2835 0.0410848ZM45.9065 71.2523L46.742 71.8019L45.9065 71.2523ZM4 69.5L4.78424 68.8795L4 69.5ZM62.9998 61L63.9196 60.6077L62.9998 61ZM28 115L27.4603 114.158L28 115ZM5.06235 148.949C5.28298 149.455 5.87228 149.687 6.37858 149.466L14.6292 145.87C15.1355 145.65 15.3671 145.061 15.1464 144.554C14.9258 144.048 14.3365 143.816 13.8302 144.037L6.49633 147.233L3.30035 139.899C3.07972 139.393 2.49042 139.161 1.98412 139.382C1.47783 139.602 1.24625 140.192 1.46689 140.698L5.06235 148.949ZM20.6307 2.55385C21.1558 2.72503 21.7202 2.43813 21.8914 1.91305C22.0626 1.38796 21.7757 0.823524 21.2506 0.652345L20.6307 2.55385ZM25.0553 2.01517C24.5412 1.81345 23.9609 2.0667 23.7591 2.58082C23.5574 3.09495 23.8107 3.67526 24.3248 3.87699L25.0553 2.01517ZM27.9232 5.42524C28.4229 5.66049 29.0187 5.44612 29.2539 4.94645C29.4892 4.44677 29.2748 3.851 28.7752 3.61575L27.9232 5.42524ZM32.384 5.47819C31.9031 5.20655 31.2931 5.37616 31.0214 5.85703C30.7498 6.33789 30.9194 6.94792 31.4003 7.21956L32.384 5.47819ZM34.7212 9.27778C35.178 9.58822 35.7999 9.46958 36.1104 9.0128C36.4208 8.55601 36.3022 7.93406 35.8454 7.62363L34.7212 9.27778ZM39.1144 10.0667C38.6877 9.71597 38.0576 9.77755 37.7069 10.2042C37.3562 10.6309 37.4178 11.261 37.8444 11.6117L39.1144 10.0667ZM40.7249 14.2243C41.115 14.6153 41.7482 14.616 42.1391 14.2259C42.5301 13.8358 42.5308 13.2026 42.1407 12.8117L40.7249 14.2243ZM44.874 15.85C44.5267 15.4206 43.897 15.3541 43.4676 15.7015C43.0383 16.0488 42.9718 16.6785 43.3191 17.1079L44.874 15.85ZM45.5916 20.2457C45.8911 20.7097 46.5101 20.8431 46.9741 20.5436C47.4381 20.2441 47.5715 19.6251 47.272 19.1611L45.5916 20.2457ZM49.3078 22.722C49.0598 22.2285 48.4586 22.0296 47.9652 22.2777C47.4718 22.5258 47.2729 23.1269 47.521 23.6203L49.3078 22.722ZM49.0815 27.1768C49.277 27.6933 49.8543 27.9535 50.3708 27.758C50.8873 27.5624 51.1475 26.9852 50.952 26.4687L49.0815 27.1768ZM52.2064 30.3555C52.0625 29.8223 51.5136 29.5066 50.9804 29.6505C50.4472 29.7944 50.1316 30.3432 50.2754 30.8765L52.2064 30.3555ZM51.1156 34.6857C51.2101 35.2298 51.7278 35.5943 52.272 35.4998C52.8161 35.4053 53.1806 34.8876 53.0861 34.3435L51.1156 34.6857ZM53.6112 38.381C53.5627 37.8308 53.0774 37.4242 52.5273 37.4727C51.9771 37.5212 51.5705 38.0065 51.619 38.5566L53.6112 38.381ZM51.8104 42.4676C51.8165 43.0199 52.2692 43.4626 52.8214 43.4565C53.3737 43.4504 53.8164 42.9977 53.8103 42.4455L51.8104 42.4676ZM53.7105 46.504C53.7432 45.9526 53.3228 45.4792 52.7715 45.4465C52.2201 45.4138 51.7467 45.8342 51.714 46.3855L53.7105 46.504ZM51.3524 50.297C51.284 50.845 51.6727 51.3447 52.2208 51.4132C52.7688 51.4816 53.2685 51.0929 53.337 50.5449L51.3524 50.297ZM52.7123 54.5436C52.8139 54.0008 52.4563 53.4783 51.9135 53.3766C51.3706 53.2749 50.8481 53.6326 50.7464 54.1754L52.7123 54.5436ZM49.9069 58.0252C49.7734 58.5611 50.0996 59.1037 50.6356 59.2372C51.1715 59.3707 51.7141 59.0444 51.8476 58.5085L49.9069 58.0252ZM50.7524 62.4102C50.9176 61.8832 50.6242 61.3221 50.0972 61.1569C49.5702 60.9918 49.0091 61.2852 48.8439 61.8122L50.7524 62.4102ZM47.5493 65.5205C47.3495 66.0354 47.6049 66.6147 48.1198 66.8146C48.6346 67.0144 49.214 66.759 49.4138 66.2441L47.5493 65.5205ZM47.7757 69.975C48.0245 69.4819 47.8264 68.8805 47.3333 68.6317C46.8403 68.383 46.2389 68.581 45.9901 69.0741L47.7757 69.975ZM43.9596 72.2138C43.609 72.6406 43.6708 73.2707 44.0976 73.6213C44.5243 73.9719 45.1545 73.9101 45.505 73.4833L43.9596 72.2138ZM42.5144 76.3924C42.9512 76.0544 43.0312 75.4263 42.6932 74.9896C42.3552 74.5528 41.7271 74.4728 41.2903 74.8108L42.5144 76.3924ZM38.1068 76.7505C37.6069 76.9852 37.3918 77.5807 37.6265 78.0807C37.8612 78.5806 38.4568 78.7956 38.9567 78.5609L38.1068 76.7505ZM35.0484 79.9403C35.5842 79.8066 35.9101 79.2637 35.7764 78.7279C35.6426 78.1921 35.0997 77.8661 34.5639 77.9999L35.0484 79.9403ZM30.8235 78.6064C30.273 78.6517 29.8636 79.1347 29.9089 79.6851C29.9542 80.2355 30.4371 80.645 30.9876 80.5997L30.8235 78.6064ZM26.8975 80.6512C27.449 80.6805 27.9199 80.2572 27.9492 79.7057C27.9785 79.1542 27.5552 78.6834 27.0037 78.654L26.8975 80.6512ZM23.1888 78.2238C22.6444 78.131 22.1278 78.4972 22.0351 79.0416C21.9423 79.5861 22.3085 80.1026 22.8529 80.1954L23.1888 78.2238ZM18.8932 79.3044C19.4251 79.4531 19.9768 79.1424 20.1255 78.6105C20.2741 78.0786 19.9635 77.5269 19.4316 77.3782L18.8932 79.3044ZM15.7723 76.1558C15.2579 75.9549 14.678 76.2091 14.4771 76.7236C14.2763 77.2381 14.5305 77.8179 15.045 78.0188L15.7723 76.1558ZM11.3443 76.3505C11.835 76.6038 12.4382 76.4113 12.6915 75.9206C12.9448 75.4298 12.7523 74.8266 12.2615 74.5733L11.3443 76.3505ZM8.96798 72.6196C8.51195 72.308 7.88971 72.4252 7.57817 72.8812C7.26663 73.3372 7.38375 73.9595 7.83978 74.271L8.96798 72.6196ZM4.62839 71.6759C5.02397 72.0613 5.65709 72.0531 6.04248 71.6575C6.42788 71.2619 6.41962 70.6288 6.02403 70.2434L4.62839 71.6759ZM3.76999 67.2262C3.52908 66.7292 2.93091 66.5216 2.43394 66.7625C1.93697 67.0034 1.72939 67.6016 1.9703 68.0986L3.76999 67.2262ZM0.550841 63.7507C0.662114 64.2917 1.19086 64.64 1.73181 64.5287C2.27277 64.4174 2.6211 63.8887 2.50983 63.3477L0.550841 63.7507ZM2.02336 59.2085C2.00236 58.6566 1.53794 58.2263 0.986058 58.2473C0.434172 58.2683 0.00380725 58.7327 0.0248106 59.2846L2.02336 59.2085ZM0.178125 54.8103C0.119958 55.3595 0.518028 55.8518 1.06724 55.91C1.61645 55.9682 2.10883 55.5701 2.167 55.0209L0.178125 54.8103ZM2.90705 50.9021C3.04476 50.3672 2.72282 49.822 2.18798 49.6843C1.65314 49.5466 1.10793 49.8686 0.970222 50.4034L2.90705 50.9021ZM2.43665 46.1547C2.21315 46.6597 2.4414 47.2503 2.94644 47.4738C3.45148 47.6973 4.04208 47.4691 4.26557 46.964L2.43665 46.1547ZM6.28636 43.3566C6.60288 42.904 6.4926 42.2805 6.04002 41.964C5.58744 41.6474 4.96395 41.7577 4.64742 42.2103L6.28636 43.3566ZM7.65043 38.7915C7.2408 39.1619 7.20903 39.7943 7.57947 40.2039C7.94991 40.6135 8.58227 40.6453 8.9919 40.2748L7.65043 38.7915ZM12.3289 37.9209C12.8155 37.6596 12.998 37.0533 12.7367 36.5667C12.4754 36.0802 11.8691 35.8976 11.3826 36.1589L12.3289 37.9209ZM15.6146 34.489C15.0813 34.6326 14.7654 35.1814 14.909 35.7146C15.0526 36.2479 15.6013 36.5638 16.1346 36.4202L15.6146 34.489ZM20.1261 35.7068C20.6743 35.6393 21.0639 35.1401 20.9963 34.592C20.9287 34.0439 20.4296 33.6543 19.8814 33.7219L20.1261 35.7068ZM23.9945 33.3803C23.4427 33.4033 23.014 33.8693 23.0371 34.4211C23.0601 34.9729 23.5261 35.4016 24.0779 35.3786L23.9945 33.3803ZM28.0325 35.3874C28.5841 35.4137 29.0527 34.9879 29.079 34.4362C29.1053 33.8845 28.6794 33.416 28.1277 33.3897L28.0325 35.3874ZM32.2519 33.7865C31.7055 33.7064 31.1976 34.0844 31.1175 34.6309C31.0374 35.1773 31.4154 35.6852 31.9619 35.7653L32.2519 33.7865ZM35.8236 36.5393C36.3585 36.6766 36.9035 36.3542 37.0408 35.8193C37.1781 35.2843 36.8557 34.7394 36.3208 34.602L35.8236 36.5393ZM40.2825 35.857C39.7662 35.6608 39.1887 35.9204 38.9926 36.4366C38.7964 36.9529 39.056 37.5305 39.5723 37.7266L40.2825 35.857ZM43.1591 39.3303C43.6494 39.5844 44.2529 39.3929 44.507 38.9026C44.7611 38.4122 44.5696 37.8087 44.0793 37.5546L43.1591 39.3303ZM47.6553 39.6773C47.1973 39.3687 46.5758 39.4898 46.2672 39.9478C45.9586 40.4058 46.0797 41.0273 46.5377 41.3359L47.6553 39.6773ZM49.6706 43.7122C50.0916 44.0696 50.7227 44.0181 51.0801 43.5971C51.4376 43.1761 51.3861 42.545 50.9651 42.1876L49.6706 43.7122ZM53.9829 45.0372C53.6014 44.6378 52.9684 44.6234 52.569 45.0048C52.1697 45.3863 52.1552 46.0193 52.5367 46.4187L53.9829 45.0372ZM55.1226 49.4038C55.4641 49.8378 56.0928 49.9127 56.5268 49.5712C56.9608 49.2296 57.0358 48.6009 56.6942 48.1669L55.1226 49.4038ZM59.1031 51.5213C58.8003 51.0595 58.1804 50.9305 57.7185 51.2334C57.2567 51.5362 57.1277 52.1561 57.4306 52.6179L59.1031 51.5213ZM59.4739 56.0193C59.7402 56.5032 60.3483 56.6795 60.8322 56.4132C61.316 56.1469 61.4924 55.5388 61.2261 55.055L59.4739 56.0193ZM63.0834 58.7284C62.8509 58.2274 62.2563 58.0097 61.7554 58.2422C61.2544 58.4747 61.0367 59.0693 61.2692 59.5702L63.0834 58.7284ZM62.8324 63.2609C63.0279 63.7774 63.6051 64.0376 64.1216 63.8421C64.6382 63.6466 64.8984 63.0694 64.7029 62.5528L62.8324 63.2609ZM65.9905 66.4813C65.8438 65.9488 65.2932 65.6362 64.7608 65.7829C64.2283 65.9296 63.9157 66.4802 64.0624 67.0126L65.9905 66.4813ZM64.9047 70.8705C64.9915 71.4159 65.504 71.7877 66.0494 71.7009C66.5948 71.6141 66.9666 71.1016 66.8798 70.5562L64.9047 70.8705ZM67.2746 74.72C67.2589 74.168 66.7987 73.7331 66.2466 73.7488C65.6946 73.7644 65.2597 74.2246 65.2754 74.7767L67.2746 74.72ZM65.1066 78.6803C65.0421 79.2288 65.4345 79.7258 65.983 79.7902C66.5315 79.8547 67.0284 79.4623 67.0929 78.9138L65.1066 78.6803ZM66.2851 83.0354C66.4327 82.5032 66.121 81.9521 65.5888 81.8044C65.0567 81.6568 64.5055 81.9685 64.3579 82.5007L66.2851 83.0354ZM63.0292 86.172C62.8028 86.6757 63.0276 87.2676 63.5313 87.4941C64.035 87.7205 64.6269 87.4958 64.8534 86.992L63.0292 86.172ZM62.8669 90.6846C63.1612 90.2173 63.021 89.5998 62.5537 89.3055C62.0863 89.0112 61.4689 89.1514 61.1746 89.6187L62.8669 90.6846ZM58.8749 92.8096C58.5262 93.2378 58.5905 93.8677 59.0187 94.2165C59.4469 94.5653 60.0768 94.5009 60.4256 94.0727L58.8749 92.8096ZM57.6333 97.1545C58.0239 96.7641 58.0241 96.1309 57.6336 95.7403C57.2432 95.3497 56.61 95.3496 56.2194 95.74L57.6333 97.1545ZM53.2903 98.4242C52.8684 98.7805 52.8152 99.4114 53.1715 99.8334C53.5279 100.255 54.1588 100.309 54.5808 99.9522L53.2903 98.4242ZM51.3369 102.502C51.782 102.175 51.878 101.549 51.5511 101.104C51.2242 100.659 50.5984 100.563 50.1532 100.89L51.3369 102.502ZM46.8596 103.168C46.3974 103.47 46.2676 104.089 46.5698 104.552C46.872 105.014 47.4918 105.144 47.954 104.842L46.8596 103.168ZM44.4737 107.009C44.9483 106.726 45.1041 106.113 44.8216 105.638C44.5391 105.164 43.9254 105.008 43.4508 105.29L44.4737 107.009ZM39.9587 107.293C39.4757 107.561 39.3014 108.169 39.5693 108.652C39.8372 109.135 40.4459 109.31 40.9288 109.042L39.9587 107.293ZM37.3464 110.983C37.834 110.723 38.019 110.118 37.7597 109.63C37.5003 109.142 36.8948 108.957 36.4072 109.217L37.3464 110.983ZM32.8163 111.119C32.3288 111.378 32.1439 111.984 32.4034 112.471C32.6628 112.959 33.2684 113.144 33.7559 112.884L32.8163 111.119ZM30.2225 114.824C30.7009 114.548 30.8648 113.936 30.5886 113.458C30.3125 112.979 29.7009 112.816 29.2226 113.092L30.2225 114.824ZM25.7041 115.309C25.2455 115.617 25.1231 116.238 25.4309 116.697C25.7386 117.156 26.3598 117.278 26.8184 116.97L25.7041 115.309ZM23.465 119.344C23.9067 119.013 23.9959 118.386 23.6643 117.944C23.3328 117.502 22.7059 117.413 22.2642 117.745L23.465 119.344ZM18.9697 120.403C18.5537 120.766 18.511 121.398 18.8743 121.814C19.2376 122.23 19.8693 122.272 20.2853 121.909L18.9697 120.403ZM17.3695 124.718C17.7456 124.314 17.7227 123.681 17.3183 123.305C16.9139 122.929 16.2811 122.952 15.905 123.356L17.3695 124.718ZM13.2019 126.683C12.8854 127.136 12.9959 127.759 13.4485 128.076C13.9012 128.392 14.5247 128.282 14.8411 127.829L13.2019 126.683ZM12.8178 131.273C13.0594 130.776 12.8527 130.178 12.3561 129.936C11.8595 129.695 11.261 129.901 11.0194 130.398L12.8178 131.273ZM9.41059 134.359C9.23236 134.882 9.51164 135.45 10.0344 135.628C10.5571 135.807 11.1253 135.527 11.3036 135.005L9.41059 134.359ZM10.1058 138.928C10.2568 138.397 9.94856 137.844 9.41732 137.693C8.88609 137.542 8.33301 137.85 8.18199 138.381L10.1058 138.928ZM7.03855 142.362C6.88 142.891 7.18035 143.449 7.70939 143.607C8.23842 143.766 8.79582 143.465 8.95437 142.936L7.03855 142.362ZM7.652 146.933C7.83754 146.413 7.56625 145.841 7.04607 145.655C6.52588 145.47 5.95378 145.741 5.76824 146.261L7.652 146.933ZM18.9998 0.999982L18.716 1.95888C19.3662 2.1513 20.0044 2.34969 20.6307 2.55385L20.9406 1.6031L21.2506 0.652345C20.6066 0.442421 19.951 0.23861 19.2835 0.0410848L18.9998 0.999982ZM24.69 2.94608L24.3248 3.87699C25.5774 4.36847 26.7762 4.8852 27.9232 5.42524L28.3492 4.52049L28.7752 3.61575C27.587 3.05639 26.3477 2.52228 25.0553 2.01517L24.69 2.94608ZM31.8921 6.34887L31.4003 7.21956C32.5687 7.87961 33.6747 8.56659 34.7212 9.27778L35.2833 8.45071L35.8454 7.62363C34.7523 6.88072 33.5993 6.16473 32.384 5.47819L31.8921 6.34887ZM38.4794 10.8392L37.8444 11.6117C38.8728 12.457 39.8316 13.3291 40.7249 14.2243L41.4328 13.518L42.1407 12.8117C41.2006 11.8695 40.193 10.9532 39.1144 10.0667L38.4794 10.8392ZM44.0966 16.4789L43.3191 17.1079C44.1473 18.1315 44.9032 19.1789 45.5916 20.2457L46.4318 19.7034L47.272 19.1611C46.5453 18.0351 45.7476 16.9297 44.874 15.85L44.0966 16.4789ZM48.4144 23.1711L47.521 23.6203C48.1092 24.7903 48.6275 25.9776 49.0815 27.1768L50.0167 26.8227L50.952 26.4687C50.4742 25.2068 49.9282 23.9559 49.3078 22.722L48.4144 23.1711ZM51.2409 30.616L50.2754 30.8765C50.6166 32.1409 50.8946 33.4126 51.1156 34.6857L52.1009 34.5146L53.0861 34.3435C52.8551 33.0132 52.5642 31.6817 52.2064 30.3555L51.2409 30.616ZM52.6151 38.4688L51.619 38.5566C51.7346 39.868 51.7961 41.1738 51.8104 42.4676L52.8104 42.4566L53.8103 42.4455C53.7954 41.1033 53.7316 39.7461 53.6112 38.381L52.6151 38.4688ZM52.7122 46.4447L51.714 46.3855C51.6352 47.7135 51.5119 49.02 51.3524 50.297L52.3447 50.4209L53.337 50.5449C53.5016 49.2272 53.629 47.8776 53.7105 46.504L52.7122 46.4447ZM51.7293 54.3595L50.7464 54.1754C50.4966 55.5091 50.213 56.796 49.9069 58.0252L50.8772 58.2668L51.8476 58.5085C52.1628 57.2429 52.4549 55.9176 52.7123 54.5436L51.7293 54.3595ZM49.7982 62.1112L48.8439 61.8122C48.4206 63.1632 47.9818 64.4062 47.5493 65.5205L48.4816 65.8823L49.4138 66.2441C49.8626 65.0879 50.316 63.8031 50.7524 62.4102L49.7982 62.1112ZM46.8829 69.5245L45.9901 69.0741C45.643 69.762 45.331 70.3076 45.0711 70.7027L45.9065 71.2523L46.742 71.8019C47.0565 71.3237 47.4064 70.707 47.7757 69.975L46.8829 69.5245ZM45.9065 71.2523L45.0711 70.7027C44.7192 71.2376 44.3482 71.7408 43.9596 72.2138L44.7323 72.8486L45.505 73.4833C45.9389 72.9552 46.3518 72.395 46.742 71.8019L45.9065 71.2523ZM41.9024 75.6016L41.2903 74.8108C40.2959 75.5804 39.2296 76.2234 38.1068 76.7505L38.5317 77.6557L38.9567 78.5609C40.2056 77.9746 41.3983 77.2562 42.5144 76.3924L41.9024 75.6016ZM34.8061 78.9701L34.5639 77.9999C33.3527 78.3023 32.1006 78.5012 30.8235 78.6064L30.9055 79.603L30.9876 80.5997C32.3634 80.4864 33.7232 80.2712 35.0484 79.9403L34.8061 78.9701ZM26.9506 79.6526L27.0037 78.654C25.7329 78.5864 24.4561 78.4397 23.1888 78.2238L23.0209 79.2096L22.8529 80.1954C24.1912 80.4234 25.5447 80.5792 26.8975 80.6512L26.9506 79.6526ZM19.1624 78.3413L19.4316 77.3782C18.1779 77.0278 16.9526 76.6166 15.7723 76.1558L15.4087 77.0873L15.045 78.0188C16.2862 78.5034 17.5746 78.9358 18.8932 79.3044L19.1624 78.3413ZM11.8029 75.4619L12.2615 74.5733C11.0761 73.9615 9.97099 73.3048 8.96798 72.6196L8.40388 73.4453L7.83978 74.271C8.91547 75.0059 10.0916 75.704 11.3443 76.3505L11.8029 75.4619ZM5.32621 70.9597L6.02403 70.2434C5.55651 69.7879 5.14208 69.3318 4.78424 68.8795L4 69.5L3.21576 70.1205C3.63322 70.6481 4.10678 71.1678 4.62839 71.6759L5.32621 70.9597ZM4 69.5L4.78424 68.8795C4.42279 68.4227 4.0817 67.8692 3.76999 67.2262L2.87014 67.6624L1.9703 68.0986C2.33373 68.8483 2.7488 69.5302 3.21576 70.1205L4 69.5ZM1.53033 63.5492L2.50983 63.3477C2.24633 62.0667 2.07903 60.6713 2.02336 59.2085L1.02409 59.2465L0.0248106 59.2846C0.0843618 60.8494 0.263665 62.3546 0.550841 63.7507L1.53033 63.5492ZM1.17256 54.9156L2.167 55.0209C2.31225 53.6495 2.55603 52.2654 2.90705 50.9021L1.93864 50.6527L0.970222 50.4034C0.593623 51.8661 0.333136 53.3467 0.178125 54.8103L1.17256 54.9156ZM3.35111 46.5594L4.26557 46.964C4.82631 45.6969 5.49749 44.4845 6.28636 43.3566L5.46689 42.7834L4.64742 42.2103C3.77831 43.453 3.04513 44.7797 2.43665 46.1547L3.35111 46.5594ZM8.32116 39.5331L8.9919 40.2748C9.98327 39.3783 11.0927 38.5848 12.3289 37.9209L11.8558 37.0399L11.3826 36.1589C9.99932 36.9018 8.75786 37.79 7.65043 38.7915L8.32116 39.5331ZM15.8746 35.4546L16.1346 36.4202C16.7821 36.2459 17.4567 36.1007 18.1592 35.9872L17.9997 35L17.8403 34.0128C17.0715 34.137 16.3298 34.2965 15.6146 34.489L15.8746 35.4546ZM17.9997 35L18.1592 35.9872C18.8173 35.8809 19.473 35.7874 20.1261 35.7068L20.0038 34.7144L19.8814 33.7219C19.203 33.8055 18.5225 33.9026 17.8403 34.0128L17.9997 35ZM24.0362 34.3794L24.0779 35.3786C25.4106 35.323 26.7296 35.3253 28.0325 35.3874L28.0801 34.3886L28.1277 33.3897C26.7631 33.3246 25.3845 33.3223 23.9945 33.3803L24.0362 34.3794ZM32.1069 34.7759L31.9619 35.7653C33.2695 35.957 34.5576 36.2143 35.8236 36.5393L36.0722 35.5707L36.3208 34.602C34.9846 34.2591 33.6273 33.9881 32.2519 33.7865L32.1069 34.7759ZM39.9274 36.7918L39.5723 37.7266C40.7928 38.1903 41.9893 38.7241 43.1591 39.3303L43.6192 38.4425L44.0793 37.5546C42.8406 36.9127 41.574 36.3476 40.2825 35.857L39.9274 36.7918ZM47.0965 40.5066L46.5377 41.3359C47.609 42.0578 48.6541 42.8492 49.6706 43.7122L50.3178 42.9499L50.9651 42.1876C49.8927 41.2771 48.7886 40.441 47.6553 39.6773L47.0965 40.5066ZM53.2598 45.7279L52.5367 46.4187C53.4256 47.3492 54.2882 48.3436 55.1226 49.4038L55.9084 48.7853L56.6942 48.1669C55.8214 47.0578 54.917 46.015 53.9829 45.0372L53.2598 45.7279ZM58.2668 52.0696L57.4306 52.6179C58.1371 53.6955 58.8187 54.8288 59.4739 56.0193L60.35 55.5371L61.2261 55.055C60.5469 53.8209 59.8388 52.6433 59.1031 51.5213L58.2668 52.0696ZM62.1763 59.1493L61.2692 59.5702C61.5454 60.1653 61.8157 60.7726 62.0799 61.3923L62.9998 61L63.9196 60.6077C63.6473 59.9691 63.3685 59.3427 63.0834 58.7284L62.1763 59.1493ZM62.9998 61L62.0799 61.3923C62.3491 62.0233 62.5997 62.6461 62.8324 63.2609L63.7676 62.9069L64.7029 62.5528C64.4602 61.9117 64.1993 61.2634 63.9196 60.6077L62.9998 61ZM65.0264 66.7469L64.0624 67.0126C64.4278 68.3387 64.7063 69.6242 64.9047 70.8705L65.8922 70.7133L66.8798 70.5562C66.6694 69.2336 66.3748 67.8757 65.9905 66.4813L65.0264 66.7469ZM66.275 74.7484L65.2754 74.7767C65.3136 76.1257 65.254 77.426 65.1066 78.6803L66.0998 78.7971L67.0929 78.9138C67.2518 77.562 67.3155 76.1646 67.2746 74.72L66.275 74.7484ZM65.3215 82.768L64.3579 82.5007C64.005 83.7725 63.5582 84.9953 63.0292 86.172L63.9413 86.582L64.8534 86.992C65.4223 85.7265 65.9041 84.4085 66.2851 83.0354L65.3215 82.768ZM62.0207 90.1517L61.1746 89.6187C60.4776 90.7254 59.707 91.7881 58.8749 92.8096L59.6503 93.4412L60.4256 94.0727C61.3048 92.9935 62.1234 91.8651 62.8669 90.6846L62.0207 90.1517ZM56.9264 96.4473L56.2194 95.74C55.2867 96.6723 54.3063 97.5662 53.2903 98.4242L53.9355 99.1882L54.5808 99.9522C55.6351 99.0618 56.6572 98.1303 57.6333 97.1545L56.9264 96.4473ZM50.745 101.696L50.1532 100.89C49.0736 101.682 47.9715 102.441 46.8596 103.168L47.4068 104.005L47.954 104.842C49.0924 104.097 50.2246 103.318 51.3369 102.502L50.745 101.696ZM43.9623 106.15L43.4508 105.29C42.2774 105.989 41.1085 106.655 39.9587 107.293L40.4437 108.167L40.9288 109.042C42.0924 108.396 43.2794 107.72 44.4737 107.009L43.9623 106.15ZM36.8768 110.1L36.4072 109.217C35.2031 109.857 33.9067 110.538 32.8163 111.119L33.2861 112.001L33.7559 112.884C34.9314 112.259 36.044 111.675 37.3464 110.983L36.8768 110.1ZM29.7226 113.958L29.2226 113.092C28.5945 113.454 28.0043 113.809 27.4603 114.158L28 115L28.5397 115.842C29.0508 115.514 29.6133 115.175 30.2225 114.824L29.7226 113.958ZM28 115L27.4603 114.158C26.8541 114.547 26.269 114.93 25.7041 115.309L26.2613 116.14L26.8184 116.97C27.3712 116.599 27.9446 116.223 28.5397 115.842L28 115ZM22.8646 118.544L22.2642 117.745C21.0556 118.652 19.962 119.536 18.9697 120.403L19.6275 121.156L20.2853 121.909C21.2368 121.078 22.2917 120.225 23.465 119.344L22.8646 118.544ZM16.6373 124.037L15.905 123.356C14.8595 124.48 13.9699 125.585 13.2019 126.683L14.0215 127.256L14.8411 127.829C15.5535 126.81 16.3842 125.778 17.3695 124.718L16.6373 124.037ZM11.9186 130.836L11.0194 130.398C10.3818 131.708 9.86637 133.022 9.41059 134.359L10.3571 134.682L11.3036 135.005C11.7399 133.725 12.2251 132.491 12.8178 131.273L11.9186 130.836ZM9.14387 138.655L8.18199 138.381C7.81671 139.666 7.45313 140.979 7.03855 142.362L7.99646 142.649L8.95437 142.936C9.37437 141.535 9.74511 140.197 10.1058 138.928L9.14387 138.655ZM6.71012 146.597L5.76824 146.261C5.54485 146.888 5.30599 147.528 5.04837 148.183L5.97908 148.549L6.9098 148.915C7.17563 148.238 7.42192 147.578 7.652 146.933L6.71012 146.597Z" fill="#9164CC"/>
</svg>
