<svg width="459" height="459" viewBox="0 0 459 459" fill="none" xmlns="http://www.w3.org/2000/svg">
<g opacity="0.05" clip-path="url(#clip0_2692_3100)">
<path d="M198.229 71.5327C199.572 72.2382 200.857 73.047 202.071 73.9514C203.475 75.0935 204.67 76.4639 205.601 78.0027C205.964 78.5434 206.258 79.0414 206.946 80.2329C207.747 81.6166 208.055 82.1537 208.483 82.7761C208.777 83.203 209.154 83.6725 209.411 83.9713C209.484 84.0495 209.556 84.1384 209.571 84.1598C209.585 84.1811 209.795 84.4159 210.053 84.6613C210.362 84.9787 210.704 85.2625 211.075 85.5079C212.361 86.3783 213.865 86.8886 215.425 86.984C215.82 87.0053 216.215 87.0053 216.61 86.984C218.11 86.8808 219.551 86.3696 220.771 85.5079C221.175 85.2302 221.55 84.9145 221.892 84.5653C222.144 84.3192 222.38 84.0579 222.598 83.7828C224.013 81.9746 224.903 79.8252 225.176 77.5617C225.347 76.3242 225.39 75.0728 225.303 73.8269C225.223 72.622 225.254 71.4124 225.397 70.2131C225.571 68.796 225.827 67.3899 226.165 66.0017C226.549 64.2943 226.694 63.6577 226.807 62.9569C227.115 60.9971 227.057 59.4854 226.615 58.0875C226.101 56.6023 225.231 55.2603 224.077 54.1749C223.851 53.9486 223.609 53.7382 223.352 53.5453C222.307 52.7628 221.071 52.2636 219.767 52.0976C219.151 52.0177 218.529 51.9867 217.908 52.0052C217.17 52.0195 216.433 52.0717 215.7 52.1617C214.848 52.2684 214.152 52.3751 212.275 52.6952C210.624 53.0103 208.956 53.2312 207.28 53.3568C206.331 53.4244 205.379 53.4244 204.431 53.3568C202.349 53.1977 200.256 53.4394 198.268 54.0682C196.727 54.5439 195.301 55.3234 194.078 56.3588C193.864 56.5438 193.353 57.0347 193.183 57.2374C192.168 58.337 191.473 59.6841 191.17 61.1378C190.868 62.5915 190.97 64.0982 191.465 65.5001C192.095 67.1506 193.277 68.4631 195.368 69.8325C196.006 70.2629 196.844 70.7715 198.214 71.5327H198.229Z" fill="white"/>
<path d="M171.925 174.424C170.719 173.57 169.251 173.075 167.722 173.009C167.427 172.988 166.728 173.009 166.402 173.009C163.514 173.219 160.783 174.291 158.637 176.057C158.345 176.291 157.604 176.952 157.382 177.193C156.272 178.354 155.503 179.751 155.148 181.254C154.94 182.087 154.951 182.953 155.181 183.782C155.41 184.61 155.851 185.378 156.468 186.023C157.358 186.892 158.515 187.499 159.788 187.765C163.17 188.528 167.319 187.399 170.398 184.905C170.659 184.696 171.361 184.062 171.549 183.86C172.663 182.71 173.444 181.326 173.821 179.833C174.037 179.048 174.058 178.23 173.882 177.437C173.706 176.644 173.338 175.897 172.804 175.249C172.537 174.95 172.243 174.671 171.925 174.417V174.424Z" fill="white"/>
<path d="M150.011 181.232C148.818 180.068 147.268 179.321 145.6 179.103C144.967 179.02 144.327 178.987 143.688 179.005C142.918 179.019 142.148 179.073 141.384 179.166C140.508 179.272 139.792 179.381 137.861 179.714C136.163 180.036 134.447 180.264 132.723 180.394C131.747 180.457 130.768 180.457 129.793 180.394C127.653 180.223 125.5 180.464 123.455 181.104C121.868 181.593 120.401 182.395 119.141 183.459C118.921 183.649 118.395 184.154 118.22 184.363C117.183 185.503 116.475 186.895 116.17 188.394C115.864 189.892 115.972 191.444 116.483 192.888C117.135 194.589 118.347 195.938 120.465 197.35C121.124 197.785 122.023 198.308 123.447 199.094C124.829 199.816 126.15 200.647 127.395 201.578C128.823 202.757 130.037 204.166 130.986 205.743C131.34 206.299 131.66 206.811 132.369 208.04C133.189 209.463 133.54 210.011 133.979 210.655C134.281 211.094 134.636 211.573 134.9 211.88C134.975 211.964 135.049 212.056 135.064 212.078C135.079 212.1 135.299 212.337 135.557 212.593C135.875 212.921 136.229 213.214 136.612 213.468C137.935 214.367 139.483 214.897 141.089 215C141.347 215 142.088 215 142.342 215C143.874 214.893 145.345 214.367 146.588 213.482C147.015 213.197 147.412 212.873 147.774 212.513C148.033 212.26 148.275 211.99 148.497 211.705C149.957 209.842 150.876 207.627 151.156 205.293C151.334 204.021 151.379 202.734 151.29 201.453C151.194 200.217 151.217 198.974 151.357 197.741C151.533 196.288 151.794 194.846 152.14 193.422C152.535 191.666 152.684 191.012 152.8 190.288C153.12 188.272 153.057 186.718 152.602 185.284C152.09 183.749 151.2 182.361 150.011 181.243V181.232Z" fill="white"/>
<path d="M156.691 171.762C158.08 169.916 158.883 167.681 158.993 165.357C159.044 164.176 158.808 163.001 158.307 161.935C157.823 160.912 157.028 160.077 156.039 159.555C155.445 159.258 154.802 159.075 154.142 159.016C153.769 158.995 153.395 158.995 153.022 159.016C151.357 159.224 149.784 159.909 148.484 160.991C148.105 161.275 147.752 161.594 147.428 161.942C147.066 162.295 146.733 162.677 146.432 163.084C144.478 165.651 143.615 168.828 144.161 171.485C144.347 172.491 144.786 173.43 145.435 174.21C145.631 174.424 145.839 174.625 146.059 174.813C146.589 175.253 147.203 175.576 147.861 175.765C148.127 175.846 148.397 175.91 148.671 175.955C150.632 176.203 152.871 175.417 154.765 173.833C155.483 173.223 156.129 172.531 156.691 171.769V171.762Z" fill="white"/>
<path d="M172.092 194.781C171.921 194.526 171.722 194.289 171.498 194.074C170.739 193.337 169.799 192.789 168.762 192.479C167.882 192.188 166.958 192.031 166.026 192.012C165.729 191.996 165.431 191.996 165.134 192.012C163.024 192.148 160.998 192.853 159.296 194.042C157.224 195.506 156 197.494 156 199.474C156.001 200.649 156.433 201.786 157.221 202.693C157.269 202.749 157.467 202.93 157.65 203.096C157.906 203.339 158.19 203.554 158.497 203.736C159.831 204.556 161.386 204.994 162.977 204.995C163.773 205.019 164.57 204.955 165.351 204.804C167.204 204.461 168.931 203.665 170.36 202.495C170.709 202.179 171.039 201.845 171.349 201.494C172.365 200.392 172.948 198.991 172.999 197.529C173.02 196.547 172.709 195.584 172.111 194.781H172.092Z" fill="white"/>
<path d="M216.33 104.872C215.386 104.252 214.253 103.948 213.108 104.007C212.371 104.041 211.645 104.192 210.961 104.456C210.329 104.707 209.731 105.03 209.182 105.419C208.82 105.676 208.482 105.965 208.175 106.28C207.828 106.591 207.514 106.932 207.236 107.301C205.645 109.296 204.859 111.768 205.021 114.269C205.123 115.721 205.698 117.106 206.666 118.232C206.916 118.491 207.186 118.733 207.472 118.956C207.722 119.151 207.992 119.322 208.278 119.466C210.527 120.552 213.343 119.951 215.624 117.932C217.059 116.622 218.092 114.964 218.611 113.136C219.371 110.497 219.01 107.808 217.603 106.038C217.246 105.584 216.816 105.186 216.33 104.858V104.872Z" fill="white"/>
<path d="M250.868 119.24C250.614 118.941 250.334 118.663 250.033 118.407C248.888 117.561 247.499 117.075 246.054 117.014C245.775 116.994 245.113 116.997 244.804 117.014C242.075 117.215 239.492 118.275 237.458 120.03C237.178 120.263 236.481 120.956 236.27 121.197C235.217 122.357 234.487 123.754 234.148 125.257C233.946 126.087 233.951 126.952 234.163 127.781C234.375 128.609 234.788 129.378 235.369 130.024C236.226 130.892 237.332 131.498 238.548 131.765C241.745 132.528 245.676 131.396 248.594 128.903C248.837 128.694 249.502 128.032 249.684 127.823C250.737 126.685 251.475 125.312 251.831 123.829C252.035 123.04 252.055 122.217 251.888 121.419C251.722 120.621 251.373 119.869 250.868 119.215V119.24Z" fill="white"/>
<path d="M228.081 125.26C227.854 125.028 227.612 124.812 227.356 124.613C226.312 123.806 225.075 123.294 223.77 123.129C223.156 123.035 222.535 122.992 221.914 123.001C221.174 123.023 220.435 123.086 219.702 123.191C218.85 123.301 218.158 123.41 216.279 123.739C214.625 124.067 212.953 124.298 211.272 124.43C210.323 124.483 209.371 124.472 208.422 124.397C206.342 124.229 204.248 124.47 202.259 125.106C200.715 125.608 199.289 126.421 198.067 127.496C197.853 127.686 197.342 128.19 197.172 128.399C196.158 129.533 195.466 130.921 195.167 132.418C194.867 133.915 194.973 135.465 195.471 136.906C196.106 138.606 197.302 139.954 199.38 141.361C200.022 141.8 200.892 142.322 202.259 143.108C203.595 143.829 204.869 144.66 206.069 145.593C207.471 146.768 208.662 148.176 209.594 149.755C209.938 150.311 210.25 150.822 210.939 152.047C211.736 153.468 212.045 154.02 212.472 154.659C212.766 155.098 213.143 155.58 213.401 155.887L213.56 156.081C213.56 156.103 213.785 156.344 214.039 156.6C214.349 156.926 214.693 157.218 215.065 157.47C216.352 158.364 217.856 158.888 219.416 158.986C219.659 159.005 220.384 159.005 220.63 158.986C222.623 158.827 224.49 157.944 225.884 156.501C226.142 156.247 226.384 155.977 226.609 155.694C227.962 153.998 228.814 151.831 229.173 149.302C229.346 148.031 229.389 146.745 229.299 145.465C229.219 144.227 229.252 142.984 229.397 141.752C229.567 140.297 229.824 138.853 230.166 137.429C230.547 135.675 230.695 134.988 230.804 134.268C231.116 132.25 231.058 130.73 230.612 129.294C230.098 127.768 229.228 126.389 228.074 125.274L228.081 125.26Z" fill="white"/>
<path d="M250.17 138.776C250.007 138.522 249.82 138.285 249.61 138.069C248.896 137.324 248.01 136.766 247.031 136.446C246.199 136.165 245.329 136.017 244.452 136.008C244.174 136.008 243.892 135.99 243.611 136.008C241.612 136.146 239.693 136.849 238.075 138.037C236.123 139.5 235 141.487 235 143.47C234.999 144.633 235.407 145.76 236.151 146.651C236.196 146.708 236.383 146.92 236.552 147.09C236.787 147.337 237.049 147.556 237.333 147.744C238.593 148.556 240.058 148.99 241.556 148.995C242.306 149.019 243.057 148.956 243.793 148.808C245.532 148.463 247.149 147.666 248.484 146.496C248.822 146.181 249.144 145.848 249.448 145.499C250.404 144.396 250.952 142.995 251 141.533C251.001 140.989 250.907 140.45 250.722 139.939C250.594 139.529 250.407 139.141 250.166 138.786L250.17 138.776Z" fill="white"/>
<path d="M235.537 115.725C237.021 113.892 237.878 111.666 237.992 109.35C238.049 108.157 237.797 106.969 237.26 105.891C236.838 105.09 236.208 104.406 235.432 103.903C234.655 103.4 233.757 103.095 232.823 103.017C232.426 102.994 232.027 102.994 231.629 103.017C229.844 103.207 228.152 103.877 226.749 104.95C225.965 105.595 225.242 106.307 224.591 107.076C222.508 109.644 221.588 112.787 222.173 115.448C222.368 116.466 222.837 117.418 223.532 118.21C223.729 118.423 223.94 118.623 224.163 118.81C224.742 119.249 225.407 119.574 226.119 119.766C226.403 119.845 226.691 119.908 226.982 119.956C229.073 120.2 231.427 119.417 233.446 117.83C234.222 117.21 234.921 116.508 235.53 115.736L235.537 115.725Z" fill="white"/>
<path d="M123.633 102.247C123.882 102.5 124.151 102.734 124.439 102.948C124.697 103.146 124.978 103.317 125.275 103.458C127.525 104.542 130.312 103.978 132.596 101.958C134.042 100.652 135.086 98.9961 135.615 97.1679C136.375 94.5362 135.995 91.8142 134.611 90.0501C134.241 89.594 133.798 89.1953 133.3 88.868C132.355 88.2494 131.221 87.9468 130.076 88.0077C129.339 88.0382 128.612 88.1886 127.928 88.4523C127.297 88.7155 126.7 89.0479 126.149 89.4428C125.786 89.6886 125.449 89.967 125.142 90.2742C124.796 90.5862 124.481 90.9288 124.203 91.2973C122.621 93.3048 121.848 95.7853 122.025 98.2885C122.113 99.7353 122.675 101.119 123.633 102.247Z" fill="white"/>
<path d="M137.47 160.872C136.595 160.251 135.543 159.947 134.48 160.008C133.796 160.041 133.123 160.193 132.488 160.456C131.913 160.707 131.37 161.029 130.87 161.415C130.179 161.955 129.561 162.589 129.034 163.299C127.57 165.298 126.856 167.77 127.024 170.265C127.109 171.718 127.632 173.107 128.519 174.243C128.751 174.495 128.999 174.729 129.263 174.945C129.506 175.14 129.767 175.312 130.042 175.458C132.129 176.543 134.713 175.976 136.832 173.957C138.173 172.651 139.14 170.994 139.631 169.165C140.353 166.532 140.001 163.809 138.7 162.044C138.356 161.587 137.946 161.187 137.484 160.858L137.47 160.872Z" fill="white"/>
<path d="M153.26 105.489C152.207 106.725 151.478 108.214 151.141 109.815C150.943 110.703 150.954 111.625 151.172 112.508C151.39 113.391 151.809 114.208 152.395 114.894C153.238 115.82 154.333 116.466 155.54 116.749C158.74 117.562 162.674 116.36 165.59 113.703C165.837 113.481 166.503 112.805 166.681 112.59C167.734 111.376 168.473 109.911 168.83 108.331C169.035 107.49 169.055 106.613 168.888 105.763C168.722 104.913 168.373 104.111 167.866 103.415C167.616 103.101 167.341 102.808 167.045 102.539C165.898 101.622 164.5 101.09 163.045 101.018C162.628 100.994 162.211 100.994 161.794 101.018C159.06 101.241 156.475 102.381 154.442 104.261C154.162 104.513 153.46 105.218 153.253 105.474L153.26 105.489Z" fill="white"/>
<path d="M219.547 46.2444C219.745 46.4435 219.955 46.6305 220.178 46.8042C220.74 47.2548 221.391 47.5928 222.092 47.7982C222.388 47.8671 222.687 47.9198 222.989 47.9561C225.08 48.2001 227.433 47.4178 229.453 45.8317C230.231 45.2259 230.931 44.5346 231.54 43.7719C233.022 41.9276 233.879 39.6935 233.995 37.37C234.041 36.1873 233.784 35.0117 233.244 33.9466C232.837 33.138 232.218 32.4434 231.448 31.9298C230.678 31.4163 229.783 31.1011 228.848 31.0148C228.44 30.9951 228.03 30.9951 227.621 31.0148C225.354 31.3159 223.262 32.3447 221.687 33.9323C221.289 34.288 220.922 34.6745 220.591 35.0877C218.508 37.6535 217.588 40.8293 218.173 43.4848C218.381 44.5041 218.861 45.4548 219.566 46.2444H219.547Z" fill="white"/>
<path d="M245.635 66.2271C244.904 65.4355 244.007 64.8475 243.019 64.514C242.199 64.1978 241.337 64.028 240.466 64.0114C240.196 63.9962 239.925 63.9962 239.655 64.0114C237.644 64.1553 235.711 64.9116 234.081 66.1929C232.125 67.7728 231 69.9466 231 72.0786C230.998 73.3311 231.405 74.5441 232.149 75.505C232.195 75.5659 232.382 75.76 232.555 75.9428C232.789 76.2097 233.05 76.4472 233.334 76.6509C234.597 77.5234 236.065 77.9895 237.565 77.9948C238.317 78.0202 239.069 77.9525 239.807 77.793C241.548 77.4225 243.168 76.5653 244.507 75.307C244.846 74.9671 245.169 74.6074 245.473 74.2296C246.422 73.0516 246.962 71.5534 246.999 69.9923C247.009 69.4086 246.924 68.8275 246.749 68.2753C246.618 67.8242 246.429 67.3949 246.188 67C246.026 66.7264 245.838 66.4713 245.628 66.2386L245.635 66.2271Z" fill="white"/>
<path d="M202.652 46.2476C202.902 46.4998 203.171 46.7342 203.457 46.9489C203.707 47.1447 203.977 47.3155 204.263 47.4587C206.512 48.5432 209.293 47.9756 211.576 45.9584C213.028 44.6548 214.079 42.9986 214.615 41.1685C215.375 38.5367 214.995 35.8182 213.608 34.0504C213.249 33.5962 212.819 33.1975 212.332 32.8683C211.388 32.2487 210.255 31.9459 209.11 32.0079C208.368 32.0385 207.636 32.1876 206.945 32.449C206.315 32.7003 205.718 33.0219 205.167 33.407C204.804 33.6645 204.467 33.9537 204.16 34.271C203.812 34.5812 203.498 34.9239 203.222 35.294C201.635 37.3012 200.855 39.7824 201.022 42.2891C201.12 43.7459 201.695 45.1368 202.667 46.2657L202.652 46.2476Z" fill="white"/>
<path d="M232.246 49.4724C231.193 50.7103 230.464 52.201 230.129 53.8049C229.765 55.7519 230.172 57.5206 231.347 58.8916C232.206 59.8182 233.313 60.4647 234.53 60.7495C237.731 61.5632 241.664 60.3556 244.585 57.6952C244.829 57.476 245.498 56.7997 245.676 56.5805C246.733 55.3527 247.473 53.8751 247.83 52.2815C248.035 51.4445 248.055 50.5713 247.888 49.7254C247.721 48.8795 247.372 48.0823 246.866 47.3917C246.6 47.0732 246.309 46.7774 245.996 46.5073C244.861 45.5993 243.476 45.0758 242.035 45.0099C241.751 44.9876 241.093 45.0099 240.784 45.0099C238.047 45.2356 235.461 46.3771 233.424 48.2574C233.152 48.5138 232.446 49.216 232.235 49.4761L232.246 49.4724Z" fill="white"/>
<path d="M119.255 127.538C120.599 128.242 121.883 129.051 123.094 129.958C124.488 131.104 125.673 132.474 126.599 134.011C126.943 134.552 127.255 135.079 127.943 136.274C128.741 137.659 129.081 138.196 129.509 138.819C129.787 139.221 130.086 139.609 130.404 139.982C130.477 140.061 130.549 140.153 130.564 140.171C130.578 140.189 130.792 140.427 131.046 140.676C131.355 140.996 131.699 141.281 132.072 141.527C133.358 142.396 134.862 142.905 136.421 143C136.664 143 137.389 143 137.639 143C139.127 142.894 140.556 142.384 141.767 141.527C142.179 141.246 142.563 140.929 142.916 140.58C143.168 140.333 143.404 140.07 143.623 139.794C145.028 137.982 145.908 135.832 146.171 133.57C146.354 132.333 146.407 131.081 146.33 129.833C146.241 128.629 146.263 127.419 146.395 126.218C146.569 124.801 146.826 123.396 147.164 122.008C147.548 120.3 147.693 119.663 147.805 118.958C148.117 116.998 148.055 115.485 147.613 114.087C147.1 112.601 146.23 111.258 145.076 110.172C144.85 109.947 144.608 109.738 144.351 109.546C143.32 108.761 142.094 108.261 140.799 108.098C140.172 108.018 139.539 107.987 138.907 108.005C138.169 108.018 137.432 108.07 136.7 108.162C135.848 108.265 135.152 108.372 133.271 108.695C131.622 109.008 129.955 109.228 128.28 109.354C127.331 109.421 126.378 109.421 125.428 109.354C123.353 109.199 121.266 109.441 119.284 110.066C117.742 110.541 116.316 111.321 115.091 112.357C114.877 112.542 114.366 113.033 114.196 113.24C113.061 114.479 112.326 116.021 112.083 117.67C111.896 118.959 112.027 120.273 112.463 121.503C113.098 123.157 114.297 124.499 116.367 125.869C117.019 126.296 117.885 126.773 119.266 127.538H119.255Z" fill="white"/>
<path d="M140.528 102.242C140.736 102.446 140.958 102.636 141.193 102.813C141.757 103.262 142.411 103.595 143.116 103.793C143.4 103.865 143.688 103.919 143.98 103.955C146.072 104.199 148.461 103.448 150.482 101.861C151.25 101.243 151.94 100.54 152.536 99.7671C154.019 97.933 154.876 95.7077 154.993 93.3923C155.047 92.2 154.797 91.0131 154.264 89.9338C153.747 88.9197 152.896 88.0958 151.841 87.5885C151.21 87.2787 150.523 87.085 149.817 87.0175C149.42 86.9942 149.023 86.9942 148.626 87.0175C146.849 87.2206 145.169 87.9019 143.781 88.982C143.38 89.2709 143.003 89.5891 142.654 89.9338C142.269 90.2864 141.915 90.6684 141.594 91.0758C139.51 93.6437 138.59 96.8221 139.172 99.4798C139.363 100.498 139.83 101.451 140.528 102.242Z" fill="white"/>
<path d="M166.612 122.224C165.895 121.434 165.009 120.848 164.032 120.516C163.202 120.201 162.331 120.031 161.452 120.011C161.182 119.996 160.912 119.996 160.642 120.011C158.643 120.159 156.725 120.914 155.108 122.189C153.155 123.76 152 125.927 152 128.052C152.003 129.299 152.409 130.507 153.148 131.467C153.197 131.528 153.38 131.721 153.552 131.903C153.784 132.174 154.042 132.416 154.323 132.624C155.582 133.505 157.047 133.981 158.548 133.998C159.3 134.014 160.051 133.935 160.786 133.763C162.535 133.395 164.165 132.54 165.514 131.285C165.841 130.945 166.151 130.586 166.443 130.211C167.457 128.856 167.999 127.441 167.999 125.988C168.009 125.406 167.925 124.827 167.749 124.276C167.607 123.826 167.409 123.399 167.161 123.005C166.998 122.733 166.811 122.479 166.602 122.246L166.612 122.224Z" fill="white"/>
<path d="M11.2285 71.5327C12.5723 72.2382 13.8571 73.047 15.0708 73.9514C16.4755 75.0935 17.6697 76.4639 18.6015 78.0027C18.9639 78.5434 19.2575 79.0414 19.9463 80.2329C20.7474 81.6166 21.0555 82.1537 21.4832 82.7761C21.7768 83.203 22.1538 83.6725 22.4112 83.9713C22.4837 84.0495 22.5562 84.1384 22.5707 84.1598C22.5852 84.1811 22.7954 84.4159 23.0528 84.6613C23.3615 84.9787 23.7042 85.2625 24.075 85.5079C25.3614 86.3783 26.8652 86.8886 28.4248 86.984C28.8196 87.0053 29.2153 87.0053 29.6101 86.984C31.11 86.8808 32.551 86.3696 33.7715 85.5079C34.1752 85.2302 34.5503 84.9145 34.8916 84.5653C35.1437 84.3192 35.3797 84.0579 35.5984 83.7828C37.0126 81.9746 37.903 79.8252 38.1757 77.5617C38.3474 76.3242 38.3899 75.0728 38.3025 73.8269C38.2227 72.622 38.2542 71.4124 38.3968 70.2131C38.5707 68.796 38.8273 67.3899 39.1653 66.0017C39.5495 64.2943 39.6945 63.6577 39.8069 62.9569C40.115 60.9971 40.057 59.4854 39.6147 58.0875C39.1013 56.6023 38.231 55.2603 37.0773 54.1749C36.851 53.9486 36.6088 53.7382 36.3524 53.5453C35.3073 52.7628 34.071 52.2636 32.7674 52.0976C32.1511 52.0177 31.5292 51.9867 30.9078 52.0052C30.1697 52.0195 29.4329 52.0717 28.7003 52.1617C27.8485 52.2684 27.1525 52.3751 25.2748 52.6952C23.6242 53.0103 21.9564 53.2312 20.2798 53.3568C19.3313 53.4244 18.3791 53.4244 17.4306 53.3568C15.3489 53.1977 13.2556 53.4394 11.2684 54.0682C9.72726 54.5439 8.30136 55.3234 7.07804 56.3588C6.86417 56.5438 6.35307 57.0347 6.1827 57.2374C5.1676 58.337 4.47251 59.6841 4.17022 61.1378C3.86794 62.5915 3.96959 64.0982 4.46452 65.5001C5.09525 67.1506 6.27694 68.4631 8.36849 69.8325C9.00646 70.2629 9.8438 70.7715 11.214 71.5327H11.2285Z" fill="white"/>
<path d="M29.3304 104.872C28.3862 104.252 27.2528 103.948 26.1077 104.007C25.3706 104.041 24.6446 104.192 23.9606 104.456C23.3288 104.707 22.7315 105.03 22.182 105.419C21.8195 105.676 21.4824 105.965 21.175 106.28C20.8279 106.591 20.5135 106.932 20.2363 107.301C18.6454 109.296 17.8592 111.768 18.0207 114.269C18.1229 115.721 18.6981 117.106 19.6663 118.232C19.9164 118.491 20.1856 118.733 20.4719 118.956C20.7223 119.151 20.9921 119.322 21.2776 119.466C23.5273 120.552 26.3433 119.951 28.6235 117.932C30.0592 116.622 31.092 114.964 31.6105 113.136C32.3706 110.497 32.0095 107.808 30.6034 106.038C30.2456 105.584 29.8161 105.186 29.3304 104.858V104.872Z" fill="white"/>
<path d="M63.8684 119.24C63.6136 118.941 63.3342 118.663 63.0327 118.407C61.888 117.561 60.4985 117.075 59.0543 117.014C58.7745 116.994 58.1133 116.997 57.8045 117.014C55.0755 117.215 52.4923 118.275 50.458 120.03C50.1783 120.263 49.4807 120.956 49.2699 121.197C48.2173 122.357 47.4875 123.754 47.1481 125.257C46.9457 126.087 46.9508 126.952 47.1629 127.781C47.3751 128.609 47.7883 129.378 48.3689 130.024C49.2261 130.892 50.3322 131.498 51.548 131.765C54.7453 132.528 58.6764 131.396 61.594 128.903C61.8374 128.694 62.5023 128.032 62.6839 127.823C63.7372 126.685 64.4755 125.312 64.8312 123.829C65.0351 123.04 65.0545 122.217 64.8881 121.419C64.7217 120.621 64.3735 119.869 63.8684 119.215V119.24Z" fill="white"/>
<path d="M41.0812 125.26C40.854 125.028 40.6117 124.812 40.3561 124.613C39.3125 123.806 38.0749 123.294 36.7702 123.129C36.1559 123.035 35.535 122.992 34.9138 123.001C34.1736 123.023 33.4352 123.086 32.7021 123.191C31.85 123.301 31.1575 123.41 29.2794 123.739C27.625 124.067 25.9531 124.298 24.2722 124.43C23.3226 124.483 22.3705 124.472 21.4224 124.397C19.3416 124.229 17.2484 124.47 15.2586 125.106C13.7149 125.608 12.2888 126.421 11.0672 127.496C10.8533 127.686 10.3421 128.19 10.1717 128.399C9.15818 129.533 8.46567 130.921 8.16653 132.418C7.8674 133.915 7.97261 135.465 8.4712 136.906C9.1057 138.606 10.3022 139.954 12.3798 141.361C13.0215 141.8 13.8917 142.322 15.2586 143.108C16.5947 143.829 17.8693 144.66 19.0693 145.593C20.4706 146.768 21.6625 148.176 22.5935 149.755C22.938 150.311 23.2498 150.822 23.9387 152.047C24.7363 153.468 25.0445 154.02 25.4724 154.659C25.766 155.098 26.1431 155.58 26.4005 155.887L26.5601 156.081C26.5601 156.103 26.7849 156.344 27.0387 156.6C27.3487 156.926 27.6927 157.218 28.0648 157.47C29.3515 158.364 30.8557 158.888 32.4157 158.986C32.6586 159.005 33.3837 159.005 33.6303 158.986C35.6225 158.827 37.4896 157.944 38.884 156.501C39.1416 156.247 39.3838 155.977 39.6092 155.694C40.9616 153.998 41.8136 151.831 42.1726 149.302C42.3463 148.031 42.3888 146.745 42.2995 145.465C42.219 144.227 42.2517 142.984 42.3974 141.752C42.5675 140.297 42.8242 138.853 43.166 137.429C43.5467 135.675 43.6954 134.988 43.8042 134.268C44.116 132.25 44.058 130.73 43.612 129.294C43.0985 127.768 42.2279 126.389 41.074 125.274L41.0812 125.26Z" fill="white"/>
<path d="M63.1696 138.776C63.0074 138.522 62.8199 138.285 62.6101 138.069C61.8957 137.324 61.01 136.766 60.0308 136.446C59.1992 136.165 58.3288 136.017 57.4515 136.008C57.1735 136.008 56.892 135.99 56.6105 136.008C54.6118 136.146 52.6928 136.849 51.0754 138.037C49.1225 139.5 48 141.487 48 143.47C47.9994 144.633 48.4068 145.76 49.1507 146.651C49.1964 146.708 49.3829 146.92 49.5518 147.09C49.7866 147.337 50.0487 147.556 50.333 147.744C51.5934 148.556 53.0582 148.99 54.5555 148.995C55.3062 149.019 56.0571 148.956 56.7935 148.808C58.5316 148.463 60.1491 147.666 61.4841 146.496C61.8224 146.181 62.1442 145.848 62.4482 145.499C63.4039 144.396 63.9519 142.995 64 141.533C64.0007 140.989 63.9066 140.45 63.722 139.939C63.5943 139.529 63.407 139.141 63.166 138.786L63.1696 138.776Z" fill="white"/>
<path d="M48.5372 115.725C50.0208 113.892 50.878 111.666 50.9923 109.35C51.0486 108.157 50.7972 106.969 50.2603 105.891C49.8378 105.09 49.2084 104.406 48.4319 103.903C47.6553 103.4 46.7574 103.095 45.8232 103.017C45.4256 102.994 45.027 102.994 44.6295 103.017C42.8444 103.207 41.1521 103.877 39.7494 104.95C38.9647 105.595 38.2423 106.307 37.591 107.076C35.5076 109.644 34.5879 112.787 35.1735 115.448C35.3682 116.466 35.8366 117.418 36.5324 118.21C36.7293 118.423 36.9399 118.623 37.163 118.81C37.7424 119.249 38.4072 119.574 39.1188 119.766C39.4025 119.845 39.6908 119.908 39.9822 119.956C42.0731 120.2 44.4267 119.417 46.4463 117.83C47.2221 117.21 47.9211 116.508 48.5297 115.736L48.5372 115.725Z" fill="white"/>
<path d="M32.5472 46.2444C32.7449 46.4435 32.9555 46.6305 33.1778 46.8042C33.7399 47.2548 34.3908 47.5928 35.0921 47.7982C35.3878 47.8671 35.6873 47.9198 35.9892 47.9561C38.08 48.2001 40.4334 47.4178 42.4528 45.8317C43.2307 45.2259 43.9312 44.5346 44.5398 43.7719C46.0224 41.9276 46.8791 39.6935 46.9946 37.37C47.0415 36.1873 46.7837 35.0117 46.2439 33.9466C45.8366 33.138 45.2181 32.4434 44.4482 31.9298C43.6783 31.4163 42.7829 31.1011 41.8485 31.0148C41.4396 30.9951 41.03 30.9951 40.6211 31.0148C38.3542 31.3159 36.2617 32.3447 34.6868 33.9323C34.2889 34.288 33.9223 34.6745 33.5907 35.0877C31.5075 37.6535 30.5879 40.8293 31.1734 43.4848C31.3808 44.5041 31.8606 45.4548 32.566 46.2444H32.5472Z" fill="white"/>
<path d="M58.6348 66.2271C57.9044 65.4355 57.0066 64.8475 56.0188 64.514C55.1989 64.1978 54.3367 64.028 53.4663 64.0114C53.1961 63.9962 52.9255 63.9962 52.6554 64.0114C50.6438 64.1553 48.7112 64.9116 47.0814 66.1929C45.1247 67.7728 44 69.9466 44 72.0786C43.9984 73.3311 44.4053 74.5441 45.1493 75.505C45.1952 75.5659 45.382 75.76 45.5548 75.9428C45.789 76.2097 46.0504 76.4472 46.334 76.6509C47.5975 77.5234 49.0649 77.9895 50.5647 77.9948C51.3168 78.0202 52.0691 77.9525 52.807 77.793C54.5479 77.4225 56.1684 76.5653 57.5066 75.307C57.8465 74.9671 58.169 74.6074 58.4726 74.2296C59.422 73.0516 59.9618 71.5534 59.9992 69.9923C60.0091 69.4086 59.9244 68.8275 59.7489 68.2753C59.6178 67.8242 59.4291 67.3949 59.1883 67C59.0257 66.7264 58.8379 66.4713 58.6278 66.2386L58.6348 66.2271Z" fill="white"/>
<path d="M15.6521 46.2476C15.9022 46.4998 16.1713 46.7342 16.4575 46.9489C16.7068 47.1447 16.9767 47.3155 17.2628 47.4587C19.5118 48.5432 22.2927 47.9756 24.5759 45.9584C26.0282 44.6548 27.079 42.9986 27.615 41.1685C28.3748 38.5367 27.9949 35.8182 26.6083 34.0504C26.2493 33.5962 25.8187 33.1975 25.3318 32.8683C24.3884 32.2487 23.2548 31.9459 22.1103 32.0079C21.3677 32.0385 20.6357 32.1876 19.9449 32.449C19.3146 32.7003 18.7178 33.0219 18.167 33.407C17.8039 33.6645 17.4668 33.9537 17.1603 34.271C16.8122 34.5812 16.4979 34.9239 16.2219 35.294C14.6349 37.3012 13.8547 39.7824 14.0223 42.2891C14.1195 43.7459 14.6949 45.1368 15.6673 46.2657L15.6521 46.2476Z" fill="white"/>
<path d="M45.2459 49.4724C44.1926 50.7103 43.4641 52.201 43.1287 53.8049C42.765 55.7519 43.1724 57.5206 44.3474 58.8916C45.2056 59.8182 46.3131 60.4647 47.5303 60.7495C50.7315 61.5632 54.6638 60.3556 57.5849 57.6952C57.8286 57.476 58.4979 56.7997 58.6762 56.5805C59.7329 55.3527 60.4731 53.8751 60.8297 52.2815C61.035 51.4445 61.0549 50.5713 60.8882 49.7254C60.7214 48.8795 60.3721 48.0823 59.8657 47.3917C59.6 47.0732 59.3092 46.7774 58.9963 46.5073C57.8606 45.5993 56.4757 45.0758 55.0349 45.0099C54.7511 44.9876 54.0927 45.0099 53.7835 45.0099C51.0474 45.2356 48.4607 46.3771 46.4245 48.2574C46.1516 48.5138 45.4459 49.216 45.235 49.4761L45.2459 49.4724Z" fill="white"/>
<path d="M441.771 295.533C440.428 296.238 439.143 297.047 437.929 297.951C436.525 299.093 435.33 300.464 434.399 302.003C434.036 302.543 433.742 303.041 433.054 304.233C432.253 305.617 431.945 306.154 431.517 306.776C431.223 307.203 430.846 307.672 430.589 307.971C430.516 308.05 430.444 308.138 430.429 308.16C430.415 308.181 430.205 308.416 429.947 308.661C429.638 308.979 429.296 309.263 428.925 309.508C427.639 310.378 426.135 310.889 424.575 310.984C424.18 311.005 423.785 311.005 423.39 310.984C421.89 310.881 420.449 310.37 419.229 309.508C418.825 309.23 418.45 308.914 418.108 308.565C417.856 308.319 417.62 308.058 417.402 307.783C415.987 305.975 415.097 303.825 414.824 301.562C414.653 300.324 414.61 299.073 414.697 297.827C414.777 296.622 414.746 295.412 414.603 294.213C414.429 292.796 414.173 291.39 413.835 290.002C413.451 288.294 413.306 287.658 413.193 286.957C412.885 284.997 412.943 283.485 413.385 282.088C413.899 280.602 414.769 279.26 415.923 278.175C416.149 277.949 416.391 277.738 416.648 277.545C417.693 276.763 418.929 276.264 420.233 276.098C420.849 276.018 421.471 275.987 422.092 276.005C422.83 276.019 423.567 276.072 424.3 276.162C425.152 276.268 425.848 276.375 427.725 276.695C429.376 277.01 431.044 277.231 432.72 277.357C433.669 277.424 434.621 277.424 435.569 277.357C437.651 277.198 439.744 277.439 441.732 278.068C443.273 278.544 444.699 279.323 445.922 280.359C446.136 280.544 446.647 281.035 446.817 281.237C447.832 282.337 448.527 283.684 448.83 285.138C449.132 286.592 449.03 288.098 448.535 289.5C447.905 291.151 446.723 292.463 444.632 293.832C443.994 294.263 443.156 294.772 441.786 295.533H441.771Z" fill="white"/>
<path d="M423.67 328.872C424.614 328.252 425.747 327.948 426.892 328.007C427.629 328.041 428.355 328.192 429.039 328.456C429.671 328.707 430.269 329.03 430.818 329.419C431.18 329.676 431.518 329.965 431.825 330.28C432.172 330.591 432.486 330.932 432.764 331.301C434.355 333.296 435.141 335.768 434.979 338.269C434.877 339.721 434.302 341.106 433.334 342.232C433.084 342.491 432.814 342.733 432.528 342.956C432.278 343.151 432.008 343.322 431.722 343.466C429.473 344.552 426.657 343.951 424.376 341.932C422.941 340.622 421.908 338.964 421.389 337.136C420.629 334.497 420.99 331.808 422.397 330.038C422.754 329.584 423.184 329.186 423.67 328.858V328.872Z" fill="white"/>
<path d="M389.132 343.24C389.386 342.941 389.666 342.663 389.967 342.407C391.112 341.561 392.501 341.075 393.946 341.014C394.225 340.994 394.887 340.997 395.196 341.014C397.925 341.215 400.508 342.275 402.542 344.03C402.822 344.263 403.519 344.956 403.73 345.197C404.783 346.357 405.513 347.754 405.852 349.257C406.054 350.087 406.049 350.952 405.837 351.781C405.625 352.609 405.212 353.378 404.631 354.024C403.774 354.892 402.668 355.498 401.452 355.765C398.255 356.528 394.324 355.396 391.406 352.903C391.163 352.694 390.498 352.032 390.316 351.823C389.263 350.685 388.525 349.312 388.169 347.829C387.965 347.04 387.945 346.217 388.112 345.419C388.278 344.621 388.627 343.869 389.132 343.215V343.24Z" fill="white"/>
<path d="M411.919 349.26C412.146 349.028 412.388 348.812 412.644 348.613C413.688 347.806 414.925 347.294 416.23 347.129C416.844 347.035 417.465 346.992 418.086 347.001C418.826 347.023 419.565 347.086 420.298 347.191C421.15 347.301 421.842 347.41 423.721 347.739C425.375 348.067 427.047 348.298 428.728 348.43C429.677 348.483 430.629 348.472 431.578 348.397C433.658 348.229 435.752 348.47 437.741 349.106C439.285 349.608 440.711 350.421 441.933 351.496C442.147 351.686 442.658 352.19 442.828 352.399C443.842 353.533 444.534 354.921 444.833 356.418C445.133 357.915 445.027 359.465 444.529 360.906C443.894 362.606 442.698 363.954 440.62 365.361C439.978 365.8 439.108 366.322 437.741 367.108C436.405 367.829 435.131 368.66 433.931 369.593C432.529 370.768 431.338 372.176 430.406 373.755C430.062 374.311 429.75 374.822 429.061 376.047C428.264 377.468 427.955 378.02 427.528 378.659C427.234 379.098 426.857 379.58 426.599 379.887L426.44 380.081C426.44 380.103 426.215 380.344 425.961 380.6C425.651 380.926 425.307 381.218 424.935 381.47C423.648 382.364 422.144 382.888 420.584 382.986C420.341 383.005 419.616 383.005 419.37 382.986C417.377 382.827 415.51 381.944 414.116 380.501C413.858 380.247 413.616 379.977 413.391 379.694C412.038 377.998 411.186 375.831 410.827 373.302C410.654 372.031 410.611 370.745 410.701 369.465C410.781 368.227 410.748 366.984 410.603 365.752C410.433 364.297 410.176 362.853 409.834 361.429C409.453 359.675 409.305 358.988 409.196 358.268C408.884 356.25 408.942 354.73 409.388 353.294C409.902 351.768 410.772 350.389 411.926 349.274L411.919 349.26Z" fill="white"/>
<path d="M389.83 362.776C389.993 362.522 390.18 362.285 390.39 362.069C391.104 361.324 391.99 360.766 392.969 360.446C393.801 360.165 394.671 360.017 395.548 360.008C395.826 360.008 396.108 359.99 396.389 360.008C398.388 360.146 400.307 360.849 401.925 362.037C403.877 363.5 405 365.487 405 367.47C405.001 368.633 404.593 369.76 403.849 370.651C403.804 370.708 403.617 370.92 403.448 371.09C403.213 371.337 402.951 371.556 402.667 371.744C401.407 372.556 399.942 372.99 398.444 372.995C397.694 373.019 396.943 372.956 396.207 372.808C394.468 372.463 392.851 371.666 391.516 370.496C391.178 370.181 390.856 369.848 390.552 369.499C389.596 368.396 389.048 366.995 389 365.533C388.999 364.989 389.093 364.45 389.278 363.939C389.406 363.529 389.593 363.141 389.834 362.786L389.83 362.776Z" fill="white"/>
<path d="M404.463 339.725C402.979 337.892 402.122 335.666 402.008 333.35C401.951 332.157 402.203 330.969 402.74 329.891C403.162 329.09 403.792 328.406 404.568 327.903C405.345 327.4 406.243 327.095 407.177 327.017C407.574 326.994 407.973 326.994 408.371 327.017C410.156 327.207 411.848 327.877 413.251 328.95C414.035 329.595 414.758 330.307 415.409 331.076C417.492 333.644 418.412 336.787 417.827 339.448C417.632 340.466 417.163 341.418 416.468 342.21C416.271 342.423 416.06 342.623 415.837 342.81C415.258 343.249 414.593 343.574 413.881 343.766C413.597 343.845 413.309 343.908 413.018 343.956C410.927 344.2 408.573 343.417 406.554 341.83C405.778 341.21 405.079 340.508 404.47 339.736L404.463 339.725Z" fill="white"/>
<path d="M420.453 270.244C420.255 270.444 420.045 270.631 419.822 270.804C419.26 271.255 418.609 271.593 417.908 271.798C417.612 271.867 417.313 271.92 417.011 271.956C414.92 272.2 412.567 271.418 410.547 269.832C409.769 269.226 409.069 268.535 408.46 267.772C406.978 265.928 406.121 263.694 406.005 261.37C405.959 260.187 406.216 259.012 406.756 257.947C407.163 257.138 407.782 256.443 408.552 255.93C409.322 255.416 410.217 255.101 411.152 255.015C411.56 254.995 411.97 254.995 412.379 255.015C414.646 255.316 416.738 256.345 418.313 257.932C418.711 258.288 419.078 258.674 419.409 259.088C421.492 261.654 422.412 264.829 421.827 267.485C421.619 268.504 421.139 269.455 420.434 270.244H420.453Z" fill="white"/>
<path d="M394.365 290.227C395.096 289.435 395.993 288.847 396.981 288.514C397.801 288.198 398.663 288.028 399.534 288.011C399.804 287.996 400.075 287.996 400.345 288.011C402.356 288.155 404.289 288.912 405.919 290.193C407.875 291.773 409 293.947 409 296.079C409.002 297.331 408.595 298.544 407.851 299.505C407.805 299.566 407.618 299.76 407.445 299.943C407.211 300.21 406.95 300.447 406.666 300.651C405.403 301.523 403.935 301.99 402.435 301.995C401.683 302.02 400.931 301.953 400.193 301.793C398.452 301.422 396.832 300.565 395.493 299.307C395.154 298.967 394.831 298.607 394.527 298.23C393.578 297.052 393.038 295.553 393.001 293.992C392.991 293.409 393.076 292.828 393.251 292.275C393.382 291.824 393.571 291.395 393.812 291C393.974 290.726 394.162 290.471 394.372 290.239L394.365 290.227Z" fill="white"/>
<path d="M437.348 270.248C437.098 270.5 436.829 270.734 436.543 270.949C436.293 271.145 436.023 271.316 435.737 271.459C433.488 272.543 430.707 271.976 428.424 269.958C426.972 268.655 425.921 266.999 425.385 265.168C424.625 262.537 425.005 259.818 426.392 258.05C426.751 257.596 427.181 257.197 427.668 256.868C428.612 256.249 429.745 255.946 430.89 256.008C431.632 256.039 432.364 256.188 433.055 256.449C433.685 256.7 434.282 257.022 434.833 257.407C435.196 257.664 435.533 257.954 435.84 258.271C436.188 258.581 436.502 258.924 436.778 259.294C438.365 261.301 439.145 263.782 438.978 266.289C438.88 267.746 438.305 269.137 437.333 270.266L437.348 270.248Z" fill="white"/>
<path d="M407.754 273.472C408.807 274.71 409.536 276.201 409.871 277.805C410.235 279.752 409.828 281.521 408.653 282.892C407.794 283.818 406.687 284.465 405.47 284.749C402.269 285.563 398.336 284.356 395.415 281.695C395.171 281.476 394.502 280.8 394.324 280.58C393.267 279.353 392.527 277.875 392.17 276.281C391.965 275.444 391.945 274.571 392.112 273.725C392.279 272.88 392.628 272.082 393.134 271.392C393.4 271.073 393.691 270.777 394.004 270.507C395.139 269.599 396.524 269.076 397.965 269.01C398.249 268.988 398.907 269.01 399.216 269.01C401.953 269.236 404.539 270.377 406.576 272.257C406.848 272.514 407.554 273.216 407.765 273.476L407.754 273.472Z" fill="white"/>
<path d="M386.229 71.5327C387.572 72.2382 388.857 73.047 390.071 73.9514C391.475 75.0935 392.67 76.4639 393.601 78.0027C393.964 78.5434 394.258 79.0414 394.946 80.2329C395.747 81.6166 396.055 82.1537 396.483 82.7761C396.777 83.203 397.154 83.6725 397.411 83.9713C397.484 84.0495 397.556 84.1384 397.571 84.1598C397.585 84.1811 397.795 84.4159 398.053 84.6613C398.362 84.9787 398.704 85.2625 399.075 85.5079C400.361 86.3783 401.865 86.8886 403.425 86.984C403.82 87.0053 404.215 87.0053 404.61 86.984C406.11 86.8808 407.551 86.3696 408.771 85.5079C409.175 85.2302 409.55 84.9145 409.892 84.5653C410.144 84.3192 410.38 84.0579 410.598 83.7828C412.013 81.9746 412.903 79.8252 413.176 77.5617C413.347 76.3242 413.39 75.0728 413.303 73.8269C413.223 72.622 413.254 71.4124 413.397 70.2131C413.571 68.796 413.827 67.3899 414.165 66.0017C414.549 64.2943 414.694 63.6577 414.807 62.9569C415.115 60.9971 415.057 59.4854 414.615 58.0875C414.101 56.6023 413.231 55.2603 412.077 54.1749C411.851 53.9486 411.609 53.7382 411.352 53.5453C410.307 52.7628 409.071 52.2636 407.767 52.0976C407.151 52.0177 406.529 51.9867 405.908 52.0052C405.17 52.0195 404.433 52.0717 403.7 52.1617C402.848 52.2684 402.152 52.3751 400.275 52.6952C398.624 53.0103 396.956 53.2312 395.28 53.3568C394.331 53.4244 393.379 53.4244 392.431 53.3568C390.349 53.1977 388.256 53.4394 386.268 54.0682C384.727 54.5439 383.301 55.3234 382.078 56.3588C381.864 56.5438 381.353 57.0347 381.183 57.2374C380.168 58.337 379.473 59.6841 379.17 61.1378C378.868 62.5915 378.97 64.0982 379.465 65.5001C380.095 67.1506 381.277 68.4631 383.368 69.8325C384.006 70.2629 384.844 70.7715 386.214 71.5327H386.229Z" fill="white"/>
<path d="M359.925 174.424C358.719 173.57 357.251 173.075 355.722 173.009C355.427 172.988 354.728 173.009 354.402 173.009C351.514 173.219 348.783 174.291 346.637 176.057C346.345 176.291 345.604 176.952 345.382 177.193C344.272 178.354 343.503 179.751 343.148 181.254C342.94 182.087 342.951 182.953 343.181 183.782C343.41 184.61 343.851 185.378 344.468 186.023C345.358 186.892 346.515 187.499 347.788 187.765C351.17 188.528 355.319 187.399 358.398 184.905C358.659 184.696 359.361 184.062 359.549 183.86C360.663 182.71 361.444 181.326 361.821 179.833C362.037 179.048 362.058 178.23 361.882 177.437C361.706 176.644 361.338 175.897 360.804 175.249C360.537 174.95 360.243 174.671 359.925 174.417V174.424Z" fill="white"/>
<path d="M338.011 181.232C336.818 180.068 335.268 179.321 333.6 179.103C332.967 179.02 332.327 178.987 331.688 179.005C330.918 179.019 330.148 179.073 329.384 179.166C328.508 179.272 327.792 179.381 325.861 179.714C324.163 180.036 322.447 180.264 320.723 180.394C319.747 180.457 318.768 180.457 317.793 180.394C315.653 180.223 313.5 180.464 311.455 181.104C309.868 181.593 308.401 182.395 307.141 183.459C306.921 183.649 306.395 184.154 306.22 184.363C305.183 185.503 304.475 186.895 304.17 188.394C303.864 189.892 303.972 191.444 304.483 192.888C305.135 194.589 306.347 195.938 308.465 197.35C309.124 197.785 310.023 198.308 311.447 199.094C312.829 199.816 314.15 200.647 315.395 201.578C316.823 202.757 318.037 204.166 318.986 205.743C319.34 206.299 319.66 206.811 320.369 208.04C321.189 209.463 321.54 210.011 321.979 210.655C322.281 211.094 322.636 211.573 322.9 211.88C322.975 211.964 323.049 212.056 323.064 212.078C323.079 212.1 323.299 212.337 323.557 212.593C323.875 212.921 324.229 213.214 324.612 213.468C325.935 214.367 327.483 214.897 329.089 215C329.347 215 330.088 215 330.342 215C331.874 214.893 333.345 214.367 334.588 213.482C335.015 213.197 335.412 212.873 335.774 212.513C336.033 212.26 336.275 211.99 336.497 211.705C337.957 209.842 338.876 207.627 339.156 205.293C339.334 204.021 339.379 202.734 339.29 201.453C339.194 200.217 339.217 198.974 339.357 197.741C339.533 196.288 339.794 194.846 340.14 193.422C340.535 191.666 340.684 191.012 340.8 190.288C341.12 188.272 341.057 186.718 340.602 185.284C340.09 183.749 339.2 182.361 338.011 181.243V181.232Z" fill="white"/>
<path d="M344.691 171.762C346.08 169.916 346.883 167.681 346.993 165.357C347.044 164.176 346.808 163.001 346.307 161.935C345.823 160.912 345.028 160.077 344.039 159.555C343.445 159.258 342.802 159.075 342.142 159.016C341.769 158.995 341.395 158.995 341.022 159.016C339.357 159.224 337.784 159.909 336.484 160.991C336.105 161.275 335.752 161.594 335.428 161.942C335.066 162.295 334.733 162.677 334.432 163.084C332.478 165.651 331.615 168.828 332.161 171.485C332.347 172.491 332.786 173.43 333.435 174.21C333.631 174.424 333.839 174.625 334.059 174.813C334.589 175.253 335.203 175.576 335.861 175.765C336.127 175.846 336.397 175.91 336.671 175.955C338.632 176.203 340.871 175.417 342.765 173.833C343.483 173.223 344.129 172.531 344.691 171.769V171.762Z" fill="white"/>
<path d="M360.092 194.781C359.921 194.526 359.722 194.289 359.498 194.074C358.739 193.337 357.799 192.789 356.762 192.479C355.882 192.188 354.958 192.031 354.026 192.012C353.729 191.996 353.431 191.996 353.134 192.012C351.024 192.148 348.998 192.853 347.296 194.042C345.224 195.506 344 197.494 344 199.474C344.001 200.649 344.433 201.786 345.221 202.693C345.269 202.749 345.467 202.93 345.65 203.096C345.906 203.339 346.19 203.554 346.497 203.736C347.831 204.556 349.386 204.994 350.977 204.995C351.773 205.019 352.57 204.955 353.351 204.804C355.204 204.461 356.931 203.665 358.36 202.495C358.709 202.179 359.039 201.845 359.349 201.494C360.365 200.392 360.948 198.991 360.999 197.529C361.02 196.547 360.709 195.584 360.111 194.781H360.092Z" fill="white"/>
<path d="M404.33 104.872C403.386 104.252 402.253 103.948 401.108 104.007C400.371 104.041 399.645 104.192 398.961 104.456C398.329 104.707 397.731 105.03 397.182 105.419C396.82 105.676 396.482 105.965 396.175 106.28C395.828 106.591 395.514 106.932 395.236 107.301C393.645 109.296 392.859 111.768 393.021 114.269C393.123 115.721 393.698 117.106 394.666 118.232C394.916 118.491 395.186 118.733 395.472 118.956C395.722 119.151 395.992 119.322 396.278 119.466C398.527 120.552 401.343 119.951 403.624 117.932C405.059 116.622 406.092 114.964 406.611 113.136C407.371 110.497 407.01 107.808 405.603 106.038C405.246 105.584 404.816 105.186 404.33 104.858V104.872Z" fill="white"/>
<path d="M438.868 119.24C438.614 118.941 438.334 118.663 438.033 118.407C436.888 117.561 435.499 117.075 434.054 117.014C433.775 116.994 433.113 116.997 432.804 117.014C430.075 117.215 427.492 118.275 425.458 120.03C425.178 120.263 424.481 120.956 424.27 121.197C423.217 122.357 422.487 123.754 422.148 125.257C421.946 126.087 421.951 126.952 422.163 127.781C422.375 128.609 422.788 129.378 423.369 130.024C424.226 130.892 425.332 131.498 426.548 131.765C429.745 132.528 433.676 131.396 436.594 128.903C436.837 128.694 437.502 128.032 437.684 127.823C438.737 126.685 439.475 125.312 439.831 123.829C440.035 123.04 440.055 122.217 439.888 121.419C439.722 120.621 439.373 119.869 438.868 119.215V119.24Z" fill="white"/>
<path d="M416.081 125.26C415.854 125.028 415.612 124.812 415.356 124.613C414.312 123.806 413.075 123.294 411.77 123.129C411.156 123.035 410.535 122.992 409.914 123.001C409.174 123.023 408.435 123.086 407.702 123.191C406.85 123.301 406.158 123.41 404.279 123.739C402.625 124.067 400.953 124.298 399.272 124.43C398.323 124.483 397.371 124.472 396.422 124.397C394.342 124.229 392.248 124.47 390.259 125.106C388.715 125.608 387.289 126.421 386.067 127.496C385.853 127.686 385.342 128.19 385.172 128.399C384.158 129.533 383.466 130.921 383.167 132.418C382.867 133.915 382.973 135.465 383.471 136.906C384.106 138.606 385.302 139.954 387.38 141.361C388.022 141.8 388.892 142.322 390.259 143.108C391.595 143.829 392.869 144.66 394.069 145.593C395.471 146.768 396.662 148.176 397.594 149.755C397.938 150.311 398.25 150.822 398.939 152.047C399.736 153.468 400.045 154.02 400.472 154.659C400.766 155.098 401.143 155.58 401.401 155.887L401.56 156.081C401.56 156.103 401.785 156.344 402.039 156.6C402.349 156.926 402.693 157.218 403.065 157.47C404.352 158.364 405.856 158.888 407.416 158.986C407.659 159.005 408.384 159.005 408.63 158.986C410.623 158.827 412.49 157.944 413.884 156.501C414.142 156.247 414.384 155.977 414.609 155.694C415.962 153.998 416.814 151.831 417.173 149.302C417.346 148.031 417.389 146.745 417.299 145.465C417.219 144.227 417.252 142.984 417.397 141.752C417.567 140.297 417.824 138.853 418.166 137.429C418.547 135.675 418.695 134.988 418.804 134.268C419.116 132.25 419.058 130.73 418.612 129.294C418.098 127.768 417.228 126.389 416.074 125.274L416.081 125.26Z" fill="white"/>
<path d="M438.17 138.776C438.007 138.522 437.82 138.285 437.61 138.069C436.896 137.324 436.01 136.766 435.031 136.446C434.199 136.165 433.329 136.017 432.452 136.008C432.174 136.008 431.892 135.99 431.611 136.008C429.612 136.146 427.693 136.849 426.075 138.037C424.123 139.5 423 141.487 423 143.47C422.999 144.633 423.407 145.76 424.151 146.651C424.196 146.708 424.383 146.92 424.552 147.09C424.787 147.337 425.049 147.556 425.333 147.744C426.593 148.556 428.058 148.99 429.556 148.995C430.306 149.019 431.057 148.956 431.793 148.808C433.532 148.463 435.149 147.666 436.484 146.496C436.822 146.181 437.144 145.848 437.448 145.499C438.404 144.396 438.952 142.995 439 141.533C439.001 140.989 438.907 140.45 438.722 139.939C438.594 139.529 438.407 139.141 438.166 138.786L438.17 138.776Z" fill="white"/>
<path d="M423.537 115.725C425.021 113.892 425.878 111.666 425.992 109.35C426.049 108.157 425.797 106.969 425.26 105.891C424.838 105.09 424.208 104.406 423.432 103.903C422.655 103.4 421.757 103.095 420.823 103.017C420.426 102.994 420.027 102.994 419.629 103.017C417.844 103.207 416.152 103.877 414.749 104.95C413.965 105.595 413.242 106.307 412.591 107.076C410.508 109.644 409.588 112.787 410.173 115.448C410.368 116.466 410.837 117.418 411.532 118.21C411.729 118.423 411.94 118.623 412.163 118.81C412.742 119.249 413.407 119.574 414.119 119.766C414.403 119.845 414.691 119.908 414.982 119.956C417.073 120.2 419.427 119.417 421.446 117.83C422.222 117.21 422.921 116.508 423.53 115.736L423.537 115.725Z" fill="white"/>
<path d="M311.633 102.247C311.882 102.5 312.151 102.734 312.439 102.948C312.697 103.146 312.978 103.317 313.275 103.458C315.525 104.542 318.312 103.978 320.596 101.958C322.042 100.652 323.086 98.9961 323.615 97.1679C324.375 94.5362 323.995 91.8142 322.611 90.0501C322.241 89.594 321.798 89.1953 321.3 88.868C320.355 88.2494 319.221 87.9468 318.076 88.0077C317.339 88.0382 316.612 88.1886 315.928 88.4523C315.297 88.7155 314.7 89.0479 314.149 89.4428C313.786 89.6886 313.449 89.967 313.142 90.2742C312.796 90.5862 312.481 90.9288 312.203 91.2973C310.621 93.3048 309.848 95.7853 310.025 98.2885C310.113 99.7353 310.675 101.119 311.633 102.247Z" fill="white"/>
<path d="M325.47 160.872C324.595 160.251 323.543 159.947 322.48 160.008C321.796 160.041 321.123 160.193 320.488 160.456C319.913 160.707 319.37 161.029 318.87 161.415C318.179 161.955 317.561 162.589 317.034 163.299C315.57 165.298 314.856 167.77 315.024 170.265C315.109 171.718 315.632 173.107 316.519 174.243C316.751 174.495 316.999 174.729 317.263 174.945C317.506 175.14 317.767 175.312 318.042 175.458C320.129 176.543 322.713 175.976 324.832 173.957C326.173 172.651 327.14 170.994 327.631 169.165C328.353 166.532 328.001 163.809 326.7 162.044C326.356 161.587 325.946 161.187 325.484 160.858L325.47 160.872Z" fill="white"/>
<path d="M341.26 105.489C340.207 106.725 339.478 108.214 339.141 109.815C338.943 110.703 338.954 111.625 339.172 112.508C339.39 113.391 339.809 114.208 340.395 114.894C341.238 115.82 342.333 116.466 343.54 116.749C346.74 117.562 350.674 116.36 353.59 113.703C353.837 113.481 354.503 112.805 354.681 112.59C355.734 111.376 356.473 109.911 356.83 108.331C357.035 107.49 357.055 106.613 356.888 105.763C356.722 104.913 356.373 104.111 355.866 103.415C355.616 103.101 355.341 102.808 355.045 102.539C353.898 101.622 352.5 101.09 351.045 101.018C350.628 100.994 350.211 100.994 349.794 101.018C347.06 101.241 344.475 102.381 342.442 104.261C342.162 104.513 341.46 105.218 341.253 105.474L341.26 105.489Z" fill="white"/>
<path d="M407.547 46.2444C407.745 46.4435 407.955 46.6305 408.178 46.8042C408.74 47.2548 409.391 47.5928 410.092 47.7982C410.388 47.8671 410.687 47.9198 410.989 47.9561C413.08 48.2001 415.433 47.4178 417.453 45.8317C418.231 45.2259 418.931 44.5346 419.54 43.7719C421.022 41.9276 421.879 39.6935 421.995 37.37C422.041 36.1873 421.784 35.0117 421.244 33.9466C420.837 33.138 420.218 32.4434 419.448 31.9298C418.678 31.4163 417.783 31.1011 416.848 31.0148C416.44 30.9951 416.03 30.9951 415.621 31.0148C413.354 31.3159 411.262 32.3447 409.687 33.9323C409.289 34.288 408.922 34.6745 408.591 35.0877C406.508 37.6535 405.588 40.8293 406.173 43.4848C406.381 44.5041 406.861 45.4548 407.566 46.2444H407.547Z" fill="white"/>
<path d="M433.635 66.2271C432.904 65.4355 432.007 64.8475 431.019 64.514C430.199 64.1978 429.337 64.028 428.466 64.0114C428.196 63.9962 427.925 63.9962 427.655 64.0114C425.644 64.1553 423.711 64.9116 422.081 66.1929C420.125 67.7728 419 69.9466 419 72.0786C418.998 73.3311 419.405 74.5441 420.149 75.505C420.195 75.5659 420.382 75.76 420.555 75.9428C420.789 76.2097 421.05 76.4472 421.334 76.6509C422.597 77.5234 424.065 77.9895 425.565 77.9948C426.317 78.0202 427.069 77.9525 427.807 77.793C429.548 77.4225 431.168 76.5653 432.507 75.307C432.846 74.9671 433.169 74.6074 433.473 74.2296C434.422 73.0516 434.962 71.5534 434.999 69.9923C435.009 69.4086 434.924 68.8275 434.749 68.2753C434.618 67.8242 434.429 67.3949 434.188 67C434.026 66.7264 433.838 66.4713 433.628 66.2386L433.635 66.2271Z" fill="white"/>
<path d="M390.652 46.2476C390.902 46.4998 391.171 46.7342 391.457 46.9489C391.707 47.1447 391.977 47.3155 392.263 47.4587C394.512 48.5432 397.293 47.9756 399.576 45.9584C401.028 44.6548 402.079 42.9986 402.615 41.1685C403.375 38.5367 402.995 35.8182 401.608 34.0504C401.249 33.5962 400.819 33.1975 400.332 32.8683C399.388 32.2487 398.255 31.9459 397.11 32.0079C396.368 32.0385 395.636 32.1876 394.945 32.449C394.315 32.7003 393.718 33.0219 393.167 33.407C392.804 33.6645 392.467 33.9537 392.16 34.271C391.812 34.5812 391.498 34.9239 391.222 35.294C389.635 37.3012 388.855 39.7824 389.022 42.2891C389.12 43.7459 389.695 45.1368 390.667 46.2657L390.652 46.2476Z" fill="white"/>
<path d="M420.246 49.4724C419.193 50.7103 418.464 52.201 418.129 53.8049C417.765 55.7519 418.172 57.5206 419.347 58.8916C420.206 59.8182 421.313 60.4647 422.53 60.7495C425.731 61.5632 429.664 60.3556 432.585 57.6952C432.829 57.476 433.498 56.7997 433.676 56.5805C434.733 55.3527 435.473 53.8751 435.83 52.2815C436.035 51.4445 436.055 50.5713 435.888 49.7254C435.721 48.8795 435.372 48.0823 434.866 47.3917C434.6 47.0732 434.309 46.7774 433.996 46.5073C432.861 45.5993 431.476 45.0758 430.035 45.0099C429.751 44.9876 429.093 45.0099 428.784 45.0099C426.047 45.2356 423.461 46.3771 421.424 48.2574C421.152 48.5138 420.446 49.216 420.235 49.4761L420.246 49.4724Z" fill="white"/>
<path d="M307.255 127.538C308.599 128.242 309.883 129.051 311.094 129.958C312.488 131.104 313.673 132.474 314.599 134.011C314.943 134.552 315.255 135.079 315.943 136.274C316.741 137.659 317.081 138.196 317.509 138.819C317.787 139.221 318.086 139.609 318.404 139.982C318.477 140.061 318.549 140.153 318.564 140.171C318.578 140.189 318.792 140.427 319.046 140.676C319.355 140.996 319.699 141.281 320.072 141.527C321.358 142.396 322.862 142.905 324.421 143C324.664 143 325.389 143 325.639 143C327.127 142.894 328.556 142.384 329.767 141.527C330.179 141.246 330.563 140.929 330.916 140.58C331.168 140.333 331.404 140.07 331.623 139.794C333.028 137.982 333.908 135.832 334.171 133.57C334.354 132.333 334.407 131.081 334.33 129.833C334.241 128.629 334.263 127.419 334.395 126.218C334.569 124.801 334.826 123.396 335.164 122.008C335.548 120.3 335.693 119.663 335.805 118.958C336.117 116.998 336.055 115.485 335.613 114.087C335.1 112.601 334.23 111.258 333.076 110.172C332.85 109.947 332.608 109.738 332.351 109.546C331.32 108.761 330.094 108.261 328.799 108.098C328.172 108.018 327.539 107.987 326.907 108.005C326.169 108.018 325.432 108.07 324.7 108.162C323.848 108.265 323.152 108.372 321.271 108.695C319.622 109.008 317.955 109.228 316.28 109.354C315.331 109.421 314.378 109.421 313.428 109.354C311.353 109.199 309.266 109.441 307.284 110.066C305.742 110.541 304.316 111.321 303.091 112.357C302.877 112.542 302.366 113.033 302.196 113.24C301.061 114.479 300.326 116.021 300.083 117.67C299.896 118.959 300.027 120.273 300.463 121.503C301.098 123.157 302.297 124.499 304.367 125.869C305.019 126.296 305.885 126.773 307.266 127.538H307.255Z" fill="white"/>
<path d="M328.528 102.242C328.736 102.446 328.958 102.636 329.193 102.813C329.757 103.262 330.411 103.595 331.116 103.793C331.4 103.865 331.688 103.919 331.98 103.955C334.072 104.199 336.461 103.448 338.482 101.861C339.25 101.243 339.94 100.54 340.536 99.7671C342.019 97.933 342.876 95.7077 342.993 93.3923C343.047 92.2 342.797 91.0131 342.264 89.9338C341.747 88.9197 340.896 88.0958 339.841 87.5885C339.21 87.2787 338.523 87.085 337.817 87.0175C337.42 86.9942 337.023 86.9942 336.626 87.0175C334.849 87.2206 333.169 87.9019 331.781 88.982C331.38 89.2709 331.003 89.5891 330.654 89.9338C330.269 90.2864 329.915 90.6684 329.594 91.0758C327.51 93.6437 326.59 96.8221 327.172 99.4798C327.363 100.498 327.83 101.451 328.528 102.242Z" fill="white"/>
<path d="M354.612 122.224C353.895 121.434 353.009 120.848 352.032 120.516C351.202 120.201 350.331 120.031 349.452 120.011C349.182 119.996 348.912 119.996 348.642 120.011C346.643 120.159 344.725 120.914 343.108 122.189C341.155 123.76 340 125.927 340 128.052C340.003 129.299 340.409 130.507 341.148 131.467C341.197 131.528 341.38 131.721 341.552 131.903C341.784 132.174 342.042 132.416 342.323 132.624C343.582 133.505 345.047 133.981 346.548 133.998C347.3 134.014 348.051 133.935 348.786 133.763C350.535 133.395 352.165 132.54 353.514 131.285C353.841 130.945 354.151 130.586 354.443 130.211C355.457 128.856 355.999 127.441 355.999 125.988C356.009 125.406 355.925 124.827 355.749 124.276C355.607 123.826 355.409 123.399 355.161 123.005C354.998 122.733 354.811 122.479 354.602 122.246L354.612 122.224Z" fill="white"/>
<path d="M242.771 295.533C241.428 296.238 240.143 297.047 238.929 297.951C237.525 299.093 236.33 300.464 235.399 302.003C235.036 302.543 234.742 303.041 234.054 304.233C233.253 305.617 232.945 306.154 232.517 306.776C232.223 307.203 231.846 307.672 231.589 307.971C231.516 308.05 231.444 308.138 231.429 308.16C231.415 308.181 231.205 308.416 230.947 308.661C230.638 308.979 230.296 309.263 229.925 309.508C228.639 310.378 227.135 310.889 225.575 310.984C225.18 311.005 224.785 311.005 224.39 310.984C222.89 310.881 221.449 310.37 220.229 309.508C219.825 309.23 219.45 308.914 219.108 308.565C218.856 308.319 218.62 308.058 218.402 307.783C216.987 305.975 216.097 303.825 215.824 301.562C215.653 300.324 215.61 299.073 215.697 297.827C215.777 296.622 215.746 295.412 215.603 294.213C215.429 292.796 215.173 291.39 214.835 290.002C214.451 288.294 214.306 287.658 214.193 286.957C213.885 284.997 213.943 283.485 214.385 282.088C214.899 280.602 215.769 279.26 216.923 278.175C217.149 277.949 217.391 277.738 217.648 277.545C218.693 276.763 219.929 276.264 221.233 276.098C221.849 276.018 222.471 275.987 223.092 276.005C223.83 276.019 224.567 276.072 225.3 276.162C226.152 276.268 226.848 276.375 228.725 276.695C230.376 277.01 232.044 277.231 233.72 277.357C234.669 277.424 235.621 277.424 236.569 277.357C238.651 277.198 240.744 277.439 242.732 278.068C244.273 278.544 245.699 279.323 246.922 280.359C247.136 280.544 247.647 281.035 247.817 281.237C248.832 282.337 249.527 283.684 249.83 285.138C250.132 286.592 250.03 288.098 249.535 289.5C248.905 291.151 247.723 292.463 245.632 293.832C244.994 294.263 244.156 294.772 242.786 295.533H242.771Z" fill="white"/>
<path d="M269.075 398.424C270.281 397.57 271.749 397.075 273.278 397.009C273.573 396.988 274.272 397.009 274.598 397.009C277.486 397.219 280.217 398.291 282.363 400.057C282.655 400.291 283.396 400.952 283.618 401.193C284.728 402.354 285.497 403.751 285.852 405.254C286.06 406.087 286.049 406.953 285.819 407.782C285.59 408.61 285.149 409.378 284.532 410.023C283.642 410.892 282.485 411.499 281.212 411.765C277.83 412.528 273.681 411.399 270.602 408.905C270.341 408.696 269.639 408.062 269.451 407.86C268.337 406.71 267.556 405.326 267.179 403.833C266.963 403.048 266.942 402.23 267.118 401.437C267.294 400.644 267.662 399.897 268.196 399.249C268.463 398.95 268.757 398.671 269.075 398.417V398.424Z" fill="white"/>
<path d="M290.989 405.232C292.182 404.068 293.732 403.321 295.4 403.103C296.033 403.02 296.673 402.987 297.312 403.005C298.082 403.019 298.852 403.073 299.616 403.166C300.492 403.272 301.208 403.381 303.139 403.714C304.837 404.036 306.553 404.264 308.277 404.394C309.253 404.457 310.232 404.457 311.207 404.394C313.347 404.223 315.5 404.464 317.545 405.104C319.132 405.593 320.599 406.395 321.859 407.459C322.079 407.649 322.605 408.154 322.78 408.363C323.817 409.503 324.525 410.895 324.83 412.394C325.136 413.892 325.028 415.444 324.517 416.888C323.865 418.589 322.653 419.938 320.535 421.35C319.876 421.785 318.977 422.308 317.553 423.094C316.171 423.816 314.85 424.647 313.605 425.578C312.177 426.757 310.963 428.166 310.014 429.743C309.66 430.299 309.34 430.811 308.631 432.04C307.811 433.463 307.46 434.011 307.021 434.655C306.719 435.094 306.364 435.573 306.1 435.88C306.025 435.964 305.951 436.056 305.936 436.078C305.921 436.1 305.701 436.337 305.443 436.593C305.125 436.921 304.771 437.214 304.388 437.468C303.065 438.367 301.517 438.897 299.911 439C299.653 439 298.912 439 298.658 439C297.126 438.893 295.655 438.367 294.412 437.482C293.985 437.197 293.588 436.873 293.226 436.513C292.967 436.26 292.725 435.99 292.503 435.705C291.043 433.842 290.124 431.627 289.844 429.293C289.666 428.021 289.621 426.734 289.71 425.453C289.806 424.217 289.783 422.974 289.643 421.741C289.467 420.288 289.206 418.846 288.86 417.422C288.465 415.666 288.316 415.012 288.2 414.288C287.88 412.272 287.943 410.718 288.398 409.284C288.91 407.749 289.8 406.361 290.989 405.243V405.232Z" fill="white"/>
<path d="M284.309 395.762C282.92 393.916 282.117 391.681 282.007 389.357C281.956 388.176 282.192 387.001 282.693 385.935C283.177 384.912 283.972 384.077 284.961 383.555C285.555 383.258 286.198 383.075 286.858 383.016C287.231 382.995 287.605 382.995 287.978 383.016C289.643 383.224 291.216 383.909 292.516 384.991C292.895 385.275 293.248 385.594 293.572 385.942C293.934 386.295 294.267 386.677 294.568 387.084C296.522 389.651 297.385 392.828 296.839 395.485C296.653 396.491 296.214 397.43 295.565 398.21C295.369 398.424 295.161 398.625 294.941 398.813C294.411 399.253 293.797 399.576 293.139 399.765C292.873 399.846 292.603 399.91 292.329 399.955C290.368 400.203 288.129 399.417 286.235 397.833C285.517 397.223 284.871 396.531 284.309 395.769V395.762Z" fill="white"/>
<path d="M268.908 418.781C269.079 418.526 269.278 418.289 269.502 418.074C270.261 417.337 271.201 416.789 272.238 416.479C273.118 416.188 274.042 416.031 274.974 416.012C275.271 415.996 275.569 415.996 275.866 416.012C277.976 416.148 280.002 416.853 281.704 418.042C283.776 419.506 285 421.494 285 423.474C284.999 424.649 284.567 425.786 283.779 426.693C283.731 426.749 283.533 426.93 283.35 427.096C283.094 427.339 282.81 427.554 282.503 427.736C281.169 428.556 279.614 428.994 278.023 428.995C277.227 429.019 276.43 428.955 275.649 428.804C273.796 428.461 272.069 427.665 270.64 426.495C270.291 426.179 269.961 425.845 269.651 425.494C268.635 424.392 268.052 422.991 268.001 421.529C267.98 420.547 268.291 419.584 268.889 418.781H268.908Z" fill="white"/>
<path d="M224.67 328.872C225.614 328.252 226.747 327.948 227.892 328.007C228.629 328.041 229.355 328.192 230.039 328.456C230.671 328.707 231.269 329.03 231.818 329.419C232.18 329.676 232.518 329.965 232.825 330.28C233.172 330.591 233.486 330.932 233.764 331.301C235.355 333.296 236.141 335.768 235.979 338.269C235.877 339.721 235.302 341.106 234.334 342.232C234.084 342.491 233.814 342.733 233.528 342.956C233.278 343.151 233.008 343.322 232.722 343.466C230.473 344.552 227.657 343.951 225.376 341.932C223.941 340.622 222.908 338.964 222.389 337.136C221.629 334.497 221.99 331.808 223.397 330.038C223.754 329.584 224.184 329.186 224.67 328.858V328.872Z" fill="white"/>
<path d="M190.132 343.24C190.386 342.941 190.666 342.663 190.967 342.407C192.112 341.561 193.501 341.075 194.946 341.014C195.225 340.994 195.887 340.997 196.196 341.014C198.925 341.215 201.508 342.275 203.542 344.03C203.822 344.263 204.519 344.956 204.73 345.197C205.783 346.357 206.513 347.754 206.852 349.257C207.054 350.087 207.049 350.952 206.837 351.781C206.625 352.609 206.212 353.378 205.631 354.024C204.774 354.892 203.668 355.498 202.452 355.765C199.255 356.528 195.324 355.396 192.406 352.903C192.163 352.694 191.498 352.032 191.316 351.823C190.263 350.685 189.525 349.312 189.169 347.829C188.965 347.04 188.945 346.217 189.112 345.419C189.278 344.621 189.627 343.869 190.132 343.215V343.24Z" fill="white"/>
<path d="M212.919 349.26C213.146 349.028 213.388 348.812 213.644 348.613C214.688 347.806 215.925 347.294 217.23 347.129C217.844 347.035 218.465 346.992 219.086 347.001C219.826 347.023 220.565 347.086 221.298 347.191C222.15 347.301 222.842 347.41 224.721 347.739C226.375 348.067 228.047 348.298 229.728 348.43C230.677 348.483 231.629 348.472 232.578 348.397C234.658 348.229 236.752 348.47 238.741 349.106C240.285 349.608 241.711 350.421 242.933 351.496C243.147 351.686 243.658 352.19 243.828 352.399C244.842 353.533 245.534 354.921 245.833 356.418C246.133 357.915 246.027 359.465 245.529 360.906C244.894 362.606 243.698 363.954 241.62 365.361C240.978 365.8 240.108 366.322 238.741 367.108C237.405 367.829 236.131 368.66 234.931 369.593C233.529 370.768 232.338 372.176 231.406 373.755C231.062 374.311 230.75 374.822 230.061 376.047C229.264 377.468 228.955 378.02 228.528 378.659C228.234 379.098 227.857 379.58 227.599 379.887L227.44 380.081C227.44 380.103 227.215 380.344 226.961 380.6C226.651 380.926 226.307 381.218 225.935 381.47C224.648 382.364 223.144 382.888 221.584 382.986C221.341 383.005 220.616 383.005 220.37 382.986C218.377 382.827 216.51 381.944 215.116 380.501C214.858 380.247 214.616 379.977 214.391 379.694C213.038 377.998 212.186 375.831 211.827 373.302C211.654 372.031 211.611 370.745 211.701 369.465C211.781 368.227 211.748 366.984 211.603 365.752C211.433 364.297 211.176 362.853 210.834 361.429C210.453 359.675 210.305 358.988 210.196 358.268C209.884 356.25 209.942 354.73 210.388 353.294C210.902 351.768 211.772 350.389 212.926 349.274L212.919 349.26Z" fill="white"/>
<path d="M190.83 362.776C190.993 362.522 191.18 362.285 191.39 362.069C192.104 361.324 192.99 360.766 193.969 360.446C194.801 360.165 195.671 360.017 196.548 360.008C196.826 360.008 197.108 359.99 197.389 360.008C199.388 360.146 201.307 360.849 202.925 362.037C204.877 363.5 206 365.487 206 367.47C206.001 368.633 205.593 369.76 204.849 370.651C204.804 370.708 204.617 370.92 204.448 371.09C204.213 371.337 203.951 371.556 203.667 371.744C202.407 372.556 200.942 372.99 199.444 372.995C198.694 373.019 197.943 372.956 197.207 372.808C195.468 372.463 193.851 371.666 192.516 370.496C192.178 370.181 191.856 369.848 191.552 369.499C190.596 368.396 190.048 366.995 190 365.533C189.999 364.989 190.093 364.45 190.278 363.939C190.406 363.529 190.593 363.141 190.834 362.786L190.83 362.776Z" fill="white"/>
<path d="M205.463 339.725C203.979 337.892 203.122 335.666 203.008 333.35C202.951 332.157 203.203 330.969 203.74 329.891C204.162 329.09 204.792 328.406 205.568 327.903C206.345 327.4 207.243 327.095 208.177 327.017C208.574 326.994 208.973 326.994 209.371 327.017C211.156 327.207 212.848 327.877 214.251 328.95C215.035 329.595 215.758 330.307 216.409 331.076C218.492 333.644 219.412 336.787 218.827 339.448C218.632 340.466 218.163 341.418 217.468 342.21C217.271 342.423 217.06 342.623 216.837 342.81C216.258 343.249 215.593 343.574 214.881 343.766C214.597 343.845 214.309 343.908 214.018 343.956C211.927 344.2 209.573 343.417 207.554 341.83C206.778 341.21 206.079 340.508 205.47 339.736L205.463 339.725Z" fill="white"/>
<path d="M317.367 326.247C317.118 326.5 316.849 326.734 316.561 326.948C316.303 327.146 316.022 327.317 315.725 327.458C313.475 328.542 310.688 327.978 308.404 325.958C306.958 324.652 305.914 322.996 305.385 321.168C304.625 318.536 305.005 315.814 306.389 314.05C306.759 313.594 307.202 313.195 307.7 312.868C308.645 312.249 309.779 311.947 310.924 312.008C311.661 312.038 312.388 312.189 313.072 312.452C313.703 312.715 314.3 313.048 314.851 313.443C315.214 313.689 315.551 313.967 315.858 314.274C316.204 314.586 316.519 314.929 316.797 315.297C318.379 317.305 319.152 319.785 318.975 322.289C318.887 323.735 318.325 325.119 317.367 326.247Z" fill="white"/>
<path d="M303.53 384.872C304.405 384.251 305.457 383.947 306.52 384.008C307.204 384.041 307.877 384.193 308.512 384.456C309.087 384.707 309.63 385.029 310.13 385.415C310.821 385.955 311.439 386.589 311.966 387.299C313.43 389.298 314.144 391.77 313.976 394.265C313.891 395.718 313.368 397.107 312.481 398.243C312.249 398.495 312.001 398.729 311.737 398.945C311.494 399.14 311.233 399.312 310.958 399.458C308.871 400.543 306.287 399.976 304.168 397.957C302.827 396.651 301.86 394.994 301.369 393.165C300.647 390.532 300.999 387.809 302.3 386.044C302.644 385.587 303.054 385.187 303.516 384.858L303.53 384.872Z" fill="white"/>
<path d="M287.74 329.489C288.793 330.725 289.522 332.214 289.859 333.815C290.057 334.703 290.046 335.625 289.828 336.508C289.61 337.391 289.191 338.208 288.605 338.894C287.762 339.82 286.667 340.466 285.46 340.749C282.26 341.562 278.326 340.36 275.41 337.703C275.163 337.481 274.497 336.805 274.319 336.59C273.266 335.376 272.527 333.911 272.17 332.331C271.965 331.49 271.945 330.613 272.112 329.763C272.278 328.913 272.627 328.111 273.134 327.415C273.384 327.101 273.659 326.808 273.955 326.539C275.102 325.622 276.5 325.09 277.955 325.018C278.372 324.994 278.789 324.994 279.206 325.018C281.94 325.241 284.525 326.381 286.558 328.261C286.838 328.513 287.54 329.218 287.747 329.474L287.74 329.489Z" fill="white"/>
<path d="M221.453 270.244C221.255 270.444 221.045 270.631 220.822 270.804C220.26 271.255 219.609 271.593 218.908 271.798C218.612 271.867 218.313 271.92 218.011 271.956C215.92 272.2 213.567 271.418 211.547 269.832C210.769 269.226 210.069 268.535 209.46 267.772C207.978 265.928 207.121 263.694 207.005 261.37C206.959 260.187 207.216 259.012 207.756 257.947C208.163 257.138 208.782 256.443 209.552 255.93C210.322 255.416 211.217 255.101 212.152 255.015C212.56 254.995 212.97 254.995 213.379 255.015C215.646 255.316 217.738 256.345 219.313 257.932C219.711 258.288 220.078 258.674 220.409 259.088C222.492 261.654 223.412 264.829 222.827 267.485C222.619 268.504 222.139 269.455 221.434 270.244H221.453Z" fill="white"/>
<path d="M195.365 290.227C196.096 289.435 196.993 288.847 197.981 288.514C198.801 288.198 199.663 288.028 200.534 288.011C200.804 287.996 201.075 287.996 201.345 288.011C203.356 288.155 205.289 288.912 206.919 290.193C208.875 291.773 210 293.947 210 296.079C210.002 297.331 209.595 298.544 208.851 299.505C208.805 299.566 208.618 299.76 208.445 299.943C208.211 300.21 207.95 300.447 207.666 300.651C206.403 301.523 204.935 301.99 203.435 301.995C202.683 302.02 201.931 301.953 201.193 301.793C199.452 301.422 197.832 300.565 196.493 299.307C196.154 298.967 195.831 298.607 195.527 298.23C194.578 297.052 194.038 295.553 194.001 293.992C193.991 293.409 194.076 292.828 194.251 292.275C194.382 291.824 194.571 291.395 194.812 291C194.974 290.726 195.162 290.471 195.372 290.239L195.365 290.227Z" fill="white"/>
<path d="M238.348 270.248C238.098 270.5 237.829 270.734 237.543 270.949C237.293 271.145 237.023 271.316 236.737 271.459C234.488 272.543 231.707 271.976 229.424 269.958C227.972 268.655 226.921 266.999 226.385 265.168C225.625 262.537 226.005 259.818 227.392 258.05C227.751 257.596 228.181 257.197 228.668 256.868C229.612 256.249 230.745 255.946 231.89 256.008C232.632 256.039 233.364 256.188 234.055 256.449C234.685 256.7 235.282 257.022 235.833 257.407C236.196 257.664 236.533 257.954 236.84 258.271C237.188 258.581 237.502 258.924 237.778 259.294C239.365 261.301 240.145 263.782 239.978 266.289C239.88 267.746 239.305 269.137 238.333 270.266L238.348 270.248Z" fill="white"/>
<path d="M208.754 273.472C209.807 274.71 210.536 276.201 210.871 277.805C211.235 279.752 210.828 281.521 209.653 282.892C208.794 283.818 207.687 284.465 206.47 284.749C203.269 285.563 199.336 284.356 196.415 281.695C196.171 281.476 195.502 280.8 195.324 280.58C194.267 279.353 193.527 277.875 193.17 276.281C192.965 275.444 192.945 274.571 193.112 273.725C193.279 272.88 193.628 272.082 194.134 271.392C194.4 271.073 194.691 270.777 195.004 270.507C196.139 269.599 197.524 269.076 198.965 269.01C199.249 268.988 199.907 269.01 200.216 269.01C202.953 269.236 205.539 270.377 207.576 272.257C207.848 272.514 208.554 273.216 208.765 273.476L208.754 273.472Z" fill="white"/>
<path d="M321.745 351.538C320.401 352.242 319.117 353.051 317.906 353.958C316.512 355.104 315.327 356.474 314.401 358.011C314.057 358.552 313.745 359.079 313.057 360.274C312.259 361.659 311.919 362.196 311.491 362.819C311.213 363.221 310.914 363.609 310.596 363.982C310.523 364.061 310.451 364.153 310.436 364.171C310.422 364.189 310.208 364.427 309.954 364.676C309.645 364.996 309.301 365.281 308.928 365.527C307.642 366.396 306.138 366.905 304.579 367C304.336 367 303.611 367 303.361 367C301.873 366.894 300.444 366.384 299.233 365.527C298.821 365.246 298.437 364.929 298.084 364.58C297.832 364.333 297.596 364.07 297.377 363.794C295.972 361.982 295.092 359.832 294.829 357.57C294.646 356.333 294.593 355.081 294.67 353.833C294.759 352.629 294.737 351.419 294.605 350.218C294.431 348.801 294.174 347.396 293.836 346.008C293.452 344.3 293.307 343.663 293.195 342.958C292.883 340.998 292.945 339.485 293.387 338.087C293.9 336.601 294.77 335.258 295.924 334.172C296.15 333.947 296.392 333.738 296.649 333.546C297.68 332.761 298.906 332.261 300.201 332.098C300.828 332.018 301.461 331.987 302.093 332.005C302.831 332.018 303.568 332.07 304.3 332.162C305.152 332.265 305.848 332.372 307.729 332.695C309.378 333.008 311.045 333.228 312.72 333.354C313.669 333.421 314.622 333.421 315.572 333.354C317.647 333.199 319.734 333.441 321.716 334.066C323.258 334.541 324.684 335.321 325.909 336.357C326.123 336.542 326.634 337.033 326.804 337.24C327.939 338.479 328.674 340.021 328.917 341.67C329.104 342.959 328.973 344.273 328.537 345.503C327.902 347.157 326.703 348.499 324.633 349.869C323.981 350.296 323.115 350.773 321.734 351.538H321.745Z" fill="white"/>
<path d="M300.472 326.242C300.264 326.446 300.042 326.636 299.807 326.813C299.243 327.262 298.589 327.595 297.884 327.793C297.6 327.865 297.312 327.919 297.02 327.955C294.928 328.199 292.539 327.448 290.518 325.861C289.75 325.243 289.06 324.54 288.464 323.767C286.981 321.933 286.124 319.708 286.007 317.392C285.953 316.2 286.203 315.013 286.736 313.934C287.253 312.92 288.104 312.096 289.159 311.589C289.79 311.279 290.477 311.085 291.183 311.018C291.58 310.994 291.977 310.994 292.374 311.018C294.151 311.221 295.831 311.902 297.219 312.982C297.62 313.271 297.997 313.589 298.346 313.934C298.731 314.286 299.085 314.668 299.406 315.076C301.49 317.644 302.41 320.822 301.828 323.48C301.637 324.498 301.17 325.451 300.472 326.242Z" fill="white"/>
<path d="M274.388 346.224C275.105 345.434 275.991 344.848 276.968 344.516C277.798 344.201 278.669 344.031 279.548 344.011C279.818 343.996 280.088 343.996 280.358 344.011C282.357 344.159 284.275 344.914 285.892 346.189C287.845 347.76 289 349.927 289 352.052C288.997 353.299 288.591 354.507 287.852 355.467C287.803 355.528 287.62 355.721 287.448 355.903C287.216 356.174 286.958 356.416 286.677 356.624C285.418 357.505 283.953 357.981 282.452 357.998C281.7 358.014 280.949 357.935 280.214 357.763C278.465 357.395 276.835 356.54 275.486 355.285C275.159 354.945 274.849 354.586 274.557 354.211C273.543 352.856 273.001 351.441 273.001 349.988C272.991 349.406 273.075 348.827 273.251 348.276C273.393 347.826 273.591 347.399 273.839 347.005C274.002 346.733 274.189 346.479 274.398 346.246L274.388 346.224Z" fill="white"/>
<path d="M55.7715 295.533C54.4277 296.238 53.1429 297.047 51.9292 297.951C50.5245 299.093 49.3303 300.464 48.3985 302.003C48.0361 302.543 47.7425 303.041 47.0537 304.233C46.2526 305.617 45.9445 306.154 45.5168 306.776C45.2232 307.203 44.8462 307.672 44.5888 307.971C44.5163 308.05 44.4438 308.138 44.4293 308.16C44.4148 308.181 44.2046 308.416 43.9472 308.661C43.6385 308.979 43.2958 309.263 42.925 309.508C41.6386 310.378 40.1348 310.889 38.5752 310.984C38.1804 311.005 37.7847 311.005 37.3899 310.984C35.89 310.881 34.449 310.37 33.2285 309.508C32.8248 309.23 32.4497 308.914 32.1084 308.565C31.8563 308.319 31.6203 308.058 31.4016 307.783C29.9874 305.975 29.097 303.825 28.8243 301.562C28.6526 300.324 28.6101 299.073 28.6975 297.827C28.7773 296.622 28.7458 295.412 28.6032 294.213C28.4293 292.796 28.1727 291.39 27.8347 290.002C27.4505 288.294 27.3055 287.658 27.1931 286.957C26.885 284.997 26.943 283.485 27.3853 282.088C27.8987 280.602 28.769 279.26 29.9227 278.175C30.149 277.949 30.3912 277.738 30.6476 277.545C31.6927 276.763 32.929 276.264 34.2326 276.098C34.8489 276.018 35.4708 275.987 36.0922 276.005C36.8303 276.019 37.5671 276.072 38.2997 276.162C39.1515 276.268 39.8475 276.375 41.7252 276.695C43.3758 277.01 45.0436 277.231 46.7202 277.357C47.6687 277.424 48.6209 277.424 49.5694 277.357C51.6511 277.198 53.7444 277.439 55.7316 278.068C57.2727 278.544 58.6986 279.323 59.922 280.359C60.1358 280.544 60.6469 281.035 60.8173 281.237C61.8324 282.337 62.5275 283.684 62.8298 285.138C63.1321 286.592 63.0304 288.098 62.5355 289.5C61.9048 291.151 60.7231 292.463 58.6315 293.832C57.9935 294.263 57.1562 294.772 55.786 295.533H55.7715Z" fill="white"/>
<path d="M82.0748 398.424C83.2813 397.57 84.7495 397.075 86.2778 397.009C86.5733 396.988 87.2719 397.009 87.5981 397.009C90.4863 397.219 93.2166 398.291 95.363 400.057C95.6547 400.291 96.3955 400.952 96.6181 401.193C97.7281 402.354 98.4965 403.751 98.852 405.254C99.0599 406.087 99.0486 406.953 98.8192 407.782C98.5898 408.61 98.1488 409.378 97.5316 410.023C96.6421 410.892 95.4855 411.499 94.2115 411.765C90.83 412.528 86.6808 411.399 83.6025 408.905C83.3415 408.696 82.6391 408.062 82.451 407.86C81.3368 406.71 80.5559 405.326 80.1787 403.833C79.963 403.048 79.9423 402.23 80.1182 401.437C80.2941 400.644 80.6622 399.897 81.1959 399.249C81.4626 398.95 81.7566 398.671 82.0748 398.417V398.424Z" fill="white"/>
<path d="M103.989 405.232C105.182 404.068 106.732 403.321 108.4 403.103C109.033 403.02 109.673 402.987 110.312 403.005C111.082 403.019 111.852 403.073 112.616 403.166C113.492 403.272 114.208 403.381 116.139 403.714C117.837 404.036 119.553 404.264 121.277 404.394C122.253 404.457 123.232 404.457 124.207 404.394C126.347 404.223 128.5 404.464 130.545 405.104C132.132 405.593 133.599 406.395 134.859 407.459C135.079 407.649 135.605 408.154 135.78 408.363C136.817 409.503 137.525 410.895 137.83 412.394C138.136 413.892 138.028 415.444 137.517 416.888C136.865 418.589 135.653 419.938 133.535 421.35C132.876 421.785 131.977 422.308 130.553 423.094C129.171 423.816 127.85 424.647 126.605 425.578C125.177 426.757 123.963 428.166 123.014 429.743C122.66 430.299 122.34 430.811 121.631 432.04C120.811 433.463 120.46 434.011 120.021 434.655C119.719 435.094 119.364 435.573 119.1 435.88C119.025 435.964 118.951 436.056 118.936 436.078C118.921 436.1 118.701 436.337 118.443 436.593C118.125 436.921 117.771 437.214 117.388 437.468C116.065 438.367 114.517 438.897 112.911 439C112.653 439 111.912 439 111.658 439C110.126 438.893 108.655 438.367 107.412 437.482C106.985 437.197 106.588 436.873 106.226 436.513C105.967 436.26 105.725 435.99 105.503 435.705C104.043 433.842 103.124 431.627 102.844 429.293C102.666 428.021 102.621 426.734 102.71 425.453C102.806 424.217 102.783 422.974 102.643 421.741C102.467 420.288 102.206 418.846 101.86 417.422C101.465 415.666 101.316 415.012 101.2 414.288C100.88 412.272 100.943 410.718 101.398 409.284C101.91 407.749 102.8 406.361 103.989 405.243V405.232Z" fill="white"/>
<path d="M97.3092 395.762C95.92 393.916 95.1167 391.681 95.0068 389.357C94.956 388.176 95.1918 387.001 95.6933 385.935C96.1767 384.912 96.9723 384.077 97.9605 383.555C98.5552 383.258 99.1985 383.075 99.8581 383.016C100.231 382.995 100.605 382.995 100.978 383.016C102.643 383.224 104.216 383.909 105.516 384.991C105.895 385.275 106.248 385.594 106.572 385.942C106.934 386.295 107.267 386.677 107.568 387.084C109.522 389.651 110.385 392.828 109.839 395.485C109.653 396.491 109.214 397.43 108.565 398.21C108.369 398.424 108.161 398.625 107.941 398.813C107.411 399.253 106.797 399.576 106.139 399.765C105.873 399.846 105.603 399.91 105.329 399.955C103.368 400.203 101.129 399.417 99.235 397.833C98.5169 397.223 97.8707 396.531 97.3092 395.769V395.762Z" fill="white"/>
<path d="M81.9081 418.781C82.0793 418.526 82.2782 418.289 82.5016 418.074C83.2613 417.337 84.2011 416.789 85.2377 416.479C86.1183 416.188 87.0416 416.031 87.9738 416.012C88.271 415.996 88.5688 415.996 88.866 416.012C90.9762 416.148 93.0015 416.853 94.704 418.042C96.7757 419.506 98 421.494 98 423.474C97.9987 424.649 97.5673 425.786 96.7794 426.693C96.7309 426.749 96.533 426.93 96.3501 427.096C96.0941 427.339 95.8098 427.554 95.5028 427.736C94.1692 428.556 92.6135 428.994 91.0235 428.995C90.227 429.019 89.4302 428.955 88.6495 428.804C86.7956 428.461 85.0686 427.665 83.6401 426.495C83.2909 426.179 82.9607 425.845 82.6509 425.494C81.635 424.392 81.0521 422.991 81.001 421.529C80.9796 420.547 81.291 419.584 81.8894 418.781H81.9081Z" fill="white"/>
<path d="M37.6696 328.872C38.6138 328.252 39.7472 327.948 40.8923 328.007C41.6294 328.041 42.3554 328.192 43.0394 328.456C43.6712 328.707 44.2685 329.03 44.818 329.419C45.1805 329.676 45.5176 329.965 45.825 330.28C46.1721 330.591 46.4865 330.932 46.7637 331.301C48.3546 333.296 49.1408 335.768 48.9793 338.269C48.8771 339.721 48.3019 341.106 47.3337 342.232C47.0836 342.491 46.8144 342.733 46.5281 342.956C46.2777 343.151 46.0079 343.322 45.7224 343.466C43.4727 344.552 40.6567 343.951 38.3765 341.932C36.9408 340.622 35.908 338.964 35.3895 337.136C34.6294 334.497 34.9905 331.808 36.3966 330.038C36.7544 329.584 37.1839 329.186 37.6696 328.858V328.872Z" fill="white"/>
<path d="M3.13163 343.24C3.38638 342.941 3.66583 342.663 3.96727 342.407C5.11202 341.561 6.5015 341.075 7.94569 341.014C8.22545 340.994 8.88671 340.997 9.19553 341.014C11.9245 341.215 14.5077 342.275 16.542 344.03C16.8217 344.263 17.5193 344.956 17.7301 345.197C18.7827 346.357 19.5125 347.754 19.8519 349.257C20.0543 350.087 20.0492 350.952 19.8371 351.781C19.6249 352.609 19.2117 353.378 18.6311 354.024C17.7739 354.892 16.6678 355.498 15.452 355.765C12.2547 356.528 8.32355 355.396 5.40605 352.903C5.16262 352.694 4.49773 352.032 4.31607 351.823C3.26282 350.685 2.52452 349.312 2.16883 347.829C1.9649 347.04 1.94546 346.217 2.1119 345.419C2.27834 344.621 2.62654 343.869 3.13163 343.215V343.24Z" fill="white"/>
<path d="M25.9188 349.26C26.146 349.028 26.3883 348.812 26.6439 348.613C27.6875 347.806 28.9251 347.294 30.2298 347.129C30.8441 347.035 31.465 346.992 32.0862 347.001C32.8264 347.023 33.5648 347.086 34.2979 347.191C35.15 347.301 35.8425 347.41 37.7206 347.739C39.375 348.067 41.0469 348.298 42.7278 348.43C43.6774 348.483 44.6295 348.472 45.5776 348.397C47.6584 348.229 49.7516 348.47 51.7414 349.106C53.2851 349.608 54.7112 350.421 55.9328 351.496C56.1467 351.686 56.6579 352.19 56.8283 352.399C57.8418 353.533 58.5343 354.921 58.8335 356.418C59.1326 357.915 59.0274 359.465 58.5288 360.906C57.8943 362.606 56.6978 363.954 54.6202 365.361C53.9785 365.8 53.1083 366.322 51.7414 367.108C50.4053 367.829 49.1307 368.66 47.9307 369.593C46.5294 370.768 45.3375 372.176 44.4065 373.755C44.062 374.311 43.7502 374.822 43.0613 376.047C42.2637 377.468 41.9555 378.02 41.5276 378.659C41.234 379.098 40.8569 379.58 40.5995 379.887L40.4399 380.081C40.4399 380.103 40.2151 380.344 39.9613 380.6C39.6513 380.926 39.3073 381.218 38.9352 381.47C37.6485 382.364 36.1443 382.888 34.5843 382.986C34.3414 383.005 33.6163 383.005 33.3697 382.986C31.3775 382.827 29.5104 381.944 28.116 380.501C27.8584 380.247 27.6162 379.977 27.3908 379.694C26.0384 377.998 25.1864 375.831 24.8274 373.302C24.6537 372.031 24.6112 370.745 24.7005 369.465C24.781 368.227 24.7483 366.984 24.6026 365.752C24.4325 364.297 24.1758 362.853 23.834 361.429C23.4533 359.675 23.3046 358.988 23.1958 358.268C22.884 356.25 22.942 354.73 23.388 353.294C23.9015 351.768 24.7721 350.389 25.926 349.274L25.9188 349.26Z" fill="white"/>
<path d="M3.83044 362.776C3.99264 362.522 4.18011 362.285 4.38993 362.069C5.1043 361.324 5.99004 360.766 6.9692 360.446C7.80083 360.165 8.67119 360.017 9.54849 360.008C9.82648 360.008 10.108 359.99 10.3895 360.008C12.3882 360.146 14.3072 360.849 15.9246 362.037C17.8775 363.5 19 365.487 19 367.47C19.0006 368.633 18.5932 369.76 17.8493 370.651C17.8036 370.708 17.6171 370.92 17.4482 371.09C17.2134 371.337 16.9513 371.556 16.667 371.744C15.4066 372.556 13.9418 372.99 12.4445 372.995C11.6938 373.019 10.9429 372.956 10.2065 372.808C8.4684 372.463 6.85089 371.666 5.51593 370.496C5.17762 370.181 4.8558 369.848 4.55179 369.499C3.59609 368.396 3.04808 366.995 3 365.533C2.99929 364.989 3.09337 364.45 3.27798 363.939C3.40567 363.529 3.59303 363.141 3.83396 362.786L3.83044 362.776Z" fill="white"/>
<path d="M18.4628 339.725C16.9792 337.892 16.122 335.666 16.0077 333.35C15.9514 332.157 16.2028 330.969 16.7397 329.891C17.1622 329.09 17.7916 328.406 18.5681 327.903C19.3447 327.4 20.2426 327.095 21.1768 327.017C21.5744 326.994 21.973 326.994 22.3705 327.017C24.1556 327.207 25.8479 327.877 27.2506 328.95C28.0353 329.595 28.7577 330.307 29.409 331.076C31.4924 333.644 32.4121 336.787 31.8265 339.448C31.6318 340.466 31.1634 341.418 30.4676 342.21C30.2707 342.423 30.0601 342.623 29.837 342.81C29.2576 343.249 28.5928 343.574 27.8812 343.766C27.5975 343.845 27.3092 343.908 27.0178 343.956C24.9269 344.2 22.5733 343.417 20.5537 341.83C19.7779 341.21 19.0789 340.508 18.4703 339.736L18.4628 339.725Z" fill="white"/>
<path d="M130.367 326.247C130.118 326.5 129.849 326.734 129.561 326.948C129.303 327.146 129.022 327.317 128.725 327.458C126.475 328.542 123.688 327.978 121.404 325.958C119.958 324.652 118.914 322.996 118.385 321.168C117.625 318.536 118.005 315.814 119.389 314.05C119.759 313.594 120.202 313.195 120.7 312.868C121.645 312.249 122.779 311.947 123.924 312.008C124.661 312.038 125.388 312.189 126.072 312.452C126.703 312.715 127.3 313.048 127.851 313.443C128.214 313.689 128.551 313.967 128.858 314.274C129.204 314.586 129.519 314.929 129.797 315.297C131.379 317.305 132.152 319.785 131.975 322.289C131.887 323.735 131.325 325.119 130.367 326.247Z" fill="white"/>
<path d="M116.53 384.872C117.405 384.251 118.457 383.947 119.52 384.008C120.204 384.041 120.877 384.193 121.512 384.456C122.087 384.707 122.63 385.029 123.13 385.415C123.821 385.955 124.439 386.589 124.966 387.299C126.43 389.298 127.144 391.77 126.976 394.265C126.891 395.718 126.368 397.107 125.481 398.243C125.249 398.495 125.001 398.729 124.737 398.945C124.494 399.14 124.233 399.312 123.958 399.458C121.871 400.543 119.287 399.976 117.168 397.957C115.827 396.651 114.86 394.994 114.369 393.165C113.647 390.532 113.999 387.809 115.3 386.044C115.644 385.587 116.054 385.187 116.516 384.858L116.53 384.872Z" fill="white"/>
<path d="M100.74 329.489C101.793 330.725 102.522 332.214 102.859 333.815C103.057 334.703 103.046 335.625 102.828 336.508C102.61 337.391 102.191 338.208 101.605 338.894C100.762 339.82 99.6665 340.466 98.4597 340.749C95.2601 341.562 91.3259 340.36 88.4098 337.703C88.1626 337.481 87.4972 336.805 87.319 336.59C86.2656 335.376 85.5269 333.911 85.1702 332.331C84.9651 331.49 84.9451 330.613 85.1117 329.763C85.2783 328.913 85.6273 328.111 86.1337 327.415C86.3844 327.101 86.6591 326.808 86.9554 326.539C88.102 325.622 89.4996 325.09 90.955 325.018C91.3716 324.994 91.7892 324.994 92.2058 325.018C94.9401 325.241 97.5251 326.381 99.5578 328.261C99.8378 328.513 100.54 329.218 100.747 329.474L100.74 329.489Z" fill="white"/>
<path d="M34.4528 270.244C34.2551 270.444 34.0445 270.631 33.8222 270.804C33.2601 271.255 32.6092 271.593 31.9079 271.798C31.6122 271.867 31.3127 271.92 31.0108 271.956C28.92 272.2 26.5666 271.418 24.5472 269.832C23.7693 269.226 23.0688 268.535 22.4602 267.772C20.9776 265.928 20.1209 263.694 20.0054 261.37C19.9585 260.187 20.2163 259.012 20.7561 257.947C21.1634 257.138 21.7819 256.443 22.5518 255.93C23.3217 255.416 24.2171 255.101 25.1515 255.015C25.5604 254.995 25.97 254.995 26.3789 255.015C28.6458 255.316 30.7383 256.345 32.3132 257.932C32.7111 258.288 33.0777 258.674 33.4093 259.088C35.4925 261.654 36.4121 264.829 35.8266 267.485C35.6192 268.504 35.1394 269.455 34.434 270.244H34.4528Z" fill="white"/>
<path d="M8.36519 290.227C9.09564 289.435 9.99344 288.847 10.9812 288.514C11.8011 288.198 12.6633 288.028 13.5337 288.011C13.8039 287.996 14.0745 287.996 14.3446 288.011C16.3562 288.155 18.2888 288.912 19.9186 290.193C21.8753 291.773 23 293.947 23 296.079C23.0016 297.331 22.5947 298.544 21.8507 299.505C21.8048 299.566 21.618 299.76 21.4452 299.943C21.211 300.21 20.9496 300.447 20.666 300.651C19.4025 301.523 17.9351 301.99 16.4353 301.995C15.6832 302.02 14.9309 301.953 14.193 301.793C12.4521 301.422 10.8316 300.565 9.49339 299.307C9.1535 298.967 8.83102 298.607 8.52738 298.23C7.57801 297.052 7.03822 295.553 7.00078 293.992C6.99087 293.409 7.07557 292.828 7.25108 292.275C7.38217 291.824 7.57086 291.395 7.81167 291C7.97431 290.726 8.16213 290.471 8.37225 290.239L8.36519 290.227Z" fill="white"/>
<path d="M51.3479 270.248C51.0978 270.5 50.8287 270.734 50.5425 270.949C50.2932 271.145 50.0233 271.316 49.7372 271.459C47.4882 272.543 44.7073 271.976 42.4241 269.958C40.9718 268.655 39.921 266.999 39.385 265.168C38.6252 262.537 39.0051 259.818 40.3917 258.05C40.7507 257.596 41.1813 257.197 41.6682 256.868C42.6116 256.249 43.7452 255.946 44.8897 256.008C45.6323 256.039 46.3643 256.188 47.0551 256.449C47.6854 256.7 48.2822 257.022 48.833 257.407C49.1961 257.664 49.5332 257.954 49.8397 258.271C50.1878 258.581 50.5021 258.924 50.7781 259.294C52.3651 261.301 53.1453 263.782 52.9777 266.289C52.8805 267.746 52.3051 269.137 51.3327 270.266L51.3479 270.248Z" fill="white"/>
<path d="M21.7541 273.472C22.8074 274.71 23.5359 276.201 23.8713 277.805C24.235 279.752 23.8276 281.521 22.6526 282.892C21.7944 283.818 20.6869 284.465 19.4697 284.749C16.2685 285.563 12.3362 284.356 9.41512 281.695C9.1714 281.476 8.50206 280.8 8.32382 280.58C7.26711 279.353 6.52694 277.875 6.17032 276.281C5.96504 275.444 5.94506 274.571 6.11181 273.725C6.27857 272.88 6.62786 272.082 7.13429 271.392C7.40002 271.073 7.6908 270.777 8.0037 270.507C9.13944 269.599 10.5243 269.076 11.9651 269.01C12.2489 268.988 12.9073 269.01 13.2165 269.01C15.9526 269.236 18.5393 270.377 20.5755 272.257C20.8484 272.514 21.5541 273.216 21.765 273.476L21.7541 273.472Z" fill="white"/>
<path d="M134.745 351.538C133.401 352.242 132.117 353.051 130.906 353.958C129.512 355.104 128.327 356.474 127.401 358.011C127.057 358.552 126.745 359.079 126.057 360.274C125.259 361.659 124.919 362.196 124.491 362.819C124.213 363.221 123.914 363.609 123.596 363.982C123.523 364.061 123.451 364.153 123.436 364.171C123.422 364.189 123.208 364.427 122.954 364.676C122.645 364.996 122.301 365.281 121.928 365.527C120.642 366.396 119.138 366.905 117.579 367C117.336 367 116.611 367 116.361 367C114.873 366.894 113.444 366.384 112.233 365.527C111.821 365.246 111.437 364.929 111.084 364.58C110.832 364.333 110.596 364.07 110.377 363.794C108.972 361.982 108.092 359.832 107.829 357.57C107.646 356.333 107.593 355.081 107.67 353.833C107.759 352.629 107.737 351.419 107.605 350.218C107.431 348.801 107.174 347.396 106.836 346.008C106.452 344.3 106.307 343.663 106.195 342.958C105.883 340.998 105.945 339.485 106.387 338.087C106.9 336.601 107.77 335.258 108.924 334.172C109.15 333.947 109.392 333.738 109.649 333.546C110.68 332.761 111.906 332.261 113.201 332.098C113.828 332.018 114.461 331.987 115.093 332.005C115.831 332.018 116.568 332.07 117.3 332.162C118.152 332.265 118.848 332.372 120.729 332.695C122.378 333.008 124.045 333.228 125.72 333.354C126.669 333.421 127.622 333.421 128.572 333.354C130.647 333.199 132.734 333.441 134.716 334.066C136.258 334.541 137.684 335.321 138.909 336.357C139.123 336.542 139.634 337.033 139.804 337.24C140.939 338.479 141.674 340.021 141.917 341.67C142.104 342.959 141.973 344.273 141.537 345.503C140.902 347.157 139.703 348.499 137.633 349.869C136.981 350.296 136.115 350.773 134.734 351.538H134.745Z" fill="white"/>
<path d="M113.472 326.242C113.264 326.446 113.042 326.636 112.807 326.813C112.243 327.262 111.589 327.595 110.884 327.793C110.6 327.865 110.312 327.919 110.02 327.955C107.928 328.199 105.539 327.448 103.518 325.861C102.75 325.243 102.06 324.54 101.464 323.767C99.9811 321.933 99.1236 319.708 99.0072 317.392C98.9533 316.2 99.2034 315.013 99.7359 313.934C100.253 312.92 101.104 312.096 102.159 311.589C102.79 311.279 103.477 311.085 104.183 311.018C104.58 310.994 104.977 310.994 105.374 311.018C107.151 311.221 108.831 311.902 110.219 312.982C110.62 313.271 110.997 313.589 111.346 313.934C111.731 314.286 112.085 314.668 112.406 315.076C114.49 317.644 115.41 320.822 114.828 323.48C114.637 324.498 114.17 325.451 113.472 326.242Z" fill="white"/>
<path d="M87.3878 346.224C88.1045 345.434 88.9908 344.848 89.9681 344.516C90.7979 344.201 91.6689 344.031 92.5483 344.011C92.818 343.996 93.0883 343.996 93.358 344.011C95.3565 344.159 97.2754 344.914 98.8917 346.189C100.845 347.76 102 349.927 102 352.052C101.997 353.299 101.591 354.507 100.852 355.467C100.803 355.528 100.62 355.721 100.448 355.903C100.216 356.174 99.9577 356.416 99.6767 356.624C98.4181 357.505 96.9529 357.981 95.4525 357.998C94.7002 358.014 93.9488 357.935 93.2137 357.763C91.4645 357.395 89.8349 356.54 88.4861 355.285C88.1588 354.945 87.8486 354.586 87.5567 354.211C86.5429 352.856 86.0008 351.441 86.0008 349.988C85.9906 349.406 86.0752 348.827 86.2508 348.276C86.393 347.826 86.5908 347.399 86.8386 347.005C87.0016 346.733 87.1891 346.479 87.3983 346.246L87.3878 346.224Z" fill="white"/>
</g>
<defs>
<clipPath id="clip0_2692_3100">
<rect width="459" height="459" fill="white"/>
</clipPath>
</defs>
</svg>
