<svg width="301" height="40" viewBox="0 0 301 40" fill="none" xmlns="http://www.w3.org/2000/svg">
<path opacity="0.5" d="M300.971 4.23946C301.103 3.70324 300.776 3.16134 300.239 3.02909L291.501 0.873952C290.965 0.741702 290.423 1.06918 290.291 1.6054C290.159 2.14162 290.486 2.68351 291.022 2.81576L298.79 4.73145L296.874 12.4987C296.742 13.0349 297.069 13.5768 297.605 13.7091C298.142 13.8413 298.684 13.5138 298.816 12.9776L300.971 4.23946ZM1 4L0.403441 4.80257C0.91329 5.18155 1.45821 5.57168 2.0378 5.97185L2.60597 5.14893L3.17414 4.32602C2.61226 3.93808 2.08636 3.5615 1.59656 3.19743L1 4ZM5.90622 7.29813L5.3808 8.14898C6.44516 8.80624 7.58951 9.48306 8.81282 10.1755L9.30542 9.30524L9.79801 8.43498C8.59548 7.7543 7.47308 7.09041 6.43164 6.44729L5.90622 7.29813ZM12.7792 11.1987L12.3139 12.0839C13.4475 12.6797 14.6351 13.284 15.8763 13.8945L16.3176 12.9972L16.759 12.0999C15.5335 11.4971 14.3618 10.9008 13.2445 10.3136L12.7792 11.1987ZM19.8737 14.6937L19.4537 15.6012C20.6204 16.1412 21.8274 16.6845 23.0743 17.2294L23.4748 16.3131L23.8752 15.3967C22.6412 14.8575 21.4473 14.3201 20.2938 13.7862L19.8737 14.6937ZM27.1117 17.8589L26.7296 18.783C27.9255 19.2775 29.1538 19.7722 30.4142 20.266L30.779 19.3349L31.1437 18.4038C29.8948 17.9145 28.6781 17.4244 27.4938 16.9348L27.1117 17.8589ZM34.4731 20.7443L34.1248 21.6817C35.3428 22.1342 36.5878 22.5851 37.8597 23.0335L38.1922 22.0904L38.5246 21.1472C37.2633 20.7026 36.0288 20.2555 34.8214 19.8069L34.4731 20.7443ZM41.9349 23.3757L41.6177 24.324C42.8547 24.7378 44.115 25.1486 45.3985 25.5558L45.7009 24.6026L46.0033 23.6495C44.7297 23.2454 43.4793 22.8378 42.2521 22.4273L41.9349 23.3757ZM49.4779 25.7697L49.1899 26.7273C50.4358 27.1021 51.7019 27.4731 52.9881 27.8398L53.2623 26.8781L53.5364 25.9164C52.2595 25.5524 51.0026 25.1841 49.766 24.8121L49.4779 25.7697ZM57.0673 27.9335L56.8068 28.899C58.0686 29.2394 59.3486 29.5754 60.6465 29.9063L60.8936 28.9373L61.1407 27.9684C59.8517 27.6397 58.5807 27.306 57.3277 26.968L57.0673 27.9335ZM64.7419 29.8908L64.5079 30.8631C65.7773 31.1685 67.0628 31.469 68.3644 31.764L68.5855 30.7888L68.8066 29.8135C67.5135 29.5204 66.2366 29.2219 64.9758 28.9186L64.7419 29.8908ZM72.4387 31.6359L72.2303 32.614C73.5117 32.887 74.8079 33.1547 76.1187 33.4166L76.3146 32.436L76.5106 31.4554C75.2081 31.1951 73.9202 30.9292 72.6472 30.6579L72.4387 31.6359ZM80.2075 33.1883L80.024 34.1713C81.3065 34.4108 82.6025 34.6447 83.9118 34.8726L84.0833 33.8875L84.2548 32.9023C82.9536 32.6758 81.6657 32.4433 80.3911 32.2053L80.2075 33.1883ZM87.9831 34.5419L87.8235 35.5291C89.122 35.7389 90.433 35.9428 91.7564 36.1404L91.904 35.1513L92.0517 34.1623C90.7362 33.9659 89.4332 33.7633 88.1426 33.5547L87.9831 34.5419ZM95.8009 35.7096L95.6649 36.7004C96.9648 36.8788 98.2762 37.0512 99.599 37.2171L99.7235 36.2249L99.8479 35.2327C98.5328 35.0677 97.2292 34.8964 95.937 34.7189L95.8009 35.7096ZM103.656 36.6952L103.543 37.6888C104.843 37.8366 106.152 37.9781 107.473 38.1132L107.575 37.1184L107.676 36.1236C106.363 35.9893 105.061 35.8485 103.769 35.7016L103.656 36.6952ZM111.52 37.4995L111.43 38.4954C112.734 38.614 114.048 38.7263 115.373 38.8319L115.452 37.8351L115.532 36.8383C114.215 36.7332 112.908 36.6216 111.611 36.5036L111.52 37.4995ZM119.393 38.1277L119.324 39.1253C120.637 39.2156 121.959 39.2993 123.291 39.3763L123.348 38.378L123.406 37.3796C122.082 37.3031 120.767 37.2198 119.461 37.13L119.393 38.1277ZM127.283 38.5843L127.236 39.5832C128.552 39.6452 129.878 39.7005 131.212 39.7491L131.248 38.7497L131.284 37.7504C129.958 37.7021 128.639 37.6471 127.33 37.5854L127.283 38.5843ZM135.185 38.8723L135.159 39.872C136.474 39.9061 137.797 39.9335 139.129 39.9541L139.144 38.9542L139.16 37.9543C137.835 37.9338 136.519 37.9066 135.211 37.8727L135.185 38.8723ZM143.093 38.9949L143.088 39.9949C143.752 39.9983 144.417 40 145.085 40V39V38C144.421 38 143.758 37.9983 143.098 37.9949L143.093 38.9949ZM145.085 39V40C145.76 40 146.434 39.9982 147.107 39.9947L147.101 38.9947L147.096 37.9948C146.427 37.9982 145.757 38 145.085 38V39ZM151.107 38.9531L151.123 39.953C152.471 39.932 153.812 39.9041 155.148 39.8695L155.122 38.8698L155.096 37.8702C153.767 37.9046 152.433 37.9324 151.092 37.9533L151.107 38.9531ZM159.118 38.7455L159.154 39.7448C160.504 39.6958 161.847 39.64 163.183 39.5776L163.136 38.5787L163.089 37.5798C161.76 37.6419 160.424 37.6974 159.081 37.7461L159.118 38.7455ZM167.131 38.3713L167.188 39.3697C168.535 39.2927 169.875 39.2092 171.207 39.1192L171.14 38.1214L171.073 37.1237C169.747 37.2133 168.414 37.2964 167.074 37.3729L167.131 38.3713ZM175.139 37.8304L175.216 38.8274C176.558 38.7228 177.891 38.6117 179.217 38.4944L179.129 37.4983L179.04 36.5022C177.722 36.6189 176.395 36.7294 175.061 36.8334L175.139 37.8304ZM183.129 37.1232L183.228 38.1183C184.566 37.9858 185.895 37.8471 187.216 37.7024L187.107 36.7083L186.998 35.7143C185.684 35.8583 184.361 35.9963 183.031 36.128L183.129 37.1232ZM191.098 36.2498L191.218 37.2427C192.557 37.0817 193.887 36.9147 195.207 36.7418L195.078 35.7503L194.948 34.7588C193.634 34.9307 192.311 35.0969 190.979 35.257L191.098 36.2498ZM199.039 35.2107L199.179 36.2008C200.519 36.0111 201.849 35.8155 203.17 35.6143L203.019 34.6258L202.868 33.6372C201.555 33.8373 200.232 34.0319 198.899 34.2206L199.039 35.2107ZM206.976 34.0012L207.137 34.9882C208.467 34.771 209.786 34.5483 211.095 34.3203L210.923 33.3352L210.752 32.35C209.45 32.5768 208.138 32.7983 206.815 33.0143L206.976 34.0012ZM214.88 32.6239L215.063 33.6071C216.389 33.3613 217.704 33.1101 219.008 32.854L218.815 31.8728L218.622 30.8915C217.326 31.1463 216.018 31.3961 214.698 31.6406L214.88 32.6239ZM222.737 31.0801L222.94 32.0592C224.268 31.7834 225.582 31.5026 226.884 31.2171L226.67 30.2403L226.455 29.2636C225.161 29.5474 223.853 29.8267 222.533 30.101L222.737 31.0801ZM230.581 29.3599L230.806 30.3343C232.121 30.0307 233.421 29.7227 234.708 29.4106L234.472 28.4388L234.236 27.467C232.957 27.7774 231.664 28.0837 230.356 28.3856L230.581 29.3599ZM238.369 27.4696L238.616 28.4387C239.931 28.1036 241.231 27.7645 242.514 27.4218L242.256 26.4557L241.998 25.4895C240.722 25.8302 239.43 26.1674 238.122 26.5006L238.369 27.4696ZM246.122 25.399L246.392 26.362C247.696 25.9974 248.982 25.6294 250.25 25.2586L249.969 24.2988L249.689 23.339C248.428 23.7076 247.15 24.0734 245.853 24.4359L246.122 25.399ZM253.805 23.1517L254.098 24.108C255.402 23.7095 256.684 23.3084 257.946 22.9054L257.642 21.9528L257.338 21.0002C256.084 21.4007 254.809 21.7993 253.513 22.1954L253.805 23.1517ZM261.459 20.7067L261.775 21.6553C263.07 21.2234 264.34 20.7901 265.585 20.356L265.256 19.4117L264.927 18.4674C263.69 18.8985 262.428 19.329 261.142 19.7581L261.459 20.7067ZM269.033 18.066L269.375 19.0056C270.662 18.5371 271.919 18.0688 273.147 17.6015L272.791 16.6669L272.435 15.7323C271.217 16.1962 269.969 16.6612 268.691 17.1263L269.033 18.066ZM276.528 15.2117L276.898 16.1406C278.177 15.6308 279.421 15.1234 280.627 14.6197L280.241 13.697L279.856 12.7742C278.66 13.2736 277.427 13.7769 276.158 14.2827L276.528 15.2117ZM283.927 12.1192L284.329 13.0349C285.6 12.477 286.822 11.9255 287.996 11.3822L287.576 10.4747L287.156 9.56724C285.995 10.1049 284.784 10.6509 283.525 11.2035L283.927 12.1192ZM291.187 8.75377L291.628 9.65137C292.906 9.02371 294.112 8.41034 295.245 7.81436L294.779 6.92936L294.314 6.04437C293.198 6.63126 292.008 7.23623 290.746 7.85618L291.187 8.75377ZM298.281 5.01077L298.778 5.87852C299.387 5.52926 299.967 5.18812 300.517 4.85586L300 4L299.483 3.14414C298.947 3.46781 298.381 3.80103 297.784 4.14302L298.281 5.01077Z" fill="#9164CC"/>
</svg>
