<svg width="313" height="32" viewBox="0 0 313 32" fill="none" xmlns="http://www.w3.org/2000/svg">
<path opacity="0.5" d="M312.929 26.631C313.133 27.1443 312.882 27.7256 312.369 27.9294L304.004 31.2506C303.491 31.4544 302.91 31.2035 302.706 30.6902C302.502 30.1769 302.753 29.5955 303.266 29.3917L310.702 26.4396L307.749 19.0042C307.546 18.4909 307.797 17.9096 308.31 17.7058C308.823 17.502 309.404 17.7529 309.608 18.2662L312.929 26.631ZM1 27L0.531108 26.1167C1.09549 25.8171 1.70125 25.5081 2.34791 25.1907L2.78854 26.0884L3.22918 26.9861C2.59978 27.295 2.01296 27.5944 1.46889 27.8833L1 27ZM6.45208 24.3968L6.05175 23.4804C7.20757 22.9755 8.45143 22.4555 9.78217 21.9235L10.1533 22.8521L10.5245 23.7807C9.21196 24.3053 7.9876 24.8172 6.8524 25.3132L6.45208 24.3968ZM13.9383 21.3964L13.5908 20.4587C14.7998 20.0107 16.0659 19.5565 17.3885 19.098L17.7161 20.0429L18.0436 20.9877C16.7339 21.4417 15.4811 21.8911 14.2858 22.3341L13.9383 21.3964ZM21.5334 18.76L21.2235 17.8092C22.4681 17.4035 23.7552 16.9958 25.0846 16.587L25.3785 17.5428L25.6724 18.4987C24.3535 18.9042 23.077 19.3086 21.8433 19.7107L21.5334 18.76ZM29.2432 16.3873L28.964 15.4271C30.2282 15.0595 31.5261 14.692 32.8576 14.3253L33.1231 15.2895L33.3886 16.2536C32.0662 16.6177 30.7774 16.9826 29.5224 17.3476L29.2432 16.3873ZM37.0162 14.2456L36.7636 13.278C38.0418 12.9444 39.3479 12.6121 40.6816 12.2819L40.922 13.2526L41.1623 14.2233C39.8367 14.5515 38.5388 14.8817 37.2688 15.2132L37.0162 14.2456ZM44.8405 12.3076L44.6119 11.334C45.9025 11.0309 47.217 10.7301 48.5551 10.4321L48.7725 11.4082L48.9899 12.3842C47.6593 12.6806 46.3523 12.9797 45.0691 13.2811L44.8405 12.3076ZM52.719 10.5523L52.5124 9.5739C53.8158 9.29877 55.14 9.02657 56.4849 8.75774L56.6809 9.73834L56.8769 10.7189C55.5391 10.9864 54.2219 11.2571 52.9255 11.5308L52.719 10.5523ZM60.625 8.97119L60.4392 7.98862C61.7436 7.74186 63.0662 7.49844 64.407 7.25874L64.583 8.24313L64.7589 9.22752C63.4248 9.46605 62.1087 9.70825 60.8109 9.95376L60.625 8.97119ZM68.5578 7.55267L68.3915 6.5666C69.7092 6.34432 71.0434 6.12577 72.394 5.91125L72.5509 6.89887L72.7077 7.88649C71.3634 8.1 70.0355 8.31753 68.7241 8.53874L68.5578 7.55267ZM76.5239 6.28684L76.3763 5.2978C77.6927 5.10127 79.0238 4.90867 80.3697 4.72028L80.5083 5.71062L80.647 6.70097C79.3071 6.88852 77.982 7.08024 76.6716 7.27588L76.5239 6.28684ZM84.5137 5.16835L84.384 4.1768C85.7062 4.00382 87.0419 3.83497 88.391 3.67051L88.512 4.66316L88.633 5.65582C87.2897 5.81957 85.9598 5.98767 84.6435 6.1599L84.5137 5.16835ZM92.5073 4.19364L92.3949 3.19998C93.7249 3.04946 95.0675 2.90326 96.4225 2.76159L96.5265 3.75617L96.6304 4.75075C95.2811 4.89182 93.9442 5.03741 92.6198 5.18729L92.5073 4.19364ZM100.533 3.35425L100.437 2.35884C101.765 2.23121 103.104 2.10799 104.455 1.98936L104.542 2.98553L104.63 3.98169C103.285 4.09984 101.951 4.22256 100.628 4.34966L100.533 3.35425ZM108.578 2.64766L108.499 1.65081C109.825 1.54522 111.162 1.4441 112.509 1.34763L112.58 2.34508L112.652 3.34252C111.31 3.43862 109.978 3.53933 108.658 3.6445L108.578 2.64766ZM116.608 2.0727L116.544 1.07472C117.879 0.98974 119.224 0.909353 120.578 0.833719L120.634 1.83216L120.69 2.83061C119.34 2.90595 118.001 2.98603 116.671 3.07067L116.608 2.0727ZM124.653 1.62328L124.605 0.624432C125.946 0.55987 127.297 0.499992 128.657 0.444952L128.698 1.44413L128.738 2.44332C127.383 2.49815 126.037 2.5578 124.701 2.62212L124.653 1.62328ZM132.709 1.29691L132.676 0.297453C134.017 0.253237 135.367 0.213741 136.726 0.17911L136.752 1.17879L136.777 2.17846C135.423 2.21297 134.078 2.25232 132.741 2.29637L132.709 1.29691ZM140.771 1.09116L140.753 0.0913277C142.092 0.06703 143.441 0.047472 144.797 0.0327854L144.808 1.03273L144.819 2.03267C143.467 2.0473 142.124 2.06679 140.789 2.091L140.771 1.09116ZM148.836 1.00367L148.832 0.00367355C149.509 0.00122833 150.187 0 150.868 0V1V2C150.19 2 149.514 2.00122 148.839 2.00366L148.836 1.00367ZM150.868 1V0C151.525 0 152.181 0.00114632 152.836 0.00342941L152.833 1.00342L152.829 2.00342C152.177 2.00114 151.523 2 150.868 2V1ZM156.738 1.03057L156.749 0.0306225C158.06 0.0442772 159.365 0.0624428 160.665 0.0850029L160.647 1.08485L160.63 2.0847C159.335 2.06222 158.034 2.04412 156.728 2.03051L156.738 1.03057ZM164.549 1.1661L164.573 0.166393C165.885 0.198271 167.191 0.234589 168.491 0.275225L168.46 1.27474L168.429 2.27425C167.133 2.23376 165.832 2.19757 164.524 2.1658L164.549 1.1661ZM172.355 1.41001L172.393 0.410744C173.707 0.460926 175.014 0.515476 176.314 0.574261L176.269 1.57324L176.224 2.57222C174.928 2.51365 173.626 2.45929 172.317 2.40928L172.355 1.41001ZM180.155 1.76245L180.207 0.763813C181.522 0.832415 182.83 0.9053 184.131 0.982334L184.072 1.98059L184.013 2.97884C182.717 2.90208 181.413 2.82945 180.103 2.7611L180.155 1.76245ZM187.962 2.22459L188.028 1.22678C189.34 1.31364 190.643 1.40467 191.94 1.49972L191.867 2.49704L191.794 3.49436C190.502 3.39966 189.203 3.30895 187.896 3.2224L187.962 2.22459ZM195.761 2.79636L195.841 1.79957C197.148 1.90465 198.446 2.01376 199.737 2.12674L199.65 3.12293L199.563 4.11912C198.277 4.00655 196.983 3.89784 195.681 3.79314L195.761 2.79636ZM203.548 3.47821L203.643 2.48267C204.945 2.60598 206.238 2.73318 207.522 2.8641L207.421 3.85894L207.32 4.85379C206.04 4.72335 204.751 4.59662 203.454 4.47375L203.548 3.47821ZM211.321 4.27064L211.43 3.27654C212.734 3.41903 214.03 3.56528 215.316 3.71511L215.2 4.70839L215.084 5.70166C213.803 5.55239 212.512 5.40668 211.213 5.26472L211.321 4.27064ZM219.074 5.17414L219.197 4.18173C220.505 4.34376 221.803 4.50942 223.09 4.67851L222.959 5.66999L222.829 6.66147C221.547 6.49302 220.254 6.32798 218.951 6.16655L219.074 5.17414ZM226.821 6.19175L226.958 5.20126C228.263 5.38246 229.556 5.56709 230.838 5.75494L230.693 6.74437L230.548 7.73381C229.271 7.54669 227.983 7.36276 226.683 7.18224L226.821 6.19175ZM234.562 7.32621L234.715 6.3379C236.012 6.53801 237.297 6.7413 238.57 6.94752L238.41 7.93464L238.25 8.92176C236.982 8.71635 235.702 8.51385 234.41 8.31452L234.562 7.32621ZM242.269 8.57552L242.437 7.58967C243.739 7.81102 245.027 8.0353 246.301 8.26225L246.125 9.24675L245.95 10.2313C244.681 10.0052 243.398 9.78184 242.102 9.56137L242.269 8.57552ZM249.962 9.94597L250.145 8.9629C251.44 9.20425 252.719 9.44818 253.983 9.6944L253.792 10.6759L253.601 11.6575C252.342 11.4123 251.068 11.1694 249.778 10.929L249.962 9.94597ZM257.636 11.4415L257.836 10.4616C259.132 10.7254 260.411 10.9913 261.672 11.2591L261.464 12.2373L261.256 13.2155C260.001 12.9489 258.728 12.6841 257.437 12.4214L257.636 11.4415ZM265.276 13.0643L265.492 12.088C266.781 12.3735 268.05 12.6607 269.299 12.9491L269.074 13.9235L268.849 14.8978C267.606 14.6108 266.343 14.3249 265.06 14.0406L265.276 13.0643ZM272.884 14.8222L273.118 13.85C274.412 14.1618 275.683 14.4744 276.929 14.7874L276.685 15.7573L276.442 16.7271C275.202 16.4157 273.938 16.1046 272.65 15.7944L272.884 14.8222ZM280.473 16.7292L280.727 15.7619C282.018 16.1002 283.28 16.4384 284.513 16.7757L284.249 17.7402L283.985 18.7048C282.759 18.3694 281.504 18.0331 280.22 17.6966L280.473 16.7292ZM288.012 18.7929L288.287 17.8314C289.577 18.2004 290.831 18.5676 292.048 18.9321L291.761 19.8901L291.474 20.8481C290.265 20.486 289.019 20.1211 287.737 19.7543L288.012 18.7929ZM295.495 21.0354L295.794 20.0814C297.085 20.487 298.326 20.888 299.519 21.2831L299.205 22.2324L298.89 23.1816C297.707 22.7898 296.475 22.392 295.195 21.9894L295.495 21.0354ZM302.898 23.4912L303.229 22.5477C304.539 23.0078 305.777 23.4574 306.939 23.8944L306.587 24.8304L306.235 25.7665C305.087 25.335 303.864 24.8903 302.566 24.4348L302.898 23.4912ZM310.209 26.2479L310.587 25.3223C311.221 25.5818 311.825 25.8351 312.396 26.0819L312 27L311.604 27.9181C311.045 27.6768 310.453 27.4284 309.83 27.1735L310.209 26.2479Z" fill="#9164CC"/>
</svg>
