<svg width="80" height="80" viewBox="0 0 80 80" fill="none" xmlns="http://www.w3.org/2000/svg">
<g opacity="0.1">
<path d="M60.3088 47.484C56.7633 48.6357 53.2773 49.901 49.7923 51.2237C49.7288 51.211 49.6539 51.2282 49.5715 51.2654L48.8611 51.5772C48.6452 51.6663 48.423 51.7416 48.2071 51.8307C48.2133 51.8444 48.2232 51.8482 48.2294 51.8619L48.1745 51.8867C47.7899 52.06 47.835 52.7832 48.3474 52.7836C50.857 52.7431 53.1608 52.374 55.4229 51.7842C52.1248 55.0797 49.2558 58.6857 45.8042 62.0256C45.6329 62.1771 45.5451 62.3489 45.5109 62.5295C41.2318 60.3852 36.7472 58.573 32.3234 56.8408C27.7512 55.1093 23.1648 53.5661 18.2007 53.5314C16.8617 53.5482 16.6988 55.3317 17.9882 55.6263C23.1561 56.6266 28.0215 58.2755 32.831 60.2221C37.1426 61.9801 41.5493 63.9678 46.2567 64.3496C46.8351 64.3864 47.0498 63.9096 46.9077 63.5027C46.9627 63.478 47.0114 63.4395 47.0739 63.3948C52.3449 59.4911 56.0567 53.9604 61.2198 49.8906C61.2572 49.8819 61.2884 49.8596 61.3259 49.851C61.3197 49.8373 61.3097 49.8335 61.3035 49.8198C61.4048 49.7328 61.5122 49.6596 61.6235 49.5765C62.8644 48.6455 61.5493 47.0654 60.3088 47.484Z" fill="#8B1B80"/>
<path d="M30.3278 45.1173C29.5212 45.8939 25.0442 41.7155 24.354 41.1922C22.179 39.5371 20.3702 37.5765 18.5431 35.4837C17.9579 34.8634 17.1353 35.2011 17.0123 35.8265C16.8839 35.8348 16.7256 35.8318 16.6171 35.8477C16.2967 35.8516 16.0406 36.0166 15.9758 36.368C15.1903 41.8108 16.5906 47.8879 18.2669 53.0557C18.5908 53.8845 20.0957 53.4294 19.8731 52.5136C19.3418 49.8864 18.9017 47.1685 18.5713 44.4921C18.3938 42.7051 18.5123 40.7682 18.3712 38.9152C19.9542 41.2914 22.3441 43.2215 24.6554 44.7574C26.2913 45.8211 29.509 48.1216 30.9765 45.7502C31.2558 45.3435 30.7129 44.762 30.3278 45.1173Z" fill="#8B1B80"/>
<path d="M49.062 48.8516C48.4033 45.5383 46.9157 42.549 46.5464 39.1631C46.1178 35.2422 46.3796 31.0019 48.3022 27.4589C49.2563 25.7815 46.9634 23.9564 45.8111 25.6158C45.8073 25.6257 45.8035 25.6357 45.7998 25.6456C43.7817 28.6286 41.7274 31.6775 39.4681 34.4553C37.0209 37.5491 34.0987 39.8821 31.3958 42.6285C30.6005 43.3752 31.3125 44.8635 32.4163 44.3248C36.6152 42.3499 40.0529 38.6859 43.0587 34.7786C42.8961 36.8924 42.9951 39.037 43.3187 41.1299C43.6313 43.1617 44.9181 51.5534 48.2092 50.4421C48.8045 50.2233 49.1712 49.4055 49.062 48.8516Z" fill="#8B1B80"/>
<path d="M51.496 20.2284C51.1717 19.912 50.6637 19.7196 50.2067 19.9338C49.9544 20.0888 49.7168 20.295 49.5291 20.52C49.4993 20.0873 49.2433 19.831 48.9068 19.8174C48.0059 19.6699 47.191 20.318 46.8968 21.095C46.5573 21.9915 46.858 23.0621 47.6616 23.6169C48.6344 24.2359 49.9613 24.1006 50.8549 23.4253C51.7522 22.74 52.4004 21.2087 51.496 20.2284ZM48.7404 21.9412L48.7038 21.6768L48.8067 21.4652C48.8915 21.4517 49.3533 21.2849 49.4274 21.1193C49.4907 21.223 49.5814 21.3143 49.691 21.3558C49.6934 21.3795 49.7467 21.4794 49.759 21.5069C49.8351 21.8774 49.0214 22.1615 48.7404 21.9412Z" fill="#8B1B80"/>
<path d="M20.5081 30.6238C20.4637 29.7186 20.0673 28.9307 19.4086 28.294C18.719 27.5886 17.9875 27.5052 17.0717 27.7279C16.8983 27.7648 16.7796 27.8679 16.7168 28.0035C15.0415 27.9158 13.6685 29.6168 13.7641 31.259C13.8619 33.0159 15.5804 34.3728 17.3373 34.275C19.1766 34.1401 20.5833 32.4404 20.5081 30.6238ZM17.3721 31.9875C16.8182 32.0967 16.1923 31.7344 16.0832 31.1805C15.9929 30.5768 16.5881 30.0277 17.132 29.9148C17.3641 29.8432 17.5378 29.7154 17.6617 29.5687C17.9327 29.7852 18.1465 30.0028 18.2476 30.3373C18.4475 30.9824 18.0582 31.8601 17.3721 31.9875Z" fill="#8B1B80"/>
<path d="M67.3784 42.9514C67.2266 42.8711 67.0559 42.8406 66.89 42.8576C66.8806 42.6718 66.8177 42.4771 66.6661 42.3058C65.4562 40.9592 63.3458 41.299 62.2146 42.6018C61.0872 43.8947 61.2304 45.8624 62.432 47.0805C63.6109 48.3584 65.5266 48.503 66.9512 47.448C68.2934 46.43 69.1654 43.947 67.3784 42.9514ZM65.3536 44.9295C65.1384 45.1669 64.905 45.2722 64.6676 45.057C63.7448 44.3658 64.9118 43.9308 65.6226 43.8583C65.5154 44.2618 65.5839 44.6523 65.3536 44.9295Z" fill="#8B1B80"/>
<path d="M46.6132 56.0108C45.8254 56.7376 44.8219 57.8837 44.7696 59.0143C44.7134 59.8244 45.8473 60.3791 46.3833 59.6254C46.6627 59.2186 46.7826 58.7515 46.9984 58.3321C47.2279 57.9065 47.5344 57.5784 47.8508 57.254C48.5888 56.5084 47.3185 55.3212 46.6132 56.0108Z" fill="#8B1B80"/>
</g>
</svg>
