<svg width="54" height="60" viewBox="0 0 54 60" fill="none" xmlns="http://www.w3.org/2000/svg">
<g opacity="0.1">
<path d="M11.8613 17.3817C8.80961 26.0997 5.7649 34.8173 2.72722 43.5346C2.32936 44.7266 4.13019 45.4988 4.58025 44.3292C7.62908 35.6099 10.6738 26.8923 13.7144 18.1763C14.1072 16.972 12.2629 16.1811 11.8613 17.3817Z" fill="#8B1B80"/>
<path d="M13.7205 17.6095C23.3642 21.3482 32.9674 25.1814 42.4895 29.2036C43.6552 29.7035 44.4398 27.8739 43.274 27.374C33.7519 23.3519 24.0965 19.4963 14.4529 15.7576C13.2988 15.3746 12.4842 17.1302 13.7205 17.6095Z" fill="#8B1B80"/>
<path d="M42.167 27.5298C38.9756 37.6624 35.732 47.7726 32.5184 57.9567C32.1206 59.1487 33.9736 59.9433 34.3715 58.7513C37.5629 48.6187 40.8065 38.5085 44.02 28.3244C44.3995 27.1753 42.5686 26.3292 42.167 27.5298Z" fill="#8B1B80"/>
<path d="M3.78502 43.4696C3.66722 43.4801 3.59661 43.5006 3.47882 43.5111C3.17261 43.5527 2.78538 43.7832 2.71234 44.0977C2.21935 45.6557 3.3858 46.0338 4.71786 46.5542C7.99935 47.7884 11.247 48.9574 14.5198 50.1879C17.6012 51.3364 20.701 52.4419 23.8346 53.6127C26.8725 54.7425 30.6136 55.5535 32.9474 57.9169C33.8333 58.8053 35.0608 57.2877 34.1786 56.3908C32.6136 54.8045 30.6428 54.0204 28.5491 53.2345C25.7548 52.2091 23.0127 51.2061 20.2308 50.1759C17.6366 49.2364 14.9902 48.2744 12.4181 47.2833C10.9682 46.7735 9.48456 46.1983 8.026 45.6847C7.36882 45.4639 6.73374 45.1916 6.08895 44.9659C5.74967 44.8205 5.43178 44.7452 5.0925 44.5997C4.47654 44.1627 4.1629 44.4858 4.18237 45.5212C5.29911 45.3188 5.05836 43.3343 3.78502 43.4696Z" fill="#8B1B80"/>
<path d="M25.4125 21.4232C23.2977 26.211 21.3395 31.0659 19.4682 35.9581C18.5731 38.3097 17.7118 40.7267 16.8689 43.1007C16.4459 44.2311 15.3251 46.0283 15.8973 47.2398C16.1114 47.6773 16.7059 48.0441 17.211 47.8031L17.4215 47.7205C17.8609 47.5123 18.2034 46.9779 17.9777 46.4235L17.9225 46.2879C17.3753 45.1381 15.5018 45.8804 16.0527 47.0217L16.1078 47.1572L16.664 45.8601L16.4535 45.9428L17.7672 46.5061C17.5531 46.0685 18.6911 43.9431 18.876 43.3919C19.2142 42.459 19.5832 41.4783 19.9251 40.5369C20.695 38.4773 21.4632 36.4136 22.2297 34.3458C23.813 30.2453 25.4961 26.1842 27.279 22.1626C27.7591 21.0668 25.9061 20.2722 25.4125 21.4232Z" fill="#8B1B80"/>
<path d="M27.8993 22.2049C24.3198 30.6965 21.0779 39.3296 18.1736 48.104C17.7758 49.296 19.5766 50.0683 20.0267 48.8986C22.9276 40.116 26.1695 31.4829 29.7524 22.9995C30.1937 21.8261 28.3494 21.0352 27.8993 22.2049Z" fill="#8B1B80"/>
<path d="M25.6159 22.8222C23.6564 27.3919 21.8227 32.0765 20.2982 36.8326C19.5835 39.0277 18.8989 41.2967 18.2849 43.5452C17.9201 44.9243 16.8006 47.0068 17.3403 48.4382C17.4006 48.6012 17.5049 48.745 17.6417 48.8539C17.7785 48.9628 17.9425 49.0325 18.1158 49.0554C18.2336 49.0449 18.3293 49.086 18.3999 49.0654C18.7797 49.1164 19.2848 48.8754 19.4505 48.4888L19.5758 48.1968C19.701 47.9048 19.7152 47.4634 19.4723 47.2372C19.3987 47.1446 19.3465 47.1223 19.2692 47.0383C18.4054 46.0984 16.7931 47.2883 17.6877 48.1804C17.6874 48.0239 17.6789 47.8675 17.6621 47.7118C18.0309 47.5242 18.3438 47.3228 18.7127 47.1352C19.9264 47.2591 20.6605 42.4487 20.9589 41.4886C21.5625 39.4085 22.2145 37.3595 22.9573 35.3391C24.2895 31.4157 25.8439 27.5266 27.4756 23.7214C27.9625 22.4658 26.1095 21.6712 25.6159 22.8222Z" fill="#8B1B80"/>
<path d="M8.2036 30.6193C18.493 33.6688 28.4789 37.6662 37.9991 42.6535C39.1243 43.2479 39.9089 41.4183 38.7836 40.824C29.2758 35.8317 19.2812 31.8307 8.98814 28.7897C7.75107 28.4321 6.96653 30.2617 8.2036 30.6193Z" fill="#8B1B80"/>
<path d="M9.53936 31.1311L8.22572 30.5677C7.05997 30.0679 6.27543 31.8974 7.44118 32.3973L28.677 41.5035C31.2608 42.6114 33.9912 43.4975 36.1073 45.432C37.0638 46.2997 38.295 44.7736 37.3385 43.9058C33.6684 40.6236 28.1258 39.1621 23.6455 37.2409L8.2036 30.6193L7.41908 32.4489L8.73273 33.0122C9.97278 33.4829 10.7573 31.6533 9.53936 31.1311Z" fill="#8B1B80"/>
<path d="M9.82456 32.2194C19.2293 34.8467 28.3596 38.3804 37.0842 42.7697C38.2094 43.364 38.994 41.5345 37.8687 40.9401C28.9746 36.4903 19.667 32.918 10.0814 30.2754C8.84065 29.9264 8.58749 31.8618 9.82456 32.2194Z" fill="#8B1B80"/>
<path d="M26.729 20.1065C26.7578 19.8951 24.8204 17.9763 24.5535 17.6381C23.7958 16.5709 23.1087 15.4831 22.5887 14.294C21.4797 11.7643 20.7944 7.71811 23.1585 5.71167C24.98 4.15389 26.7003 5.52207 26.9528 7.62344C27.1378 9.06541 27.0651 10.5799 27.0182 12.0343C26.8877 14.7646 26.5349 17.4607 26.1909 20.1605C26.0741 21.2493 27.6602 21.7057 28.0948 20.6922C31.0347 13.9804 41.5395 9.65825 47.2334 16.1471C50.9334 20.2963 45.6521 22.933 41.9991 23.2377C39.9675 23.382 37.9247 23.3269 35.9003 23.0732C34.0846 22.8641 30.7269 22.6242 29.7221 20.9324C29.3274 21.4444 28.9512 21.9136 28.5652 22.4294C32.7724 24.5792 37.6292 25.2382 42.2181 23.9519C45.6374 22.9674 49.2663 20.0288 48.0158 16.0758C46.8726 12.2807 41.8876 11.8007 38.6157 12.4416C34.4466 13.2774 31.0031 16.0718 28.3676 19.2635C27.5532 20.226 29.0955 21.4569 29.9187 20.498C31.7029 18.3548 33.8343 16.4825 36.3645 15.2896C38.8726 14.1483 43.6947 13.1348 45.5663 15.8797C48.3588 19.8634 42.1583 22.2179 39.1876 22.5406C35.7311 22.9396 32.3611 22.1758 29.2755 20.629C28.271 20.1372 27.6375 21.3503 28.1186 22.126C29.3933 24.2691 32.4662 24.6208 34.7477 24.9686C37.5482 25.4272 40.6151 25.5525 43.4513 25.1112C47.4313 24.4282 51.9906 21.4818 50.1007 16.858C48.3416 12.6259 42.9022 10.9239 38.6656 11.1003C33.0687 11.3747 28.4414 14.9123 26.3161 19.8684C26.9395 20.0239 27.5967 20.2447 28.2201 20.4001C28.5936 17.3673 29.0157 14.3654 29.0617 11.3039C29.1272 9.27783 29.2908 6.73458 28.3148 4.8314C26.6157 1.54023 22.5164 2.74157 20.8322 5.32427C18.5035 8.8814 19.8679 13.6256 21.8849 16.9921C22.786 18.5174 24.3864 21.6544 26.3309 22.0916C27.5777 22.4025 28.6879 21.5668 28.706 20.3238C28.7639 19.108 26.7568 18.8168 26.729 20.1065Z" fill="#8B1B80"/>
<path d="M26.6244 4.06587C24.0044 3.45081 21.2906 5.48017 21.074 8.12276C20.9904 9.39869 22.9453 9.6675 23.0376 8.39531C23.0678 8.01244 23.18 7.64109 23.3668 7.306C23.5535 6.97091 23.8105 6.67976 24.1206 6.45194C24.4307 6.22412 24.7869 6.06487 25.1653 5.98478C25.5438 5.9047 25.9358 5.90561 26.3154 5.98748C27.5746 6.29354 27.8314 4.34954 26.6244 4.06587Z" fill="#8B1B80"/>
</g>
</svg>
