<svg width="87" height="70" viewBox="0 0 87 70" fill="none" xmlns="http://www.w3.org/2000/svg">
<g opacity="0.1">
<path d="M31.201 15.27C35.0667 17.4689 38.6825 19.3345 40.5999 23.3926C40.8238 23.8076 41.1515 24.1656 41.3992 24.5011C43.7535 27.3787 42.4019 30.4536 39.5698 31.7816C36.2438 33.3029 33.0111 33.6472 29.7676 31.1116C28.8489 30.4021 27.2369 30.2681 25.9442 30.2295C23.094 30.1598 20.2295 30.4325 17.4017 30.2829C14.9994 30.1739 13.1293 27.701 13.5021 25.2909C13.7321 23.358 14.5609 22.0404 16.1332 20.8584C19.4216 18.2761 23.1665 16.5321 27.1414 15.4537C28.4993 14.989 29.9839 15.2596 31.1985 15.2692L31.201 15.27ZM35.6992 30.1837C37.4556 30.709 38.8758 30.6109 39.1227 29.2059C39.3441 27.8813 39.1838 26.0945 38.3611 25.0643C36.5422 22.8453 34.4421 20.8724 32.1139 19.1955C30.5244 18.112 28.3373 17.2832 26.4693 17.4206C23.2373 17.7582 20.3654 19.5089 17.8208 21.6189C16.0988 23.0161 16.1951 24.4371 17.5924 26.1634C19.1816 28.1175 21.3769 28.3394 23.5086 28.1941C27.8741 27.8476 32.147 27.82 35.698 30.1875L35.6992 30.1837Z" fill="#8B1B80"/>
<path d="M29.639 9.14884C27.6312 13.2449 26.6273 14.8583 21.8987 13.5307C19.7194 12.9656 18.1835 10.2446 18.9725 8.48035C20.398 5.16759 23.4303 3.46479 27.0785 4.64256C29.1262 5.34862 30.2439 7.41616 29.639 9.14884ZM24.1534 5.67851C22.8768 5.29671 21.5841 6.12758 21.032 7.7027C20.6483 8.98573 21.9687 11.5486 23.2466 11.9308C25.4021 12.5755 26.9829 11.6504 27.7769 9.28523C28.177 7.92881 26.7642 6.54879 24.1534 5.67851Z" fill="#8B1B80"/>
<path d="M40.3283 12.0842C39.6837 14.2397 37.8899 15.8768 35.9571 15.6468C33.6822 15.4012 30.8961 14.8321 30.4607 12.5255C30.421 12.0789 30.3008 11.6068 30.3406 11.184C30.5344 8.199 33.7923 6.04092 36.7696 6.8447C37.3278 7.01162 37.9585 6.94028 38.4691 7.2663C40.6098 8.2546 41.1294 9.71413 40.3335 12.0858L40.3283 12.0842ZM38.6117 11.1361C39.2645 9.24304 38.929 8.62134 36.5574 7.82538C34.7452 7.19672 32.8944 7.86068 32.4647 9.29767C32.0809 10.5807 33.5617 13.1915 34.9987 13.6213C36.7301 14.2258 37.8399 13.4269 38.6117 11.1361Z" fill="#8B1B80"/>
<path d="M42.0397 22.0704C40.9209 20.8664 39.6828 20.0614 39.1714 18.8643C38.7448 17.9539 38.7703 16.1347 39.3604 15.615C40.6403 14.5231 42.4055 13.575 44.0336 13.3658C44.8476 13.2612 45.9582 15.0723 46.6541 16.2365C47.7074 17.9493 47.6635 19.8441 46.1719 21.0502C45.1668 21.7938 43.6327 21.6886 42.0381 22.0755L42.0397 22.0704ZM45.7001 18.5524C46.1537 17.0359 43.878 14.1804 42.409 14.4371C41.8574 14.5335 41.0127 15.325 40.9971 15.667C41.2219 16.9531 41.479 18.4208 42.2225 19.426C43.4049 20.997 45.1255 20.4689 45.6988 18.5521L45.7001 18.5524Z" fill="#8B1B80"/>
<path d="M18.0406 15.9426C17.1253 18.7133 15.4099 19.5044 12.5039 18.462C10.3156 17.6327 9.53381 16.1759 10.2245 13.8664C10.8692 11.7109 13.9188 9.92666 15.9216 10.5257C17.653 11.1301 18.7426 13.8854 18.0406 15.9426ZM14.7815 12.0102C13.5937 11.3083 12.4735 11.5813 11.9468 13.076C11.4835 14.3352 12.861 17.0018 14.2422 17.3282C15.7017 17.6781 16.3554 16.6561 16.7134 15.459C17.3658 13.5673 16.9435 12.6568 14.788 12.0121L14.7815 12.0102Z" fill="#8B1B80"/>
<path d="M44.7715 55.6824C45.2033 55.1126 45.8471 53.8291 46.9141 53.1921C51.3886 50.4432 56.1761 48.3959 61.6115 49.4121C63.3361 49.7545 64.8461 50.8142 66.4258 51.6361C69.4274 53.2327 71.9621 58.4232 71.4869 61.7601C71.4869 61.7601 70.3251 65.9345 68.867 65.8465C65.9385 65.7534 63.2785 63.3043 61.0033 62.1905C58.8626 61.2022 54.5541 61.6525 51.8978 62.6822C49.4479 63.6017 48.6966 62.3328 46.3647 61.114C44.8642 60.3172 44.0584 58.076 44.7748 55.6806L44.7715 55.6824ZM66.4708 62.5202C67.2078 62.3925 68.6582 63.3477 68.8809 62.0235C68.9449 61.5199 69.255 60.4832 69.0232 59.8044C67.7022 55.4955 62.758 51.6685 58.3714 51.4874C54.9155 51.4099 51.7959 52.8252 49.1401 54.7273C48.342 55.358 47.8975 57.1387 48.0894 58.2402C48.3729 59.6291 49.8791 59.8182 51.2591 59.2749C52.0466 58.9932 52.8629 58.8 53.6931 58.6987C56.6864 58.2898 59.6309 58.0396 62.322 59.8005C63.535 60.6847 64.9331 61.5389 66.4656 62.5186L66.4708 62.5202Z" fill="#8B1B80"/>
<path d="M68.4212 40.5836C70.6563 41.2521 72.6141 44.0112 72.0088 45.7451C70.8863 48.6244 68.3495 50.1287 65.4198 49.1658C62.9686 48.3461 60.9472 46.0893 61.4008 44.5728C62.1651 42.017 65.9463 39.8434 68.4212 40.5836ZM63.3167 44.275C63.7314 44.9217 63.9872 45.5196 64.37 45.9878C65.2957 46.9635 66.3119 48.2207 67.7398 47.517C68.7765 46.9576 69.9568 45.9184 70.2668 44.8817C70.571 43.5749 69.3314 42.775 68.0228 42.2103C65.5387 41.206 65.1475 41.3504 63.3152 44.2801L63.3167 44.275Z" fill="#8B1B80"/>
<path d="M53.6019 47.3647C50.9678 46.5769 50.3931 45.0072 51.284 43.1923C52.4532 41.026 54.0422 39.494 56.7637 39.6999C58.6395 39.8262 60.6441 41.5593 60.6142 43.1131C60.6072 44.5899 58.861 46.9373 57.2091 47.226C55.8451 47.4261 54.3921 47.3396 53.6019 47.3647ZM54.3195 45.839C55.2447 45.9424 55.9075 46.054 56.5386 45.9813C58.063 45.8292 58.6281 44.5193 58.7529 43.2512C58.8403 42.6692 57.7708 41.3052 57.243 41.3221C56.1907 41.354 55.1285 41.9938 54.1713 42.577C53.653 42.8567 52.9896 43.6214 53.0521 43.9825C53.2362 44.8203 53.94 45.3789 54.3234 45.8402L54.3195 45.839Z" fill="#8B1B80"/>
<path d="M50.0494 49.0854C49.5958 50.6019 46.5557 52.041 44.7409 51.4116C42.8254 50.8387 41.9818 49.8875 42.3871 48.5326C43.318 45.42 45.7511 43.9727 48.625 44.8322C50.1982 45.3908 50.7416 46.7708 50.0494 49.0854ZM44.5542 47.7033C44.1724 48.9799 44.428 49.5791 45.3864 49.8657C46.5834 50.2238 48.1959 49.4871 48.3884 48.2406C48.5008 47.5753 48.044 46.4854 47.5321 46.159C46.383 45.6406 44.9123 46.5062 44.5542 47.7033Z" fill="#8B1B80"/>
<path d="M72.9396 55.1497C70.3293 54.2824 68.7151 52.4074 69.1917 50.8139C69.5977 49.4564 73.6269 47.6171 74.9593 48.1022C76.5329 48.6595 77.4048 51.2686 76.7519 53.1616C76.0497 55.2104 75.013 55.7698 72.9396 55.1497ZM74.2402 48.7538C71.6706 49.2042 70.834 50.2581 71.3151 52.1408C71.6462 53.3707 73.1664 54.0923 74.5483 53.5425C75.8249 53.0549 75.7921 52.0009 74.2402 48.7538Z" fill="#8B1B80"/>
</g>
</svg>
