<svg width="69" height="69" viewBox="0 0 69 69" fill="none" xmlns="http://www.w3.org/2000/svg">
<g opacity="0.1">
<path d="M4.61497 30.294L10.4144 29.1723C9.60631 31.9474 8.99686 34.2595 8.18393 37.0357C12.2908 36.3121 11.2107 32.5573 13.1487 30.1348L15.3921 41.7336C15.8829 41.7095 16.4287 41.6039 16.9195 41.5798C16.614 38.1706 16.2953 34.6932 15.9547 30.3707C17.9067 32.0458 19.2072 33.2806 20.5496 34.3658C21.7852 35.2644 23.0738 36.0718 24.3637 36.8853C24.7035 36.464 25.0469 36.0436 25.3938 35.6243C22.8609 33.1414 20.329 30.6634 17.438 27.8188C20.331 27.0469 23.022 26.3153 25.7122 25.5864C25.6066 25.0406 25.446 24.5762 25.3405 24.0304L15.5205 25.9298C15.2366 25.56 14.9527 25.1902 14.6605 24.7512L19.2954 15.7857C18.9541 15.5035 18.5962 15.2418 18.2237 15.0021C17.003 16.3758 15.7266 17.8209 14.2716 19.4471C13.7238 17.7128 13.1462 16.1966 12.638 14.6669C12.2069 14.762 11.7691 14.823 11.3284 14.8494C11.502 17.5763 11.6073 20.3164 11.7522 23.2611C7.63356 21.722 5.76881 16.8449 1.66088 15.7334L1.00051 16.7105C4.22438 19.8384 7.39323 23.0476 10.8888 26.4755C8.17913 27.4963 6.06645 28.2576 4.01736 29.0079C4.24935 29.4259 4.45155 29.8599 4.62243 30.3064L4.61497 30.294Z" fill="#8B1B80"/>
<path d="M39.7171 46.3667C42.0742 46.477 44.4494 46.6546 47.3056 46.81C45.7557 50.5073 44.2895 53.9052 42.8867 57.2909L43.7824 57.8962C44.7302 56.5754 45.8163 55.2379 46.6022 53.8118C47.448 52.3034 48.0265 50.5635 48.7046 48.9459C49.0589 48.9482 49.4265 49.0187 49.7796 49.0211L51.9439 60.2106C52.4897 60.105 52.9805 60.0809 53.5263 59.9753L50.9265 46.5343L52.0368 45.6876C54.4265 47.7634 56.7303 49.8002 59.1158 51.8869C59.3623 51.6976 59.622 51.5766 59.8685 51.3874C58.8299 49.6772 57.7363 48.0484 56.5776 46.0834C59.5555 45.0119 62.5334 43.9405 65.5245 42.9372C65.4167 42.7457 65.3771 42.5411 65.2561 42.2813C62.3223 42.8488 59.3466 43.5659 56.3732 43.9287C55.3366 44.0584 53.9 43.5577 53.1095 42.7904C52.7574 42.4339 53.3491 40.7622 53.8911 39.8788C54.9654 38.1138 56.2707 36.4458 57.4946 34.7226C57.1689 34.5025 56.8309 34.219 56.5043 33.994C54.8556 36.0824 53.2069 38.1709 50.9815 40.9371L49.0142 30.7662L48.4684 30.8717C48.5495 33.121 48.5625 35.3835 48.6369 38.6958C45.1379 35.9751 42.3716 33.7497 39.6054 31.5243L38.5753 32.7853C40.283 34.2953 41.8674 35.8999 43.6252 37.3294C45.74 39.1146 49.5473 40.5016 48.3145 43.6421C47.7883 44.9471 43.3602 44.7419 40.6861 45.1883C40.345 45.2543 40.0899 45.3732 39.7439 45.4401C39.7498 45.7496 39.7392 46.0592 39.7122 46.3676L39.7171 46.3667Z" fill="#8B1B80"/>
<path d="M48.5923 11.383C47.3619 11.9749 46.0633 12.58 44.506 13.3109C46.1841 15.0339 47.7602 16.5694 49.2451 18.0517C49.1304 18.2326 48.9969 18.4008 48.8467 18.5534C48.0312 18.0034 47.1619 17.5345 46.4159 16.971C45.6616 16.3383 44.9261 15.4896 44.2219 14.7764L43.6523 15.0989L44.9324 21.7171C44.59 21.7833 44.3364 21.9031 43.9904 21.9701L42.4464 13.9874C42.1471 13.9037 41.928 13.8753 41.6299 13.7914C40.8105 15.4363 39.9326 17.0925 39.1169 18.7366C38.9675 18.696 38.7493 18.6662 38.5997 18.6243C38.797 17.4486 39.0096 16.3521 39.2494 15.0304C37.3544 15.1138 35.5277 15.184 33.6328 15.2674C33.6064 15.131 33.6484 14.9825 33.6218 14.8448C35.3957 14.5017 37.1146 14.24 38.8624 13.7617C39.4584 13.5756 40.1344 13.0189 40.3702 12.4083C40.4539 12.109 39.7365 11.3276 39.3161 10.9843C38.3258 10.2557 37.2805 9.60847 36.2352 8.96129C36.3321 8.73021 36.5104 8.55416 36.6072 8.32308C37.965 9.12216 39.318 9.92219 41.1429 10.9141L39.9816 4.90997L40.2545 4.85718C40.7099 6.11392 41.1653 7.37067 41.8769 9.21995C43.1999 6.91141 44.1927 5.09143 45.267 3.32647C45.5112 3.49156 45.8237 3.64346 46.0671 3.80368C45.4475 4.98523 44.9081 6.22205 44.2861 7.40407C43.5002 8.83013 41.7592 10.4409 43.0993 11.8805C43.6407 12.4836 46.0463 11.3812 47.6205 11.0768C47.8029 11.03 47.9924 11.0174 48.1795 11.0394C48.4654 11.0536 48.4917 11.1901 48.5996 11.3816L48.5923 11.383Z" fill="#8B1B80"/>
</g>
</svg>
