<svg width="42" height="42" viewBox="0 0 42 42" fill="none" xmlns="http://www.w3.org/2000/svg">
<g opacity="0.1">
<path d="M17.1421 10.17C17.1421 8.22807 17.0553 6.41242 17.1895 4.59677C17.3632 1.89698 14.6713 0.262904 12.1925 0.00239826C11.6636 -0.0449689 10.8663 0.618136 10.5111 1.19441C9.23222 3.31793 8.07968 5.52828 6.88767 7.73863C5.78249 9.77532 4.23525 10.4384 2.77484 9.59375C0.919714 8.48857 0.517114 6.45189 1.71702 4.59677C1.98542 4.20207 2.07226 3.76 2.33276 3.00216C0.209245 4.19417 -0.493334 6.8466 0.343442 8.97011C1.14075 10.9594 3.13007 12.112 5.03255 11.4015C5.86933 11.0936 6.62716 10.249 7.10871 9.49902C8.26125 7.6439 9.09802 5.65459 10.29 3.83894C10.8189 3.00216 11.8846 1.98382 12.6741 1.98382C14.3555 1.98382 16.0764 2.95479 16.2106 4.80991C16.3843 7.5097 16.8264 10.249 13.8661 12.3251C11.3873 14.046 8.91646 15.9485 7.54288 18.9088C4.53522 25.232 5.33252 31.7762 9.88743 36.1969C15.2396 41.2886 21.5628 43.3253 28.857 41.115C32.4804 40.0098 34.6513 37.1837 36.459 33.955C39.3325 28.8238 40.1693 23.6137 38.0063 18.0878C37.3432 16.3195 36.2854 14.8591 34.2487 14.3776C33.8935 14.2908 33.5382 14.0224 33.2777 13.7618C28.9044 9.83057 23.8206 8.89907 18.1999 10.0911C17.9394 10.1227 17.7184 10.1227 17.1421 10.17ZM37.2169 21.9244C28.4228 21.4823 20.9945 18.743 13.5661 14.4565C14.4976 13.7461 14.9791 13.304 15.508 12.9961C20.7655 9.81479 28.5491 10.92 32.662 15.4275C33.1909 16.0038 33.6803 16.9748 34.2961 17.0616C37.1221 17.5037 36.5064 19.714 37.2169 21.9244ZM32.1725 36.1654C31.4226 38.202 29.5201 39.7493 27.0019 40.2782C20.3708 41.6912 12.5004 38.9046 8.74278 32.6288C8.12705 31.6105 7.90601 30.3316 7.46394 29.1791C7.63761 29.0449 7.77181 28.9107 7.95337 28.7844C14.7107 35.7233 23.1574 36.8679 32.1725 36.1654ZM36.6801 27.6713C36.7669 29.7474 35.7091 30.15 34.4224 30.3237C28.7228 30.9868 23.1969 30.3711 17.7579 28.5554C14.2687 27.4029 11.5215 25.2399 9.27169 22.4138C8.34019 21.2613 8.30072 20.2034 9.40589 19.2325C11.1268 20.4245 12.6741 21.7507 14.4029 22.7217C18.9578 25.3741 23.6864 27.5371 29.2122 27.4108C31.6436 27.3239 34.1224 27.545 36.6801 27.6713ZM10.6453 17.5984C11.9715 16.0038 12.0188 15.9643 13.3845 16.6274C20.505 20.164 27.7992 23.0374 35.8433 23.4795C36.3327 23.5269 36.8143 24.1426 37.2563 24.4979C36.7274 24.8057 36.1985 25.4294 35.6223 25.4294C33.0172 25.5162 30.3174 25.6978 27.7124 25.4294C21.255 24.7584 15.5554 22.1928 10.6453 17.5984ZM34.825 32.8498C34.9118 33.955 33.8066 33.6471 32.7014 33.9076C27.7045 35.1865 22.9285 34.3971 18.1605 32.9367C14.7581 31.9183 11.6636 30.3711 9.36642 27.6318C8.48228 26.574 7.95337 25.1531 7.29027 23.9216C7.5113 23.7479 7.73234 23.5269 8.00074 23.3453C11.0952 27.4108 15.0265 30.1974 19.9366 31.0815C24.7047 31.9657 29.6069 32.2262 34.825 32.8498Z" fill="#8B1B80"/>
</g>
</svg>
