<svg width="55" height="58" viewBox="0 0 55 58" fill="none" xmlns="http://www.w3.org/2000/svg">
<g opacity="0.1">
<path d="M27.641 28.733C30.4326 30.5941 32.6659 26.996 31.6734 24.4525C30.3706 20.9785 26.2142 21.2887 23.6087 23.2118C20.6309 25.383 21.5615 29.8497 24.1626 31.8968C27.0783 34.1301 31.2956 33.6959 34.0883 31.5246C37.1902 29.0432 37.8726 24.7671 36.4457 21.2222C34.8948 17.2519 31.1106 14.7704 26.8922 14.3982C22.4876 14.026 17.5867 15.9491 15.2294 19.8574C12.934 23.5796 13.6785 28.6665 15.4775 32.4507C17.6488 37.0414 21.9293 40.3914 27.1403 40.4523C31.9791 40.5143 37.9966 37.6618 39.9818 32.9459C40.292 32.2635 39.3614 31.8293 38.8651 32.0774C36.3172 33.2561 34.3365 35.2413 31.731 36.3579C28.5671 37.6618 24.907 37.7227 22.0533 35.6135C17.4006 32.2646 14.7342 23.5785 19.8821 19.6081C24.845 15.8239 34.3941 17.5034 34.2124 25.0053C34.1504 27.921 31.793 30.2795 28.8773 30.4024C26.9542 30.4645 24.7785 29.2238 24.7785 27.1145C24.8405 25.9358 25.4609 25.3775 26.5155 24.8812C26.8352 24.7407 27.1696 24.6367 27.5125 24.571C29.0014 24.0748 29.1255 25.3155 27.8227 28.3552C27.5125 28.2323 27.3884 28.5425 27.6366 28.7286L27.641 28.733Z" fill="#8B1B80"/>
<path d="M26.0278 12.2935C26.8342 10.3083 27.0824 8.07502 27.3926 5.96579C27.6407 4.16674 27.9464 2.31009 27.2685 0.568642C27.0203 -0.0517195 26.2139 -0.237828 25.7796 0.382534C24.725 2.05751 24.725 4.1047 24.6009 6.03225C24.5389 8.07945 24.4148 10.2507 24.787 12.2979C24.9731 12.9803 25.8416 12.7942 26.0278 12.2979V12.2935Z" fill="#8B1B80"/>
<path d="M18.2116 15.2092C17.9635 13.4722 16.7227 11.7352 15.7302 10.3084C14.6135 8.69541 13.3728 6.89636 11.6314 5.96582C10.7628 5.53157 10.0184 6.276 10.1425 7.14451C10.4527 9.13077 11.8175 10.8678 13.1823 12.3511C14.3609 13.5918 16.0359 15.2668 17.7729 15.577C17.959 15.577 18.2692 15.4529 18.2072 15.2048L18.2116 15.2092Z" fill="#8B1B80"/>
<path d="M10.8336 23.3979C9.46878 22.1572 7.23548 22.3433 5.5605 22.5914C3.51331 22.9016 1.52815 23.5884 0.225391 25.259C-0.208862 25.8129 -0.0227542 26.8099 0.845752 26.7478C2.58276 26.6238 4.13367 26.0654 5.80864 25.6932C7.35955 25.321 9.34471 25.383 10.6475 24.5145C11.0817 24.3284 11.2014 23.7081 10.8336 23.3979Z" fill="#8B1B80"/>
<path d="M13.1247 34.2542C11.2016 33.0755 8.3479 36.0533 7.04514 37.294C5.24609 39.093 2.82668 41.6986 2.76465 44.3661C2.76465 44.8624 3.38501 45.2967 3.81926 44.9865C5.61831 43.7457 6.61089 41.6365 7.97568 40.0236C8.65808 39.2171 9.40252 38.4106 10.147 37.6662C10.8293 36.9838 12.0701 35.3709 13.0006 35.1183C13.4349 34.9942 13.4969 34.4359 13.1247 34.2498V34.2542Z" fill="#8B1B80"/>
<path d="M19.8864 41.9468C19.4521 44.4282 19.3325 46.9717 19.1419 49.4531C18.8938 51.9346 18.5216 54.416 18.8938 56.8975C19.0179 57.6419 20.2586 57.828 20.5688 57.1456C22.3678 52.8651 22.4919 46.7856 22.0576 42.2569C21.9336 41.0783 20.1345 40.582 19.8864 41.9468Z" fill="#8B1B80"/>
<path d="M33.2238 41.0783C34.2208 42.9393 35.1469 44.8004 36.2636 46.5995C37.1941 48.1504 38.0006 49.8874 39.6756 50.7559C40.1719 51.004 40.9163 50.6939 40.8543 50.0735C40.6682 48.0883 39.3034 46.5995 38.1247 45.1106C36.884 43.4356 35.4571 41.9468 34.0923 40.3959C33.7201 39.8996 32.9136 40.5199 33.2238 41.0783Z" fill="#8B1B80"/>
<path d="M42.7776 29.7301C44.7008 29.7921 46.6239 29.4199 48.547 29.2958C50.222 29.1717 52.0831 29.4819 53.5099 28.4893C54.2543 27.993 54.1923 27.1245 53.5099 26.6282C51.959 25.4485 49.6637 26.0068 47.8602 26.1929C45.875 26.441 44.076 26.9373 42.339 27.9919C41.4705 28.4273 41.7851 29.668 42.7732 29.7301H42.7776Z" fill="#8B1B80"/>
<path d="M39.1794 16.698C41.4127 16.636 43.584 15.4573 45.6312 14.6508C47.3062 14.0305 49.7876 13.5342 50.5941 11.7972C50.7802 11.3629 50.7802 10.7426 50.2839 10.5565C48.4228 9.74998 46.5617 10.8666 44.8247 11.6111C42.7199 12.5416 40.172 13.3481 38.497 15.0231C37.8767 15.6434 38.3109 16.7601 39.1794 16.698Z" fill="#8B1B80"/>
</g>
</svg>
