<svg width="64" height="49" viewBox="0 0 64 49" fill="none" xmlns="http://www.w3.org/2000/svg">
<g opacity="0.1">
<path d="M58.5221 24.2856C52.4608 25.8255 46.4721 27.4054 40.4088 28.9349C35.6947 30.1711 30.8609 31.2357 26.458 33.2984C25.602 30.1422 24.582 27.0329 23.4019 23.983C22.6967 22.2376 22.0039 20.5006 21.184 18.7774C20.8596 18.0507 19.4351 15.7739 18.8804 14.5834C19.0678 14.2659 19.1536 13.8708 19.0201 13.5722C19.0101 13.4689 18.9686 13.3712 18.9011 13.2924C18.6514 12.6161 18.2687 12.2034 17.578 12.0991C17.5034 12.0486 17.3887 12.0708 17.3265 12.0288C16.6984 11.9123 16.016 12.4661 15.8148 12.9916C15.3943 14.2842 15.8333 14.9888 16.4862 16.1279C17.5499 18.1608 18.5409 20.1538 19.417 22.223C21.3509 26.5751 22.8379 31.1326 23.9705 35.7586C24.2145 36.6847 25.1728 37.2781 26.1067 36.7946C31.0968 34.0776 36.6308 32.9425 42.1204 31.578C47.7751 30.1167 53.4271 28.6596 59.0762 27.2066C60.941 26.727 60.3764 23.808 58.5221 24.2856Z" fill="#8B1B80"/>
<path d="M17.9289 13.2425C30.1418 9.06371 42.7921 6.19549 55.6055 4.50695C57.4938 4.26075 56.9293 1.34176 55.041 1.58797C41.9745 3.33649 29.1093 6.35333 16.6276 10.5958C14.816 11.2381 16.1819 13.8832 17.9289 13.2425Z" fill="#8B1B80"/>
<path d="M51.6194 3.57991C52.5958 11.1453 53.5751 18.7066 54.5571 26.2637C54.8033 28.1519 57.7223 27.5874 57.4761 25.6992C56.4996 18.1338 55.5204 10.5725 54.5384 3.0154C54.2902 1.11674 51.3712 1.68124 51.6194 3.57991Z" fill="#8B1B80"/>
<path d="M17.3595 13.7095C20.4543 15.9553 23.6924 17.9354 27.1554 19.5693C29.3542 20.5932 33.7537 23.3221 36.2944 22.6469C37.7942 22.2379 38.9815 20.5483 40.0662 19.6139C41.769 18.0734 43.4718 16.5328 45.1521 14.9317C48.5577 11.8505 51.9408 8.70887 55.2839 5.63983C56.6665 4.34503 54.7211 2.11487 53.3385 3.40967C48.035 8.25296 42.9291 13.7826 37.2309 18.1507C35.4417 19.5241 34.3222 19.3837 32.2825 18.5669C30.8951 17.9917 29.5161 17.404 28.1166 16.7662C24.9051 15.2027 21.8788 13.3113 18.9831 11.2001C17.5074 10.112 15.8071 12.5605 17.3595 13.7095Z" fill="#8B1B80"/>
<path d="M30.0869 20.6354C28.9422 23.6999 28.1357 26.8804 27.6818 30.1201C27.4488 32.0469 30.3983 32.2552 30.6333 30.3388C31.035 27.3502 31.7897 24.4198 32.8816 21.609C33.5675 19.8433 30.7729 18.8697 30.0869 20.6354Z" fill="#8B1B80"/>
<path d="M40.4019 18.8893C43.9654 22.1122 47.9924 24.7821 52.3483 26.8098C54.0841 27.6205 55.0597 24.8362 53.3219 24.0151C49.4079 22.2306 45.8498 19.8256 42.63 16.9335C41.2448 15.6981 39.0025 17.581 40.4019 18.8893Z" fill="#8B1B80"/>
<path d="M8.63736 40.3569C12.1699 38.0496 15.9885 36.2132 19.9963 34.8941C21.818 34.3039 20.4505 31.5943 18.693 32.237C14.7053 33.6057 10.8928 35.4392 7.334 37.6998C5.72812 38.7349 7.02105 41.3941 8.63736 40.3569Z" fill="#8B1B80"/>
<path d="M10.4489 47.2091C12.2477 44.3198 14.6879 42.2112 17.7693 40.8835C19.5046 40.1261 18.2012 37.469 16.4659 38.2264C12.9414 39.7358 9.96929 42.2974 7.9563 45.5607C6.9257 47.1659 9.43677 48.8541 10.4489 47.2091Z" fill="#8B1B80"/>
</g>
</svg>
