<svg width="48" height="54" viewBox="0 0 48 54" fill="none" xmlns="http://www.w3.org/2000/svg">
<g opacity="0.1">
<path d="M18.2716 28.0775C16.7369 27.8537 15.2022 27.6401 13.6675 27.4265C15.4054 25.6769 17.1434 23.9375 18.9017 22.2184C20.2128 20.9062 18.2208 18.9125 16.9097 20.2247C15.3241 21.7912 13.7386 23.3577 12.1633 24.9445C12.1023 22.961 12.0176 20.9706 11.9092 18.9735C11.7974 17.1527 8.95156 17.1527 9.06336 18.9735C9.18532 21.1605 9.27679 23.3441 9.33777 25.5243C7.51849 23.6323 5.62806 21.8013 3.65632 20.0517C2.2944 18.8006 0.302332 20.7943 1.66425 22.0455C3.22945 23.4492 4.7506 24.8937 6.22771 26.3788C4.74383 26.1652 3.2701 25.9617 1.77605 25.7481C0.00758478 25.5243 -0.785169 28.2504 1.03412 28.4844C3.25994 28.8099 5.47561 29.1151 7.69127 29.4304C6.90868 30.2137 6.13624 31.0071 5.36381 31.7903C4.0527 33.1025 6.10575 35.0963 7.35587 33.7841C8.047 33.0924 8.73813 32.4006 9.41909 31.7089C9.41909 34.4452 9.37504 37.1883 9.28695 39.9382C9.22597 41.759 12.0718 41.759 12.1328 39.9382C12.2039 37.6393 12.2547 35.3506 12.2649 33.072C13.576 34.669 14.8431 36.3135 16.0661 38.0055C17.1434 39.4906 19.5929 38.0665 18.5155 36.5814C16.9605 34.4045 15.3207 32.2989 13.5963 30.2645C14.9074 30.4476 16.2287 30.6409 17.5398 30.824C19.2981 31.0478 20.0909 28.3115 18.2716 28.0775Z" fill="#8B1B80"/>
<path d="M43.9451 19.9398C42.0445 17.4171 40.1371 14.8979 38.223 12.382C38.8633 12.504 39.4934 12.6261 40.1337 12.7583C41.9022 13.1042 42.695 10.3679 40.8757 10.022C39.656 9.77791 38.4262 9.55412 37.1964 9.35068C38.7718 7.90624 40.398 6.51606 42.075 5.18013C43.4979 4.04086 41.5058 2.04713 40.0829 3.1864C38.8836 4.15275 37.708 5.14961 36.5561 6.17699C36.6679 4.5698 36.7899 2.97279 36.9017 1.3656C37.0745 -0.4552 34.2287 -0.4552 34.0559 1.3656C33.9339 3.05417 33.812 4.7529 33.69 6.44147C32.4094 4.77325 31.1288 3.09485 29.838 1.42663C28.7607 0.00254298 26.2502 1.42663 27.3886 2.91176C28.8521 4.81393 30.3089 6.71611 31.7589 8.61829C29.9091 8.41485 28.0594 8.26227 26.1994 8.15037C24.3801 8.03848 24.3801 10.8867 26.1994 10.9986C27.8459 11.0799 29.4823 11.202 31.1186 11.3647C29.2282 13.3076 27.4157 15.3285 25.6811 17.4273C24.5428 18.8514 26.5348 20.8451 27.6731 19.421C29.4416 17.2849 31.2812 15.22 33.2021 13.2466C32.9684 16.461 32.7448 19.6855 32.511 22.8999C32.3992 24.7207 35.245 24.7207 35.3568 22.8999C35.5601 19.9805 35.7735 17.0611 35.9768 14.1417C37.8164 16.5525 39.656 18.9599 41.4956 21.3639C42.573 22.788 45.0834 21.3639 43.9451 19.9398Z" fill="#8B1B80"/>
<path d="M47.2385 43.1728C45.03 42.1676 42.7378 41.3575 40.3883 40.7519C42.6141 38.0868 44.8399 35.4183 47.0658 32.7465C48.2651 31.3834 46.212 29.3286 45.0737 30.7527C43.102 33.1262 41.1302 35.4929 39.1585 37.8528V31.6682C39.1585 29.8474 36.3127 29.8474 36.3127 31.6682V38.5445C34.7678 36.4694 33.2128 34.4045 31.6476 32.3498C30.5092 30.8646 28.0598 32.2887 29.1473 33.7738C30.6312 35.7167 32.1117 37.6765 33.5888 39.6533C32.2257 39.5582 30.8585 39.5345 29.4929 39.5821C27.6736 39.6431 27.6126 42.4913 29.4929 42.4303C31.3891 42.3496 33.2887 42.4176 35.1743 42.6337C33.2941 44.8817 31.4172 47.1298 29.5437 49.3778C28.4054 50.8019 30.3975 52.7956 31.5358 51.3715C33.1315 49.4592 34.7238 47.5502 36.3127 45.6447V52.6329C36.3127 54.4537 39.1585 54.4537 39.1585 52.6329V47.2417C40.3476 48.8794 41.5232 50.5239 42.6852 52.1751C43.7118 53.6602 46.212 52.2362 45.1347 50.751C43.4407 48.3199 41.7231 45.9125 39.9817 43.5289C41.9847 44.0524 43.9371 44.7537 45.8156 45.6243C47.4723 46.3669 48.946 43.9154 47.2385 43.1728Z" fill="#8B1B80"/>
</g>
</svg>
