<svg width="128" height="64" viewBox="0 0 128 64" fill="none" xmlns="http://www.w3.org/2000/svg">
<path d="M127.973 37.5677L128 23.2557C128.027 16.2966 122.264 10.598 115.194 10.5718L84.5928 10.493C77.5228 10.4667 71.7334 16.139 71.7067 23.0981L71.68 37.4101C71.6533 44.3692 77.4161 50.0678 84.486 50.094L115.087 50.1728C122.157 50.1991 127.946 44.5005 127.973 37.5677ZM89.4484 39.406C86.8872 39.406 84.7795 37.3314 84.7795 34.7841L84.8062 25.7504C84.8062 23.2294 86.9139 21.1548 89.5017 21.1548L110.231 21.2073C112.793 21.2073 114.9 23.2819 114.9 25.8292L114.874 34.8629C114.874 37.3839 112.766 39.4585 110.178 39.4585L89.4484 39.406Z" fill="#1A1A1A"/>
<ellipse cx="95.3598" cy="30.3577" rx="5.76" ry="5.71765" fill="#1A1A1A"/>
<ellipse cx="104.32" cy="30.4" rx="5.76" ry="5.76" fill="#1A1A1A"/>
<path d="M69.12 52.0684V10.493H57.7682H57.6624V24.2898C57.1596 22.3075 56.1541 20.5366 54.8575 19.1887C53.0317 17.3121 48.8244 15.6205 48.8244 15.6205L12.07 0L7.57158 10.3873L44.5641 26.1399C45.4109 26.51 46.1783 26.7478 46.2312 27.6729C46.2576 28.5716 45.5167 29.153 44.8288 29.153C44.1672 29.153 23.7393 20.2988 23.7393 20.2988C23.7393 20.2988 16.3567 16.8099 13.4724 16.5456C9.10632 16.1227 4.71379 18.3958 2.57044 22.3075C1.88246 23.5233 0.771091 26.0871 0.400637 27.435C-0.472578 30.6596 0.188948 33.6198 1.35323 35.8136C2.88798 38.6945 4.84609 40.016 8.63002 41.6019C12.1758 43.1084 15.748 44.615 19.2938 46.148C23.1836 47.7867 25.1946 48.8175 28.8727 48.236C31.3601 47.8395 34.0326 46.4651 35.9114 44.0335C36.4141 43.3727 36.8111 42.6327 37.2344 41.8398C37.552 41.2319 38.0283 39.8575 38.5046 39.5667C39.1132 39.1967 40.0658 39.3553 40.4627 40.0689C40.8596 40.809 40.0658 42.4477 40.0658 42.4477L35.5674 53.0728L45.9401 57.5132L57.4771 30.3424C57.5301 30.1574 57.6094 29.946 57.6359 29.7345V30.6332L57.5301 50.4297C57.5301 51.3548 57.583 52.1742 56.7627 52.5442C56.0482 52.6763 51.4176 52.597 50.6237 52.597V63.9887C58.7208 63.9887 64.5422 64.5437 67.8763 57.8832C68.6702 56.3238 69.0671 54.2093 69.0935 52.227L69.12 52.0684ZM26.0679 36.5801C25.0359 36.4215 18.5 33.4084 16.9917 32.774C15.7216 32.219 13.6312 31.4789 12.5198 30.8446C11.1967 30.1045 11.8847 28.0429 13.4724 28.3601C13.9487 28.4394 26.2002 33.6463 26.9146 34.0691C28.1847 34.7828 27.4438 36.7651 26.0679 36.5801Z" fill="#1A1A1A"/>
</svg>
