<svg width="25" height="25" viewBox="0 0 25 25" fill="none" xmlns="http://www.w3.org/2000/svg">
<path d="M19.2501 6.5V16.25C19.2501 16.4489 19.171 16.6397 19.0304 16.7803C18.8897 16.921 18.699 17 18.5001 17C18.3011 17 18.1104 16.921 17.9697 16.7803C17.8291 16.6397 17.7501 16.4489 17.7501 16.25V8.31031L7.03068 19.0306C6.88995 19.1714 6.69907 19.2504 6.50005 19.2504C6.30103 19.2504 6.11016 19.1714 5.96943 19.0306C5.8287 18.8899 5.74963 18.699 5.74963 18.5C5.74963 18.301 5.8287 18.1101 5.96943 17.9694L16.6897 7.25H8.75005C8.55114 7.25 8.36037 7.17098 8.21972 7.03033C8.07907 6.88968 8.00005 6.69891 8.00005 6.5C8.00005 6.30109 8.07907 6.11032 8.21972 5.96967C8.36037 5.82902 8.55114 5.75 8.75005 5.75H18.5001C18.699 5.75 18.8897 5.82902 19.0304 5.96967C19.171 6.11032 19.2501 6.30109 19.2501 6.5Z" fill="white"/>
</svg>
